<?xml version="1.0" encoding="utf-8"?>
<!-- Generator: Adobe Illustrator 18.0.0, SVG Export Plug-In . SVG Version: 6.00 Build 0)  -->
<!DOCTYPE svg PUBLIC "-//W3C//DTD SVG 1.1//EN" "http://www.w3.org/Graphics/SVG/1.1/DTD/svg11.dtd">
<svg version="1.1" id="Layer_1" xmlns="http://www.w3.org/2000/svg" xmlns:xlink="http://www.w3.org/1999/xlink" x="0px" y="0px"
	 viewBox="147 337 120 120" enable-background="new 147 337 120 120" xml:space="preserve">
<circle fill="#00AFF0" cx="207" cy="397" r="60"/>
<g>
	<path fill="#FFFFFF" d="M224,394.4c-0.3,0-0.7-0.1-1-0.3c-0.4-0.3-0.8-0.8-1.5-1.2c-0.4-0.2-0.9-0.3-1.2-0.4s-0.9-0.1-1.2-0.2
		c-0.9-0.1-1.8-0.2-2.8-0.3c-1-0.1-2-0.2-3.1-0.3c-0.3,0-0.7,0-1.1,0.1c-0.4,0.1-0.8,0.4-0.9,0.6c-0.4,0.3-0.6,0.3-0.9,0.3
		c-0.4-0.1-0.9-0.3-1.4-0.5c-0.6-0.2-1.1-0.5-2-0.6c-0.3,0-0.8,0-1.1,0.1c-0.4,0.1-0.6,0.2-0.8,0.2c-0.5,0.1-0.9,0.1-1.5,0.1
		s-1.2-0.1-1.9,0.1c-0.7,0.1-1.3,0.5-1.7,0.6c-0.9,0.3-1.8,0.3-2.8,0.4c-1,0-2,0.1-2.8,0.2c-3.5,0.2-5.9,0.5-5.9,0.5
		s2.4,0.3,5.9,0.6c0.9,0.1,1.8,0.1,2.8,0.2c0.9,0,2.1,0.2,3.4-0.2c0.7-0.2,1-0.4,1.4-0.5c0.4-0.1,0.9,0,1.5,0c0.6,0,1.2,0.1,2-0.1
		c0.4-0.1,0.7-0.2,0.9-0.2c0.3-0.1,0.4-0.1,0.7-0.1s0.9,0.2,1.3,0.4c0.6,0.2,1.1,0.5,1.9,0.6c0.4,0,0.8,0,1.2-0.1
		c0.2-0.1,0.4-0.2,0.6-0.3c0.2-0.1,0.3-0.2,0.5-0.3c0.5-0.4,0.5-0.4,0.9-0.4c1,0,2.2,0,3.1,0c1,0,2,0,2.8,0c0.9,0,1.7-0.1,2.3,0.1
		s1,0.7,1.6,0.9c0.5,0.2,0.9,0.2,1.2,0.1s0.4-0.3,0.4-0.3S224.3,394.4,224,394.4z"/>
	<polygon fill="#FFFFFF" points="217.2,366.6 209,366.6 211.5,351.3 196.8,369.4 205,369.4 202.5,384.8 	"/>
</g>
<path fill="#2B3B4E" d="M238.1,394.1v54.2c-1.5,0.9-3.1,1.8-4.7,2.6v-56.8H238.1z"/>
<circle fill="#FFFFFF" cx="235.7" cy="393.4" r="6.7"/>
<g>
	<path fill="#324A5E" d="M243.4,440.5h-15.2c-1.4,0-2.6-1.1-2.6-2.6v-0.2c0-1.4,1.1-2.6,2.6-2.6h15.2c1.4,0,2.6,1.1,2.6,2.6v0.2
		C245.9,439.3,244.8,440.5,243.4,440.5z"/>
	<path fill="#324A5E" d="M243.4,432.6h-15.2c-1.4,0-2.6-1.1-2.6-2.6v-0.2c0-1.4,1.1-2.6,2.6-2.6h15.2c1.4,0,2.6,1.1,2.6,2.6v0.2
		C245.9,431.5,244.8,432.6,243.4,432.6z"/>
	<path fill="#324A5E" d="M243.4,424.7h-15.2c-1.4,0-2.6-1.1-2.6-2.6v-0.2c0-1.4,1.1-2.6,2.6-2.6h15.2c1.4,0,2.6,1.1,2.6,2.6v0.2
		C245.9,423.6,244.8,424.7,243.4,424.7z"/>
	<path fill="#324A5E" d="M243.4,416.8h-15.2c-1.4,0-2.6-1.1-2.6-2.6v-0.2c0-1.4,1.1-2.6,2.6-2.6h15.2c1.4,0,2.6,1.1,2.6,2.6v0.2
		C245.9,415.7,244.8,416.8,243.4,416.8z"/>
	<path fill="#324A5E" d="M243.4,408.9h-15.2c-1.4,0-2.6-1.1-2.6-2.6v-0.2c0-1.4,1.1-2.6,2.6-2.6h15.2c1.4,0,2.6,1.1,2.6,2.6v0.2
		C245.9,407.8,244.8,408.9,243.4,408.9z"/>
</g>
<path fill="#2B3B4E" d="M180.6,394.1v56.8c-1.6-0.8-3.2-1.6-4.7-2.6v-54.2H180.6z"/>
<circle fill="#FFFFFF" cx="178.3" cy="393.4" r="6.7"/>
<g>
	<path fill="#324A5E" d="M185.8,440.5h-15.2c-1.4,0-2.6-1.1-2.6-2.6v-0.2c0-1.4,1.1-2.6,2.6-2.6h15.2c1.4,0,2.6,1.1,2.6,2.6v0.2
		C188.4,439.3,187.3,440.5,185.8,440.5z"/>
	<path fill="#324A5E" d="M185.8,432.6h-15.2c-1.4,0-2.6-1.1-2.6-2.6v-0.2c0-1.4,1.1-2.6,2.6-2.6h15.2c1.4,0,2.6,1.1,2.6,2.6v0.2
		C188.4,431.5,187.3,432.6,185.8,432.6z"/>
	<path fill="#324A5E" d="M185.8,424.7h-15.2c-1.4,0-2.6-1.1-2.6-2.6v-0.2c0-1.4,1.1-2.6,2.6-2.6h15.2c1.4,0,2.6,1.1,2.6,2.6v0.2
		C188.4,423.6,187.3,424.7,185.8,424.7z"/>
	<path fill="#324A5E" d="M185.8,416.8h-15.2c-1.4,0-2.6-1.1-2.6-2.6v-0.2c0-1.4,1.1-2.6,2.6-2.6h15.2c1.4,0,2.6,1.1,2.6,2.6v0.2
		C188.4,415.7,187.3,416.8,185.8,416.8z"/>
	<path fill="#324A5E" d="M185.8,408.9h-15.2c-1.4,0-2.6-1.1-2.6-2.6v-0.2c0-1.4,1.1-2.6,2.6-2.6h15.2c1.4,0,2.6,1.1,2.6,2.6v0.2
		C188.4,407.8,187.3,408.9,185.8,408.9z"/>
</g>
</svg>
