<?xml version="1.0" encoding="utf-8"?>
<!-- Generator: Adobe Illustrator 18.0.0, SVG Export Plug-In . SVG Version: 6.00 Build 0)  -->
<!DOCTYPE svg PUBLIC "-//W3C//DTD SVG 1.1//EN" "http://www.w3.org/Graphics/SVG/1.1/DTD/svg11.dtd">
<svg version="1.1" id="Layer_1" xmlns="http://www.w3.org/2000/svg" xmlns:xlink="http://www.w3.org/1999/xlink" x="0px" y="0px"
	 viewBox="147 337 120 120" enable-background="new 147 337 120 120" xml:space="preserve">
<circle fill="#00EAF0" cx="207" cy="397" r="60"/>
<ellipse transform="matrix(0.2941 -0.9558 0.9558 0.2941 -267.2127 432.7591)" fill="#FFFFFF" cx="159.4" cy="397.3" rx="5" ry="2.2"/>
<path fill="#00AFF0" d="M151.6,420.1c9.1,21.7,30.4,36.9,55.4,36.9s46.4-15.2,55.4-36.9H151.6z"/>
<path fill="#FFFFFF" d="M255.4,405.5l-0.9-0.1c-0.5-0.1-0.8-0.5-0.8-0.9l0.9-5.5c0.1-0.5,0.5-0.8,0.9-0.8l0.9,0.1
	c0.5,0.1,0.8,0.5,0.8,0.9l-0.9,5.5C256.2,405.2,255.9,405.6,255.4,405.5z"/>
<path fill="#FD8469" d="M253.9,407.1c-0.6,2-2.4,3.4-4.3,3.4l-63.8,0.8l0,0h-0.9c0,0-18,0.6-23.7-2.6c-0.8-0.5-1.3-0.9-1.6-1.6
	c0,0-4.5-10.4,5.3-18.1l9.1-11.7c1.1-1.8,11.5-3.2,24.2-3.2s23.1,1.4,24.2,3.2l6.9,11.1c0.7,1,1.8,1.7,2.9,1.7
	c4.6,0.2,16.3,0.9,21.5,2.9c1.4,0.6,2.4,1.9,2.5,3.3C256.2,398.9,254.8,403.6,253.9,407.1z"/>
<g>
	<path fill="#2B3B4E" d="M185.7,411.3h-0.9c0,0-18,0.6-23.7-2.6c2.2-3.2,11.1-14.2,21.3,0.4C183.2,410.1,184.4,410.9,185.7,411.3z"
		/>
	<path fill="#2B3B4E" d="M252.9,409c-0.9,0.9-2.1,1.5-3.4,1.5l-19.1,0.2c1.1-0.6,2.1-1.5,2.7-2.7C236,402.5,246.2,396,252.9,409z"/>
</g>
<path fill="#F1543F" d="M222.1,377.1c-1.2-1.8-11.5-3.2-24.1-3.2c-12.6,0-22.9,1.4-24.1,3.2H222.1z"/>
<path fill="#FFFFFF" d="M196.7,389.7h27.2c1.2,0,2-1.4,1.3-2.5l-4.6-7.5c-0.3-0.5-0.8-0.8-1.3-0.8h-22.6c-0.9,0-1.6,0.8-1.6,1.6v7.5
	C195.1,389.1,195.9,389.7,196.7,389.7z"/>
<path fill="#E6E9EE" d="M203.6,379h-6.9c-0.9,0-1.6,0.8-1.6,1.6v7.5c0,0.9,0.8,1.6,1.6,1.6h17.6L203.6,379z"/>
<path fill="#FFFFFF" d="M192.2,379h-15.6c-0.5,0-0.9,0.2-1.2,0.6l-5.9,7.5c-0.9,1-0.1,2.6,1.2,2.6h21.4c0.9,0,1.6-0.8,1.6-1.6v-7.5
	C193.8,379.7,193.1,379,192.2,379z"/>
<path fill="#E6E9EE" d="M179.3,379h-2.7c-0.5,0-0.9,0.2-1.2,0.6l-5.9,7.5c-0.9,1-0.1,2.6,1.2,2.6h13.9L179.3,379z"/>
<circle fill="#324A5E" cx="243.2" cy="411.6" r="8.5"/>
<circle fill="#E6E9EE" cx="243.2" cy="411.6" r="5.2"/>
<circle fill="#CED5E0" cx="243.2" cy="411.6" r="3.4"/>
<circle fill="#324A5E" cx="171.4" cy="411.6" r="8.5"/>
<circle fill="#E6E9EE" cx="171.4" cy="411.6" r="5.2"/>
<circle fill="#CED5E0" cx="171.4" cy="411.6" r="3.4"/>
<g>
	<path fill="#FFFFFF" d="M160.5,409.5c0,0,0.1-0.1,0.2-0.3c0.1-0.2,0.3-0.5,0.5-0.8c0.5-0.7,1-1.6,2.1-2.6c0.9-1,2.3-2.4,4.2-3.3
		c0.9-0.5,2-0.9,3.1-1c1.1-0.2,2.5-0.1,3.7,0.3s2.5,0.9,3.6,1.8c1.1,0.9,2.2,1.8,3.1,2.9c0.5,0.6,0.9,1.1,1.4,1.7
		c0.2,0.3,0.5,0.6,0.7,0.9c0.2,0.2,0.5,0.5,0.7,0.7c0.6,0.4,1.1,0.8,1.8,0.9s1.3,0.3,2.1,0.3c3.1,0,6.3,0,9.6-0.1c3.3,0,6.6,0,9.9,0
		c3.3,0,6.6,0,9.9,0c3.3,0,6.5,0,9.6,0.1c0.4,0,0.8,0,1.1,0c0.4,0,0.7-0.1,1-0.2c0.4-0.1,0.7-0.2,0.9-0.4c0.2-0.1,0.3-0.2,0.5-0.3
		c0.1-0.1,0.3-0.2,0.5-0.3c0.6-0.4,1-0.9,1.4-1.4c0.1-0.1,0.2-0.3,0.3-0.4l0.3-0.5c0.2-0.3,0.4-0.7,0.6-0.9c1.7-2.5,4.1-4.2,6.5-5
		c1.2-0.5,2.5-0.6,3.7-0.5s2.3,0.4,3.2,0.9c1.9,0.9,3.1,2.4,4,3.5c0.9,1.1,1.4,2.2,1.8,2.9c0.4,0.7,0.6,1,0.6,1s-0.2-0.4-0.6-1
		c-0.4-0.7-1-1.6-1.9-2.7c-0.9-1.1-2.2-2.4-4-3.2s-4.2-0.9-6.4-0.1c-1.1,0.5-2.2,1-3.2,1.9s-2,1.8-2.7,2.9c-0.2,0.3-0.4,0.6-0.6,0.9
		l-0.2,0.6c-0.1,0.2-0.2,0.4-0.3,0.5c-0.5,0.7-1,1.2-1.7,1.7c-0.2,0.1-0.4,0.2-0.6,0.4c-0.2,0.1-0.4,0.2-0.6,0.3
		c-0.4,0.2-0.8,0.3-1.1,0.5c-0.4,0.1-0.9,0.2-1.2,0.2c-0.4,0-0.9,0-1.2,0c-3.1,0-6.3,0-9.6,0.1c-3.3,0-6.6,0-9.9,0
		c-3.3,0-6.6,0-9.9,0s-6.5,0-9.6-0.1c-0.4,0-0.9,0-1.2-0.1c-0.4-0.1-0.9-0.2-1.2-0.3c-0.8-0.3-1.5-0.7-2.2-1.1
		c-0.3-0.3-0.6-0.6-0.9-0.9c-0.2-0.3-0.5-0.6-0.7-0.9c-0.4-0.6-0.9-1.1-1.3-1.7c-0.9-1-1.9-2-2.9-2.8c-1-0.9-2.2-1.4-3.3-1.8
		c-2.3-0.8-4.6-0.4-6.4,0.5c-1.8,0.9-3.1,2-4.2,3s-1.7,1.9-2.2,2.6c-0.2,0.3-0.4,0.6-0.5,0.8C160.6,409.4,160.5,409.5,160.5,409.5z"
		/>
	<path fill="#FFFFFF" d="M201.3,393.6H197c-0.8,0-1.3-0.6-1.3-1.3l0,0h7.1l0,0C202.7,393,202.1,393.6,201.3,393.6z"/>
</g>
</svg>
