<?xml version="1.0" encoding="utf-8"?>
<!-- Generator: Adobe Illustrator 18.0.0, SVG Export Plug-In . SVG Version: 6.00 Build 0)  -->
<!DOCTYPE svg PUBLIC "-//W3C//DTD SVG 1.1//EN" "http://www.w3.org/Graphics/SVG/1.1/DTD/svg11.dtd">
<svg version="1.1" id="Layer_1" xmlns="http://www.w3.org/2000/svg" xmlns:xlink="http://www.w3.org/1999/xlink" x="0px" y="0px"
	 viewBox="147 337 120 120" enable-background="new 147 337 120 120" xml:space="preserve">
<circle fill="#00AFF0" cx="207" cy="397" r="60"/>
<path fill="#324A5E" d="M207,442.5c-25.1,0-45.5-20.4-45.5-45.5s20.4-45.5,45.5-45.5s45.5,20.4,45.5,45.5S232.1,442.5,207,442.5z"/>
<path fill="#E6E9EE" d="M243.1,399.1c0-0.7,0.1-1.4,0.1-2.1c0-19.9-16.2-36.2-36.2-36.2c-19.9,0-36.2,16.2-36.2,36.2
	c0,0.7,0,1.4,0.1,2.1H243.1z"/>
<path fill="#FF7058" d="M195.4,376.3c-0.2-0.3-0.5-0.4-0.8-0.2c-0.3,0.1-0.5,0.5-0.3,0.8l9.9,23.9c0.1,0.1,0.1,0.3,0.2,0.4
	c0.8,1.2,2.4,1.6,3.6,0.9s1.6-2.4,0.9-3.6L195.4,376.3z"/>
<circle fill="#FFD05B" cx="207" cy="399.1" r="6.5"/>
<g>
	<path fill="#ACB3BA" d="M207,369.1L207,369.1c-0.7,0-1.2-0.6-1.2-1.2v-2.6c0-0.7,0.6-1.2,1.2-1.2l0,0c0.7,0,1.2,0.6,1.2,1.2v2.6
		C208.2,368.6,207.7,369.1,207,369.1z"/>
	<path fill="#ACB3BA" d="M226.7,377.3L226.7,377.3c-0.5-0.5-0.5-1.2,0-1.7l1.8-1.8c0.5-0.5,1.2-0.5,1.7,0l0,0c0.5,0.5,0.5,1.2,0,1.7
		l-1.8,1.8C227.9,377.7,227.1,377.7,226.7,377.3z"/>
	<path fill="#ACB3BA" d="M183.9,373.9L183.9,373.9c0.5-0.5,1.2-0.5,1.7,0l1.8,1.8c0.5,0.5,0.5,1.2,0,1.7l0,0c-0.5,0.5-1.2,0.5-1.7,0
		l-1.8-1.8C183.4,375.1,183.4,374.3,183.9,373.9z"/>
	<path fill="#ACB3BA" d="M196.3,371.2L196.3,371.2c-0.6,0.3-1.3,0-1.5-0.7l-0.9-2.4c-0.3-0.6,0-1.3,0.7-1.5l0,0
		c0.6-0.3,1.3,0,1.5,0.7l0.9,2.4C197.3,370.3,197,371,196.3,371.2z"/>
	<path fill="#ACB3BA" d="M232.8,386.3L232.8,386.3c-0.3-0.6,0-1.3,0.7-1.5l2.4-0.9c0.6-0.3,1.3,0,1.5,0.7l0,0c0.3,0.6,0,1.3-0.7,1.5
		l-2.4,0.9C233.7,387.3,233,387,232.8,386.3z"/>
	<path fill="#ACB3BA" d="M217.7,371.2L217.7,371.2c-0.6-0.3-0.9-0.9-0.7-1.5l0.9-2.4c0.3-0.6,0.9-0.9,1.5-0.7l0,0
		c0.6,0.3,0.9,0.9,0.7,1.5l-0.9,2.4C219,371.2,218.2,371.5,217.7,371.2z"/>
	<path fill="#ACB3BA" d="M176.7,384.4L176.7,384.4c0.3-0.6,0.9-0.9,1.5-0.7l2.4,0.9c0.6,0.3,0.9,0.9,0.7,1.5l0,0
		c-0.3,0.6-0.9,0.9-1.5,0.7l-2.4-0.9C176.8,385.8,176.5,385.1,176.7,384.4z"/>
</g>
<g>
	<circle fill="#2B3B4E" cx="207" cy="356.5" r="2.4"/>
	<circle fill="#2B3B4E" cx="207" cy="437.5" r="2.4"/>
	<circle fill="#2B3B4E" cx="247.5" cy="397" r="2.4"/>
	<circle fill="#2B3B4E" cx="166.5" cy="397" r="2.4"/>
</g>
</svg>
