<?xml version="1.0" encoding="utf-8"?>
<!-- Generator: Adobe Illustrator 18.0.0, SVG Export Plug-In . SVG Version: 6.00 Build 0)  -->
<!DOCTYPE svg PUBLIC "-//W3C//DTD SVG 1.1//EN" "http://www.w3.org/Graphics/SVG/1.1/DTD/svg11.dtd">
<svg version="1.1" id="Delivery" xmlns="http://www.w3.org/2000/svg" xmlns:xlink="http://www.w3.org/1999/xlink" x="0px" y="0px"
	 viewBox="0 0 229.1 92.4" enable-background="new 0 0 229.1 92.4" xml:space="preserve">
<g id="XMLID_147_">
	<g id="XMLID_260_">
		<path id="XMLID_150_" fill="#EDF6FC" d="M208.3,11.4L208.3,11.4c0,6.3-5.1,11.4-11.4,11.4h-23.4c-5.3,0-9.6,4.3-9.6,9.6l0,0
			c0,5.3,4.2,9.5,9.5,9.6l44.6,0.3c6.2,0,11.1,5,11.1,11.2v0c0,6.2-5,11.2-11.2,11.2h-17.4c-10.6,0-19.2,8.6-19.2,19.2v7.8
			L53.1,91.1l0,0c0-10-8.1-18.1-18.1-18.1H12.3C5.5,73.1,0,67.6,0,60.8l0,0C0,54,5.5,48.5,12.3,48.5h38.1c6.3,0,11.3-5.1,11.3-11.3
			l0,0c0-6.3-5.1-11.3-11.3-11.3h-18c-7.1,0-12.9-5.8-12.9-12.9l0,0C19.5,5.8,25.3,0,32.4,0h164.5C203.2,0,208.3,5.1,208.3,11.4z"/>
	</g>
	<g id="XMLID_484_">
		<g id="XMLID_478_">
			<path fill="#FFFFFF" d="M98.8,91.6V41.1c0-1.5-1.2-2.8-2.8-2.8H55.2c-1.5,0-2.8,1.2-2.8,2.8v50.6L98.8,91.6z"/>
		</g>
		<g id="XMLID_477_">
			<path fill="#D2E9F7" d="M52.5,45.5v-4.8c0-1.3,1-2.3,2.3-2.3h41.7c1.3,0,2.3,1,2.3,2.3v4.8H52.5z"/>
		</g>
		<g id="XMLID_474_">
			<rect id="XMLID_773_" x="52.5" y="44.8" fill="#0686D8" width="45.8" height="1.5"/>
		</g>
		<g id="XMLID_473_">
			<rect id="XMLID_772_" x="57.8" y="41.5" fill="#0686D8" width="1.2" height="1.5"/>
		</g>
		<g id="XMLID_228_">
			<rect id="XMLID_771_" x="61.4" y="41.5" fill="#0686D8" width="1.2" height="1.5"/>
		</g>
		<g id="XMLID_226_">
			<rect id="XMLID_770_" x="65" y="41.5" fill="#0686D8" width="1.2" height="1.5"/>
		</g>
		<g id="XMLID_210_">
			<rect x="58.7" y="50.9" fill="#9ECFEF" width="33.9" height="13.4"/>
		</g>
		<g id="XMLID_209_">
			<rect id="XMLID_1174_" x="58.7" y="72.8" fill="#9ECFEF" width="10.3" height="13.4"/>
		</g>
		<g id="XMLID_723_">
			<rect x="70.6" y="72.8" fill="#D2E9F7" width="10.3" height="13.4"/>
		</g>
		<g id="XMLID_207_">
			<rect id="XMLID_1173_" x="82.6" y="72.8" fill="#5FB0E5" width="10.3" height="13.4"/>
		</g>
		<g id="XMLID_206_">
			<rect id="XMLID_769_" x="68.4" y="67.8" fill="#0686D8" width="14.4" height="1.5"/>
		</g>
		<g id="XMLID_483_">
			<path id="XMLID_768_" fill="#0686D8" d="M99.5,58.4H98V41.1c0-1.1-0.9-2-2-2H55.2c-1.1,0-2,0.9-2,2v15.8h-1.5V41.1
				c0-1.9,1.6-3.5,3.5-3.5H96c1.9,0,3.5,1.6,3.5,3.5V58.4z"/>
		</g>
	</g>
	<g id="XMLID_263_">
		<g id="XMLID_265_">
			<path id="XMLID_767_" fill="#0686D8" d="M128,4.2h-4.4c-0.4,0-0.8-0.3-0.8-0.7c0-0.4,0.3-0.8,0.8-0.8h4.4c0.4,0,0.7,0.3,0.7,0.8
				C128.7,3.8,128.4,4.2,128,4.2z"/>
		</g>
		<g id="XMLID_264_">
			<path id="XMLID_766_" fill="#0686D8" d="M125.8,6.4c-0.4,0-0.8-0.3-0.8-0.8V1.2c0-0.4,0.3-0.8,0.8-0.8s0.8,0.3,0.8,0.8v4.4
				C126.5,6,126.2,6.4,125.8,6.4z"/>
		</g>
	</g>
	<g id="XMLID_504_">
		<g id="XMLID_506_">
			<path id="XMLID_765_" fill="#0686D8" d="M19.7,57.3h-4.4c-0.4,0-0.8-0.3-0.8-0.8c0-0.4,0.3-0.8,0.8-0.8h4.4
				c0.4,0,0.8,0.3,0.8,0.8C20.4,57,20.1,57.3,19.7,57.3z"/>
		</g>
		<g id="XMLID_505_">
			<path id="XMLID_764_" fill="#0686D8" d="M17.5,59.5c-0.4,0-0.8-0.3-0.8-0.8v-4.4c0-0.4,0.3-0.8,0.8-0.8c0.4,0,0.8,0.3,0.8,0.8
				v4.4C18.2,59.2,17.9,59.5,17.5,59.5z"/>
		</g>
	</g>
	<g id="XMLID_360_">
		<g id="XMLID_365_">
			<path id="XMLID_763_" fill="#0686D8" d="M35.3,35.5c-0.2,0-0.4-0.1-0.5-0.2c-0.3-0.3-0.3-0.8,0-1.1l3.1-3.1
				c0.3-0.3,0.8-0.3,1.1,0s0.3,0.8,0,1.1l-3.1,3.1C35.7,35.4,35.5,35.5,35.3,35.5z"/>
		</g>
		<g id="XMLID_364_">
			<path id="XMLID_762_" fill="#0686D8" d="M38.4,35.5c-0.2,0-0.4-0.1-0.5-0.2l-3.1-3.1c-0.3-0.3-0.3-0.8,0-1.1
				c0.3-0.3,0.8-0.3,1.1,0l3.1,3.1c0.3,0.3,0.3,0.8,0,1.1C38.8,35.4,38.6,35.5,38.4,35.5z"/>
		</g>
	</g>
	<g id="XMLID_501_">
		<g id="XMLID_503_">
			<path id="XMLID_761_" fill="#0686D8" d="M172.9,35c-0.2,0-0.4-0.1-0.5-0.2c-0.3-0.3-0.3-0.8,0-1.1l3.1-3.1c0.3-0.3,0.8-0.3,1.1,0
				c0.3,0.3,0.3,0.8,0,1.1l-3.1,3.1C173.3,34.9,173.1,35,172.9,35z"/>
		</g>
		<g id="XMLID_502_">
			<path id="XMLID_760_" fill="#0686D8" d="M176,35c-0.2,0-0.4-0.1-0.5-0.2l-3.1-3.1c-0.3-0.3-0.3-0.8,0-1.1c0.3-0.3,0.8-0.3,1.1,0
				l3.1,3.1c0.3,0.3,0.3,0.8,0,1.1C176.4,34.9,176.2,35,176,35z"/>
		</g>
	</g>
	<g id="XMLID_322_">
		<rect id="XMLID_759_" x="46.8" y="32.5" fill="#0686D8" width="30.1" height="1.5"/>
	</g>
	<g id="XMLID_499_">
		<rect id="XMLID_758_" x="176.6" y="55" fill="#0686D8" width="30.1" height="1.5"/>
	</g>
	<g id="XMLID_441_">
		<rect id="XMLID_757_" x="42.2" y="32.5" fill="#0686D8" width="3.1" height="1.5"/>
	</g>
	<g id="XMLID_320_">
		<rect id="XMLID_756_" x="62.9" y="2.7" fill="#0686D8" width="55.7" height="1.5"/>
	</g>
	<g id="XMLID_239_">
		<circle id="XMLID_151_" fill="#0686D8" cx="166.6" cy="56.1" r="1.3"/>
	</g>
	<g id="XMLID_496_">
		<circle id="XMLID_153_" fill="#0686D8" cx="85.6" cy="29.6" r="1.3"/>
	</g>
	<g id="XMLID_498_">
		<circle id="XMLID_154_" fill="#0686D8" cx="33.8" cy="55.3" r="1.3"/>
	</g>
	<g id="XMLID_494_">
		<circle id="XMLID_155_" fill="#0686D8" cx="188.5" cy="33.6" r="0.9"/>
	</g>
	<g id="XMLID_495_">
		<circle id="XMLID_157_" fill="#0686D8" cx="132.3" cy="11.2" r="0.9"/>
	</g>
	<g id="XMLID_497_">
		<circle id="XMLID_158_" fill="#0686D8" cx="49" cy="11.2" r="0.9"/>
	</g>
	<g id="XMLID_618_">
		<g id="XMLID_529_">
			<path id="XMLID_160_" fill="#FFFFFF" d="M151.7,91.6H81.2c0-19.5,15.8-35.2,35.2-35.2C135.9,56.4,151.7,72.2,151.7,91.6z"/>
		</g>
		<g id="XMLID_647_">
			<path id="XMLID_749_" fill="#0686D8" d="M143.4,70c-0.6-0.7-1.2-1.5-1.9-2.2c-1-1.1-2.1-2.1-3.3-3l0.9-1.2c1.2,1,2.4,2,3.4,3.2
				c0.7,0.7,1.3,1.5,2,2.2L143.4,70z"/>
		</g>
		<g id="XMLID_626_">
			<path id="XMLID_748_" fill="#0686D8" d="M81.9,91.6h-1.5c0-19.9,16.2-36.1,36.1-36.1c7.2,0,14.2,2.1,20.2,6.2l-0.8,1.2
				c-5.7-3.9-12.4-5.9-19.3-5.9C97.4,57.1,81.9,72.6,81.9,91.6z"/>
		</g>
		<g id="XMLID_159_">
			<path id="XMLID_744_" fill="#0686D8" d="M138.1,91.6h-1.5v-4.2c-0.6-10.6-3.6-20.7-8.4-28.5l1.3-0.8c5,8,8,18.4,8.6,29.2
				L138.1,91.6z"/>
		</g>
		<g id="XMLID_161_">
			<path id="XMLID_743_" fill="#0686D8" d="M97.2,91.6h-1.5v-4.1c0.6-10.9,3.7-21.3,8.6-29.3l1.3,0.8c-4.8,7.8-7.8,18-8.4,28.6
				L97.2,91.6z"/>
		</g>
		<g id="XMLID_623_">
			<rect id="XMLID_163_" x="115.7" y="56.3" fill="#0686D8" width="1.5" height="35.3"/>
		</g>
		<g id="XMLID_621_">
			<rect id="XMLID_164_" x="85.6" y="74.1" fill="#0686D8" width="62" height="1.5"/>
		</g>
	</g>
	<g id="XMLID_148_">
		<g id="XMLID_162_">
			<path id="XMLID_166_" fill="#5FB0E5" d="M116.5,13.2c-8.9,0-16.1,7.2-16.1,16.1c0,8.9,16.1,27,16.1,27s16.1-18.1,16.1-27
				C132.5,20.4,125.3,13.2,116.5,13.2z M116.5,37.1c-5.2,0-9.3-4.2-9.3-9.3c0-5.2,4.2-9.3,9.3-9.3c5.2,0,9.3,4.2,9.3,9.3
				C125.8,32.9,121.6,37.1,116.5,37.1z"/>
		</g>
		<g id="XMLID_169_">
			<path id="XMLID_750_" fill="#0686D8" d="M116.5,57.5l-0.6-0.6c-0.7-0.7-16.3-18.5-16.3-27.5c0-3.2,0.9-6.2,2.5-8.9l1.3,0.8
				c-1.5,2.4-2.3,5.2-2.3,8.1c0,7.6,12.5,22.6,15.3,25.9c2.8-3.3,15.3-18.3,15.3-25.9c0-8.5-6.9-15.3-15.3-15.3
				c-1.9,0-3.8,0.3-5.5,1l-0.5-1.4c1.9-0.7,4-1.1,6.1-1.1c9.3,0,16.8,7.5,16.8,16.8c0,9.1-15.6,26.8-16.3,27.5L116.5,57.5z
				 M116.5,37.8c-5.6,0-10.1-4.5-10.1-10.1c0-5.6,4.5-10.1,10.1-10.1c5.6,0,10.1,4.5,10.1,10.1C126.5,33.3,122,37.8,116.5,37.8z
				 M116.5,19.2c-4.7,0-8.6,3.8-8.6,8.6c0,4.7,3.8,8.6,8.6,8.6s8.6-3.8,8.6-8.6C125,23,121.2,19.2,116.5,19.2z M105.6,18.5l-1.1-1.1
				c0.3-0.3,1.2-1,2.3-1.8c0.4-0.3,0.7-0.5,0.9-0.7l0.9,1.2c-0.2,0.1-0.5,0.4-0.9,0.7C107.1,17.3,105.9,18.2,105.6,18.5z"/>
		</g>
	</g>
	<g id="XMLID_170_">
		<g id="XMLID_198_">
			<path id="XMLID_172_" fill="#D2E9F7" d="M152.6,32h-0.1c-0.5-1.7-2.1-3-4-3c-0.8,0-1.6,0.2-2.2,0.7c-0.4-2.7-2.7-4.8-5.6-4.8
				c-2.5,0-4.7,1.7-5.4,4c-0.3-0.1-0.7-0.1-1-0.1c-1.9,0-3.5,1.4-3.8,3.3H130c-1.6,0-2.9,1.3-2.9,2.9v0.2c0,1.6,1.3,2.9,2.9,2.9
				h22.7c1.6,0,2.9-1.3,2.9-2.9v-0.2C155.5,33.3,154.2,32,152.6,32z"/>
		</g>
		<g id="XMLID_192_">
			<path id="XMLID_738_" fill="#D2E9F7" d="M134,38H130c-1.6,0-2.9-1.3-2.9-2.9v-0.2c0-1.6,1.3-2.9,2.9-2.9h0.6
				c0.3-1.8,1.9-3.3,3.8-3.3c0.3,0,0.7,0.1,1,0.1c0.7-2.3,2.9-4,5.4-4c2.8,0,5.1,2.1,5.6,4.8c0.6-0.4,1.4-0.7,2.2-0.7
				c1.9,0,3.5,1.3,4,3h0.1c1.6,0,2.9,1.3,2.9,2.9v0.2c0,1.6-1.3,2.9-2.9,2.9h-4.4H134z"/>
			<path id="XMLID_740_" fill="#0686D8" d="M152.6,38.7H130c-2,0-3.6-1.6-3.6-3.6v-0.2c0-2,1.6-3.6,3.6-3.6h0
				c0.6-2.1,2.7-3.5,4.9-3.2c1-2.3,3.3-3.9,5.9-3.9c2.8,0,5.2,1.8,6.1,4.4c0.5-0.2,1.1-0.3,1.7-0.3c2,0,3.7,1.2,4.5,3
				c1.8,0.2,3.2,1.8,3.2,3.6v0.2C156.3,37.1,154.7,38.7,152.6,38.7z M130,32.7c-1.2,0-2.1,1-2.1,2.1v0.2c0,1.2,1,2.1,2.1,2.1h22.7
				c1.2,0,2.1-1,2.1-2.1v-0.2c0-1.2-1-2.1-2.1-2.1H152l-0.2-0.5c-0.4-1.4-1.7-2.4-3.2-2.4c-0.6,0-1.3,0.2-1.8,0.5l-1,0.6l-0.2-1.1
				c-0.4-2.4-2.4-4.1-4.8-4.1c-2.2,0-4,1.4-4.7,3.4l-0.2,0.7l-0.7-0.2c-1.9-0.5-3.6,0.7-3.9,2.5l-0.1,0.6H130z"/>
		</g>
	</g>
	<g id="XMLID_179_">
		<g id="XMLID_181_">
			<path id="XMLID_174_" fill="#D2E9F7" d="M98.8,16.6L98.8,16.6c-0.4-1.2-1.6-2.1-2.9-2.1c-0.6,0-1.1,0.2-1.6,0.5
				c-0.3-1.9-2-3.4-4-3.4c-1.8,0-3.3,1.2-3.8,2.8c-0.2-0.1-0.5-0.1-0.7-0.1c-1.4,0-2.5,1-2.7,2.3h-0.5c-1.1,0-2.1,0.9-2.1,2.1v0.2
				c0,1.1,0.9,2.1,2.1,2.1h16.2c1.1,0,2.1-0.9,2.1-2.1v-0.2C100.9,17.5,99.9,16.6,98.8,16.6z"/>
		</g>
		<g id="XMLID_180_">
			<path id="XMLID_731_" fill="#D2E9F7" d="M85.5,20.9h-2.9c-1.1,0-2.1-0.9-2.1-2.1v-0.2c0-1.1,0.9-2.1,2.1-2.1H83
				c0.2-1.3,1.3-2.3,2.7-2.3c0.2,0,0.5,0,0.7,0.1c0.5-1.6,2-2.8,3.8-2.8c2,0,3.7,1.5,4,3.4c0.5-0.3,1-0.5,1.6-0.5
				c1.3,0,2.5,0.9,2.8,2.1h0.1c1.1,0,2.1,0.9,2.1,2.1v0.2c0,1.1-0.9,2.1-2.1,2.1h-3.1H85.5z"/>
			<path id="XMLID_732_" fill="#0686D8" d="M98.8,21.6H82.6c-1.6,0-2.8-1.3-2.8-2.8v-0.2c0-1.5,1.2-2.7,2.7-2.8
				c0.5-1.5,2-2.4,3.5-2.3c0.8-1.7,2.4-2.7,4.3-2.7c2,0,3.8,1.3,4.5,3.1c0.3-0.1,0.7-0.2,1.1-0.2c1.5,0,2.8,0.9,3.4,2.2
				c1.4,0.2,2.4,1.4,2.4,2.8v0.2C101.6,20.4,100.3,21.6,98.8,21.6z M82.6,17.3c-0.7,0-1.3,0.6-1.3,1.3v0.2c0,0.7,0.6,1.3,1.3,1.3
				h16.2c0.7,0,1.3-0.6,1.3-1.3v-0.2c0-0.7-0.6-1.3-1.3-1.3h-0.6L98,16.8c-0.3-0.9-1.1-1.6-2.1-1.6c-0.4,0-0.8,0.1-1.2,0.3l-1,0.6
				l-0.2-1.1c-0.2-1.6-1.6-2.8-3.2-2.8c-1.4,0-2.7,0.9-3.1,2.3L87,15.3l-0.7-0.2c-1.2-0.3-2.3,0.5-2.5,1.6l-0.1,0.6H82.6z"/>
		</g>
	</g>
	<g id="XMLID_176_">
		<g id="XMLID_178_">
			<path id="XMLID_175_" fill="#D2E9F7" d="M182.8,45.1L182.8,45.1c-0.3-0.8-1-1.3-1.8-1.3c-0.4,0-0.7,0.1-1,0.3
				c-0.2-1.2-1.2-2.2-2.5-2.2c-1.1,0-2.1,0.8-2.4,1.8c-0.1,0-0.3-0.1-0.5-0.1c-0.9,0-1.6,0.6-1.7,1.5h-0.3c-0.7,0-1.3,0.6-1.3,1.3
				v0.1c0,0.7,0.6,1.3,1.3,1.3h10.3c0.7,0,1.3-0.6,1.3-1.3v-0.1C184.1,45.7,183.5,45.1,182.8,45.1z"/>
		</g>
		<g id="XMLID_177_">
			<path id="XMLID_567_" fill="#D2E9F7" d="M174.3,47.8h-1.8c-0.7,0-1.3-0.6-1.3-1.3v-0.1c0-0.7,0.6-1.3,1.3-1.3h0.3
				c0.1-0.8,0.9-1.5,1.7-1.5c0.2,0,0.3,0,0.5,0.1c0.3-1,1.3-1.8,2.4-1.8c1.3,0,2.3,0.9,2.5,2.2c0.3-0.2,0.6-0.3,1-0.3
				c0.9,0,1.6,0.6,1.8,1.3h0.1c0.7,0,1.3,0.6,1.3,1.3v0.1c0,0.7-0.6,1.3-1.3,1.3h-2H174.3z"/>
			<path id="XMLID_728_" fill="#0686D8" d="M182.8,48.5h-10.3c-1.1,0-2.1-0.9-2.1-2.1c0-1.1,0.8-2,1.8-2.1c0.4-0.9,1.3-1.5,2.3-1.5
				c0.6-1.1,1.7-1.7,2.9-1.7c1.3,0,2.5,0.8,3,1.9c1.1-0.2,2.3,0.4,2.9,1.4c0.9,0.2,1.6,1,1.6,2C184.8,47.6,183.9,48.5,182.8,48.5z
				 M172.4,45.8c-0.3,0-0.6,0.3-0.6,0.6c0,0.4,0.3,0.7,0.6,0.7h10.3c0.3,0,0.6-0.3,0.6-0.6c0-0.4-0.3-0.7-0.6-0.7h-0.6l-0.2-0.5
				c-0.2-0.7-1.1-1-1.7-0.6l-1,0.6l-0.2-1.1c-0.1-0.9-0.9-1.5-1.8-1.5c-0.8,0-1.5,0.5-1.7,1.3l-0.2,0.7l-0.7-0.2
				c-0.6-0.2-1.2,0.2-1.3,0.8l-0.1,0.6H172.4z"/>
		</g>
	</g>
	<g id="XMLID_171_">
		<g id="XMLID_196_">
			<path id="XMLID_182_" fill="#FFFFFF" d="M152.5,13.7H144l-4-7.8c-0.3-0.6,0.1-1.3,0.8-1.3h3c0.3,0,0.5,0.1,0.7,0.3L152.5,13.7z"
				/>
		</g>
		<g id="XMLID_195_">
			<path id="XMLID_183_" fill="#FFFFFF" d="M152.5,13.7H144l-4-7.8c-0.3-0.6,0.1-1.3,0.8-1.3h3c0.3,0,0.5,0.1,0.7,0.3L152.5,13.7z"
				/>
		</g>
		<g id="XMLID_194_">
			<path id="XMLID_190_" fill="#5FB0E5" d="M141.7,4.5h-0.9c-0.7,0-1.1,0.7-0.8,1.3l4,7.8h3.3l-5.5-8.8
				C141.7,4.8,141.7,4.7,141.7,4.5z"/>
		</g>
		<g id="XMLID_193_">
			<path id="XMLID_720_" fill="#0686D8" d="M154.2,14.4h-10.7l-4.2-8.3c-0.3-0.5-0.2-1.1,0.1-1.6c0.3-0.5,0.8-0.8,1.4-0.8h3
				c0.5,0,0.9,0.2,1.2,0.5L154.2,14.4z M144.4,12.9h6.4l-7-7.6c0,0-0.1,0-0.1,0h-3c-0.1,0-0.1,0-0.1,0.1c0,0,0,0.1,0,0.1L144.4,12.9
				z"/>
		</g>
		<g id="XMLID_173_">
			<g id="XMLID_199_">
				<path id="XMLID_201_" fill="#D2E9F7" d="M182.5,9.6L182.5,9.6c-0.5-1.5-1.9-2.6-3.5-2.6c-0.7,0-1.4,0.2-1.9,0.6
					c-0.4-2.4-2.4-4.2-4.8-4.2c-2.2,0-4.1,1.5-4.7,3.5c-0.3-0.1-0.6-0.1-0.9-0.1c-1.7,0-3.1,1.2-3.3,2.8h-0.5
					c-1.4,0-2.5,1.1-2.5,2.5v0.2c0,1.4,1.1,2.5,2.5,2.5h19.8c1.4,0,2.5-1.1,2.5-2.5v-0.2C185,10.7,183.8,9.6,182.5,9.6z"/>
			</g>
			<g id="XMLID_202_">
				<path id="XMLID_719_" fill="#0686D8" d="M182.5,15.6v-1.5c1,0,1.8-0.8,1.8-1.8v-0.2c0-1-0.8-1.8-1.8-1.8h-0.6l-0.3-0.5
					c-0.3-1.2-1.5-2-2.7-2c-0.5,0-1.1,0.2-1.5,0.5l-1,0.6l-0.2-1.1c-0.3-2-2-3.5-4.1-3.5c-1.8,0-3.4,1.2-4,2.9l-0.2,0.7l-0.7-0.2
					c-1.6-0.4-3,0.6-3.3,2.1l-0.1,0.6h-1.2c-0.6,0-1.2,0.3-1.5,0.9l-1.3-0.8c0.6-1,1.6-1.6,2.8-1.6c0.6-1.8,2.3-3,4.3-2.8
					c0.9-2,2.9-3.4,5.2-3.4c2.5,0,4.6,1.6,5.4,3.8c0.5-0.2,0.9-0.2,1.4-0.2c1.7,0,3.3,1.1,4,2.6c1.6,0.2,2.8,1.6,2.8,3.2v0.2
					C185.7,14.1,184.3,15.6,182.5,15.6z"/>
			</g>
			<g id="XMLID_480_">
				<path id="XMLID_718_" fill="#0686D8" d="M174.7,7.6c-0.6-1-1.7-1.5-2.8-1.5c-0.6,0-1.2,0.2-1.7,0.5l-0.8-1.3
					c0.7-0.4,1.6-0.7,2.5-0.7c1.6,0,3.2,0.8,4.1,2.2L174.7,7.6z"/>
			</g>
			<g id="XMLID_479_">
				<path id="XMLID_716_" fill="#0686D8" d="M169.1,8.5h-1.5c0-0.6-0.4-1-1-1V6C168,6,169.1,7.1,169.1,8.5z"/>
			</g>
		</g>
		<g id="XMLID_205_">
			<path id="XMLID_211_" fill="#FFFFFF" d="M182.4,16.7h-0.8c-0.7-2-2.6-3.4-4.9-3.4h-35c0,4.8,3.9,8.7,8.7,8.7h22h9.5h0.5
				c1.3,0,2.4-1.1,2.4-2.4v-0.5C184.8,17.8,183.7,16.7,182.4,16.7z"/>
		</g>
		<g id="XMLID_212_">
			<path id="XMLID_213_" fill="#9ECFEF" d="M182.4,20h-0.5h-9.5h-22c-4.1,0-7.6-2.9-8.5-6.7h-0.3c0,4.8,3.9,8.7,8.7,8.7h22h9.5h0.5
				c1.3,0,2.4-1.1,2.4-2.4v-0.5c0-0.3-0.1-0.5-0.1-0.8C184.3,19.3,183.4,20,182.4,20z"/>
		</g>
		<g id="XMLID_214_">
			<path id="XMLID_713_" fill="#0686D8" d="M182.4,22.8h-32c-5.2,0-9.5-4.3-9.5-9.5v-0.8h35.7c2.3,0,4.4,1.4,5.4,3.4h0.3
				c1.7,0,3.2,1.4,3.2,3.2v0.5C185.5,21.4,184.1,22.8,182.4,22.8z M142.5,14.1c0.4,4.1,3.8,7.2,8,7.2h32c0.9,0,1.7-0.7,1.7-1.7v-0.5
				c0-0.9-0.7-1.7-1.7-1.7H181l-0.2-0.5c-0.6-1.8-2.3-2.9-4.2-2.9H142.5z"/>
		</g>
		<g id="XMLID_215_">
			<path fill="#D2E9F7" d="M151.7,16.1h-10.1c-0.6,0-1.2-0.5-1.2-1.2v-0.4c0-0.6,0.5-1.2,1.2-1.2h10.1c0.6,0,1.2,0.5,1.2,1.2v0.4
				C152.9,15.6,152.3,16.1,151.7,16.1z"/>
		</g>
		<g id="XMLID_216_">
			<path fill="#D2E9F7" d="M171.4,23.1h-12.4c-0.6,0-1.2-0.5-1.2-1.2V21c0-0.6,0.5-1.2,1.2-1.2h12.4c0.6,0,1.2,0.5,1.2,1.2v0.9
				C172.6,22.6,172,23.1,171.4,23.1z"/>
		</g>
		<g id="XMLID_217_">
			<path id="XMLID_710_" fill="#0686D8" d="M151.7,16.8h-10.1c-1.1,0-1.9-0.9-1.9-1.9v-0.4c0-1.1,0.9-1.9,1.9-1.9h10.1
				c1.1,0,1.9,0.9,1.9,1.9v0.4C153.6,16,152.8,16.8,151.7,16.8z M141.6,14.1c-0.2,0-0.4,0.2-0.4,0.4v0.4c0,0.2,0.2,0.4,0.4,0.4h10.1
				c0.2,0,0.4-0.2,0.4-0.4v-0.4c0-0.2-0.2-0.4-0.4-0.4H141.6z"/>
		</g>
		<g id="XMLID_218_">
			<path id="XMLID_707_" fill="#0686D8" d="M171.4,23.8h-12.4c-1.1,0-1.9-0.9-1.9-1.9V21c0-1.1,0.9-1.9,1.9-1.9h12.4
				c1.1,0,1.9,0.9,1.9,1.9v0.9C173.3,23,172.4,23.8,171.4,23.8z M158.9,20.5c-0.2,0-0.4,0.2-0.4,0.4v0.9c0,0.2,0.2,0.4,0.4,0.4h12.4
				c0.2,0,0.4-0.2,0.4-0.4V21c0-0.2-0.2-0.4-0.4-0.4H158.9z"/>
		</g>
		<g id="XMLID_220_">
			<rect id="XMLID_706_" x="174.5" y="15.3" fill="#0686D8" width="4.4" height="1.5"/>
		</g>
		<g id="XMLID_221_">
			<rect id="XMLID_705_" x="169.4" y="15.3" fill="#0686D8" width="2.2" height="1.5"/>
		</g>
		<g id="XMLID_222_">
			<rect id="XMLID_703_" x="165.8" y="15.3" fill="#0686D8" width="2.2" height="1.5"/>
		</g>
		<g id="XMLID_223_">
			<rect id="XMLID_702_" x="162.3" y="15.3" fill="#0686D8" width="2.2" height="1.5"/>
		</g>
		<g id="XMLID_224_">
			<rect id="XMLID_701_" x="158.8" y="15.3" fill="#0686D8" width="2.2" height="1.5"/>
		</g>
		<g id="XMLID_225_">
			<rect id="XMLID_700_" x="155.2" y="15.3" fill="#0686D8" width="2.2" height="1.5"/>
		</g>
	</g>
	<g id="XMLID_229_">
		<g id="XMLID_231_">
			<g id="XMLID_836_">
				<path id="XMLID_233_" fill="#FFFFFF" d="M179.5,73.5c-0.2-0.5-0.7-0.8-1.2-0.8h-7.4v11.6c2.2,0,3.9,1.8,3.9,3.9h7v-7.8
					L179.5,73.5z"/>
			</g>
			<g id="XMLID_835_">
				<path id="XMLID_234_" fill="#5FB0E5" d="M173.6,79.6h6.4c0.2,0,0.6,0.1,0.9,0.1l1,0.3l-2.4-6.5c0,0-0.3-1.2-2.3-0.8h-4.6v6
					C172.7,79.2,173.1,79.6,173.6,79.6z"/>
			</g>
			<g id="XMLID_824_">
				<circle id="XMLID_235_" fill="#FFFFFF" cx="154.5" cy="88.9" r="2.8"/>
			</g>
			<g id="XMLID_823_">
				<path id="XMLID_697_" fill="#0686D8" d="M154.5,92.4c-1.9,0-3.5-1.6-3.5-3.5c0-1.9,1.6-3.5,3.5-3.5c1.9,0,3.5,1.6,3.5,3.5
					C158,90.8,156.4,92.4,154.5,92.4z M154.5,86.9c-1.1,0-2,0.9-2,2s0.9,2,2,2c1.1,0,2-0.9,2-2S155.6,86.9,154.5,86.9z"/>
			</g>
			<g id="XMLID_822_">
				<circle id="XMLID_236_" fill="#5FB0E5" cx="154.5" cy="88.9" r="1.1"/>
			</g>
			<g id="XMLID_820_">
				<circle id="XMLID_237_" fill="#FFFFFF" cx="170.4" cy="88.9" r="2.8"/>
			</g>
			<g id="XMLID_819_">
				<path id="XMLID_694_" fill="#0686D8" d="M170.4,92.4c-1.9,0-3.5-1.6-3.5-3.5c0-1.9,1.6-3.5,3.5-3.5c1.9,0,3.5,1.6,3.5,3.5
					C173.9,90.8,172.3,92.4,170.4,92.4z M170.4,86.9c-1.1,0-2,0.9-2,2s0.9,2,2,2c1.1,0,2-0.9,2-2S171.5,86.9,170.4,86.9z"/>
			</g>
			<g id="XMLID_818_">
				<circle id="XMLID_238_" fill="#5FB0E5" cx="170.4" cy="88.9" r="1.1"/>
			</g>
			<g id="XMLID_816_">
				<circle id="XMLID_240_" fill="#FFFFFF" cx="147.2" cy="88.9" r="2.8"/>
			</g>
			<g id="XMLID_232_">
				<path id="XMLID_691_" fill="#0686D8" d="M147.2,92.4c-1.9,0-3.5-1.6-3.5-3.5c0-1.9,1.6-3.5,3.5-3.5s3.5,1.6,3.5,3.5
					C150.7,90.8,149.1,92.4,147.2,92.4z M147.2,86.9c-1.1,0-2,0.9-2,2s0.9,2,2,2c1.1,0,2-0.9,2-2S148.3,86.9,147.2,86.9z"/>
			</g>
			<g id="XMLID_241_">
				<circle id="XMLID_257_" fill="#5FB0E5" cx="147.2" cy="88.9" r="1.1"/>
			</g>
			<g id="XMLID_815_">
				<rect id="XMLID_690_" x="158.8" y="85.9" fill="#0686D8" width="9.8" height="1.5"/>
			</g>
			<g id="XMLID_813_">
				<path id="XMLID_689_" fill="#0686D8" d="M159.6,88.5h-1.5v-0.7c0-1.4-1.2-2.6-2.6-2.6h-9.2c-1.4,0-2.6,1.2-2.6,2.6h-1.5
					c0-2.3,1.8-4.1,4.1-4.1h9.2c2.3,0,4.1,1.8,4.1,4.1V88.5z"/>
			</g>
			<g id="XMLID_267_">
				<path id="XMLID_268_" fill="#5FB0E5" d="M167.5,82.9H143c-0.6,0-1.1-0.5-1.1-1.1V66.3c0-0.6,0.5-1.1,1.1-1.1h24.5
					c0.6,0,1.1,0.5,1.1,1.1v15.5C168.6,82.4,168.1,82.9,167.5,82.9z"/>
			</g>
			<g id="XMLID_269_">
				<path id="XMLID_688_" fill="#0686D8" d="M167.5,83.6H143c-1,0-1.8-0.8-1.8-1.8v-8.7h1.5v8.7c0,0.2,0.1,0.3,0.3,0.3h24.5
					c0.2,0,0.3-0.1,0.3-0.3V66.3c0-0.2-0.1-0.3-0.3-0.3h-7v-1.5h7c1,0,1.8,0.8,1.8,1.8v15.5C169.3,82.8,168.5,83.6,167.5,83.6z"/>
			</g>
			<g id="XMLID_808_">
				<rect id="XMLID_271_" x="144.5" y="69.6" fill="#FFFFFF" width="21.5" height="8.1"/>
			</g>
			<g id="XMLID_807_">
				
					<rect id="XMLID_687_" x="170.8" y="69.2" transform="matrix(0.7638 0.6454 -0.6454 0.7638 86.4581 -96.363)" fill="#0686D8" width="8.1" height="1.5"/>
			</g>
			<g id="XMLID_806_">
				<rect id="XMLID_686_" x="173.1" y="69.2" fill="#0686D8" width="1.5" height="2.8"/>
			</g>
			<g id="XMLID_270_">
				<path id="XMLID_683_" fill="#0686D8" d="M182.6,89h-8.5v-0.8c0-1.8-1.4-3.2-3.2-3.2h-0.8V71.9h8.1c0.8,0,1.6,0.6,1.9,1.4
					l2.4,7.2V89z M175.5,87.5h5.5v-6.9l-2.3-6.8c-0.1-0.2-0.3-0.3-0.5-0.3h-6.6v10.2C173.7,84,175.2,85.5,175.5,87.5z"/>
			</g>
			<g id="XMLID_832_">
				<path id="XMLID_273_" fill="#9ECFEF" d="M182.6,88.2c0,0.2-0.1,0.3-0.3,0.3h-3.1c-0.2,0-0.3-0.1-0.3-0.3v-1.8
					c0-0.2,0.1-0.3,0.3-0.3h3.1c0.2,0,0.3,0.1,0.3,0.3V88.2z"/>
			</g>
			<g id="XMLID_272_">
				<path id="XMLID_680_" fill="#0686D8" d="M182.2,89.3h-3.1c-0.6,0-1.1-0.5-1.1-1.1v-1.8c0-0.6,0.5-1.1,1.1-1.1h3.1
					c0.6,0,1.1,0.5,1.1,1.1v1.8C183.3,88.8,182.8,89.3,182.2,89.3z M179.5,87.8h2.3v-0.9h-2.3V87.8z"/>
			</g>
			<g id="XMLID_274_">
				<rect id="XMLID_679_" x="157.3" y="71.3" fill="#0686D8" width="7.1" height="1.5"/>
			</g>
			<g id="XMLID_275_">
				<rect id="XMLID_678_" x="146.1" y="74.4" fill="#0686D8" width="18.4" height="1.5"/>
			</g>
		</g>
		<g id="XMLID_276_">
			<g id="XMLID_520_">
				<circle id="XMLID_278_" fill="#FFFFFF" cx="148.9" cy="62.9" r="10.2"/>
			</g>
			<g id="XMLID_277_">
				<path id="XMLID_677_" fill="#0686D8" d="M148.9,73.9c-6,0-10.9-4.9-10.9-10.9c0-6,4.9-10.9,10.9-10.9c1,0,2,0.1,3,0.4l-0.4,1.4
					c-0.8-0.2-1.7-0.4-2.6-0.4c-5.2,0-9.4,4.2-9.4,9.4c0,5.2,4.2,9.4,9.4,9.4c5.2,0,9.4-4.2,9.4-9.4c0-2.6-1-5-2.8-6.8l1-1.1
					c2.1,2.1,3.3,4.9,3.3,7.8C159.9,69,155,73.9,148.9,73.9z"/>
			</g>
			<g id="XMLID_279_">
				<path id="XMLID_676_" fill="#0686D8" d="M154.7,55.5c-0.7-0.5-1.4-0.9-2.2-1.3l0.6-1.4c0.9,0.4,1.7,0.9,2.5,1.5L154.7,55.5z"/>
			</g>
			<g id="XMLID_519_">
				<circle id="XMLID_282_" fill="#9ECFEF" cx="148.9" cy="62.9" r="5.3"/>
			</g>
			<g id="XMLID_518_">
				<path id="XMLID_673_" fill="#0686D8" d="M148.9,64.2c-0.7,0-1.3-0.6-1.3-1.2c0-0.7,0.6-1.3,1.3-1.3c0.7,0,1.3,0.6,1.3,1.3
					C150.2,63.6,149.6,64.2,148.9,64.2z M148.9,62.7c-0.1,0-0.3,0.1-0.3,0.3c0,0.3,0.5,0.3,0.5,0C149.2,62.8,149.1,62.7,148.9,62.7z
					"/>
			</g>
			<g id="XMLID_280_">
				<rect id="XMLID_672_" x="148.2" y="53.6" fill="#0686D8" width="1.5" height="1.8"/>
			</g>
			<g id="XMLID_285_">
				
					<rect id="XMLID_671_" x="152.4" y="54.8" transform="matrix(0.8654 0.501 -0.501 0.8654 48.4912 -69.2438)" fill="#0686D8" width="1.5" height="1.8"/>
			</g>
			<g id="XMLID_287_">
				
					<rect id="XMLID_670_" x="155.5" y="57.9" transform="matrix(0.4985 0.8669 -0.8669 0.4985 129.2749 -105.9793)" fill="#0686D8" width="1.5" height="1.8"/>
			</g>
			<g id="XMLID_288_">
				
					<rect id="XMLID_669_" x="156.5" y="62.2" transform="matrix(1 3.275893e-003 -3.275893e-003 1 0.2071 -0.5152)" fill="#0686D8" width="1.8" height="1.5"/>
			</g>
			<g id="XMLID_289_">
				
					<rect id="XMLID_668_" x="155.3" y="66.4" transform="matrix(0.8639 0.5037 -0.5037 0.8639 55.1037 -69.5341)" fill="#0686D8" width="1.8" height="1.5"/>
			</g>
			<g id="XMLID_292_">
				
					<rect id="XMLID_667_" x="152.2" y="69.5" transform="matrix(0.4947 0.8691 -0.8691 0.4947 138.4544 -97.5529)" fill="#0686D8" width="1.8" height="1.5"/>
			</g>
			<g id="XMLID_293_">
				
					<rect id="XMLID_666_" x="148.1" y="70.5" transform="matrix(1 9.066295e-003 -9.066295e-003 1 0.6534 -1.3469)" fill="#0686D8" width="1.5" height="1.8"/>
			</g>
			<g id="XMLID_296_">
				
					<rect id="XMLID_665_" x="143.9" y="69.3" transform="matrix(0.8607 0.5091 -0.5091 0.8607 55.9116 -63.8696)" fill="#0686D8" width="1.5" height="1.8"/>
			</g>
			<g id="XMLID_297_">
				
					<rect id="XMLID_664_" x="140.8" y="66.2" transform="matrix(0.4884 0.8726 -0.8726 0.4884 131.0031 -89.2292)" fill="#0686D8" width="1.5" height="1.8"/>
			</g>
			<g id="XMLID_298_">
				
					<rect id="XMLID_663_" x="139.6" y="62.1" transform="matrix(1 9.375471e-003 -9.375471e-003 1 0.5956 -1.3145)" fill="#0686D8" width="1.8" height="1.5"/>
			</g>
			<g id="XMLID_302_">
				
					<rect id="XMLID_662_" x="140.8" y="57.9" transform="matrix(0.8608 0.509 -0.509 0.8608 49.5811 -63.9431)" fill="#0686D8" width="1.8" height="1.5"/>
			</g>
			<g id="XMLID_305_">
				
					<rect id="XMLID_661_" x="143.9" y="54.9" transform="matrix(0.4902 0.8716 -0.8716 0.4902 122.2871 -97.8638)" fill="#0686D8" width="1.8" height="1.5"/>
			</g>
			<g id="XMLID_641_">
				<polygon id="XMLID_318_" fill="#0686D8" points="148.2,63 148.5,56.7 149.4,56.7 149.7,63 				"/>
			</g>
			<g id="XMLID_314_">
				<polygon id="XMLID_321_" fill="#0686D8" points="148.9,62.2 154.4,62.4 154.5,63.3 148.9,63.7 				"/>
			</g>
		</g>
	</g>
	<g id="XMLID_475_">
		<g id="XMLID_500_">
			<path id="XMLID_1172_" fill="#FFFFFF" d="M60.4,91.3H43.7c-1.1,0-2-0.9-2-2V60.4c0-1.1,0.9-2,2-2h16.7c1.1,0,2,0.9,2,2v28.9
				C62.3,90.4,61.5,91.3,60.4,91.3z"/>
		</g>
		<g id="XMLID_493_">
			<path id="XMLID_660_" fill="#0686D8" d="M63.1,70.6h-1.5V60.3c0-0.6-0.5-1.1-1.1-1.1h-17c-0.6,0-1.1,0.5-1.1,1.1v8.6h-1.5v-8.6
				c0-1.4,1.2-2.6,2.6-2.6h17c1.4,0,2.6,1.2,2.6,2.6V70.6z"/>
		</g>
		<g id="XMLID_492_">
			<path id="XMLID_659_" fill="#0686D8" d="M60.5,92.1h-17c-1.4,0-2.6-1.2-2.6-2.6V76.8h1.5v12.7c0,0.6,0.5,1.1,1.1,1.1h17
				c0.6,0,1.1-0.5,1.1-1.1v-8.6h1.5v8.6C63.1,90.9,61.9,92.1,60.5,92.1z"/>
		</g>
		<g id="XMLID_491_">
			<rect id="XMLID_658_" x="49" y="60.2" fill="#0686D8" width="6.1" height="1.5"/>
		</g>
		<g id="XMLID_490_">
			<path id="XMLID_655_" fill="#0686D8" d="M52,90.4c-1,0-1.7-0.8-1.7-1.7c0-1,0.8-1.7,1.7-1.7c1,0,1.7,0.8,1.7,1.7
				C53.8,89.6,53,90.4,52,90.4z M52,88.4c-0.1,0-0.2,0.1-0.2,0.2c0,0.3,0.5,0.3,0.5,0C52.3,88.5,52.2,88.4,52,88.4z"/>
		</g>
		<g id="XMLID_489_">
			<rect x="43.8" y="63.2" fill="#9ECFEF" width="16.5" height="23.3"/>
		</g>
		<g id="XMLID_476_">
			<g id="XMLID_488_">
				<rect id="XMLID_654_" x="59.5" y="83.5" fill="#0686D8" width="1" height="1.5"/>
			</g>
			<g id="XMLID_487_">
				<rect id="XMLID_653_" x="51.3" y="83.5" fill="#0686D8" width="3.4" height="1.5"/>
			</g>
			<g id="XMLID_486_">
				<polygon id="XMLID_652_" fill="#0686D8" points="46.5,85 45.2,85 40.8,71.4 36.3,71 36.4,69.5 42,69.9 46.3,83.5 46.5,83.5 				
					"/>
			</g>
			<g id="XMLID_791_">
				<rect id="XMLID_651_" x="42.3" y="72.5" fill="#0686D8" width="20.9" height="1.5"/>
			</g>
			<g id="XMLID_795_">
				<rect id="XMLID_650_" x="43.1" y="74.8" fill="#0686D8" width="19" height="1.5"/>
			</g>
			<g id="XMLID_796_">
				<rect id="XMLID_649_" x="43.6" y="77.2" fill="#0686D8" width="17.9" height="1.5"/>
			</g>
			<g id="XMLID_788_">
				<path id="XMLID_645_" fill="#0686D8" d="M48.9,86.7c-1.3,0-2.4-1.1-2.4-2.4c0-1.3,1.1-2.4,2.4-2.4c1.3,0,2.4,1.1,2.4,2.4
					C51.4,85.6,50.3,86.7,48.9,86.7z M48.9,83.3c-0.5,0-0.9,0.4-0.9,0.9c0,0.5,0.4,0.9,0.9,0.9c0.5,0,0.9-0.4,0.9-0.9
					C49.9,83.7,49.4,83.3,48.9,83.3z"/>
			</g>
			<g id="XMLID_784_">
				<path id="XMLID_642_" fill="#0686D8" d="M57,86.7c-1.3,0-2.4-1.1-2.4-2.4c0-1.3,1.1-2.4,2.4-2.4c1.3,0,2.4,1.1,2.4,2.4
					C59.4,85.6,58.3,86.7,57,86.7z M57,83.3c-0.5,0-0.9,0.4-0.9,0.9c0,0.5,0.4,0.9,0.9,0.9c0.5,0,0.9-0.4,0.9-0.9
					C57.9,83.7,57.5,83.3,57,83.3z"/>
			</g>
			<g id="XMLID_485_">
				<polygon id="XMLID_640_" fill="#0686D8" points="61.3,81.2 44.6,81.2 44.6,79.7 60.2,79.7 62.7,71.7 64.1,72.2 				"/>
			</g>
		</g>
	</g>
	<g id="XMLID_325_">
		<g id="XMLID_328_">
			<rect id="XMLID_639_" x="29.8" y="90.9" fill="#0686D8" width="163.8" height="1.5"/>
		</g>
		<g id="XMLID_334_">
			<rect id="XMLID_638_" x="25.2" y="90.9" fill="#0686D8" width="2.7" height="1.5"/>
		</g>
		<g id="XMLID_337_">
			<rect id="XMLID_637_" x="195.2" y="90.9" fill="#0686D8" width="6" height="1.5"/>
		</g>
	</g>
</g>
</svg>
