<?xml version="1.0" encoding="utf-8"?>
<!-- Generator: Adobe Illustrator 18.0.0, SVG Export Plug-In . SVG Version: 6.00 Build 0)  -->
<!DOCTYPE svg PUBLIC "-//W3C//DTD SVG 1.1//EN" "http://www.w3.org/Graphics/SVG/1.1/DTD/svg11.dtd">
<svg version="1.1" id="Mobile_Marketing" xmlns="http://www.w3.org/2000/svg" xmlns:xlink="http://www.w3.org/1999/xlink" x="0px"
	 y="0px" viewBox="0 0 215.8 104.1" enable-background="new 0 0 215.8 104.1" xml:space="preserve">
<g id="XMLID_471_">
	<g id="XMLID_137_">
		<path fill="#BFDFF5" d="M9.6,24.1L9.6,24.1c0,6.3,5.1,11.5,11.5,11.5h26.8l0,0c0,8.8,7.1,15.9,15.9,15.9h22.1c4.9,0,8.9,4,8.9,8.9
			l0,0c0,4.9-4,8.9-8.9,8.9H9.3c-5.1,0-9.3,4.2-9.3,9.3l0,0c0,5.1,4.2,9.3,9.3,9.3h49.9c7.9,0,14.4,6.4,14.3,14.4v0l97,0.2l-0.3-17
			h34.4c6.1,0,11.1-5,11.1-11.1l0,0c0-6.1-5-11.1-11.1-11.1h-26.7c-5.7,0-10.2-4.6-10.2-10.2l0,0c0-5.7,4.6-10.2,10.2-10.2h2.5
			c8.3,0,15-6.7,15-15l0,0c0-8.3-6.7-15-15-15H21.1C14.7,12.7,9.6,17.8,9.6,24.1z"/>
	</g>
	<g id="XMLID_290_">
		<g id="XMLID_291_">
			<g id="XMLID_319_">
				<path fill="#9ECFEF" d="M172.3,103.3V11.1c0-2-1.6-3.6-3.6-3.6h-52.6c-2,0-3.6,1.6-3.6,3.6v92.3L172.3,103.3z"/>
			</g>
			<g id="XMLID_317_">
				<path fill="#FFFFFF" d="M167.5,103.3V11.1c0-2-1.4-3.6-3-3.6h-44.6c-1.7,0-3,1.6-3,3.6v92.3L167.5,103.3z"/>
			</g>
			<g id="XMLID_316_">
				<path fill="#9ECFEF" d="M112.6,16.7v-6.2c0-1.7,1.3-3,3-3h53.8c1.7,0,3,1.3,3,3v6.2H112.6z"/>
			</g>
			<g id="XMLID_315_">
				<path id="XMLID_921_" fill="#0686D8" d="M113.3,28.4h-1.5V10.5c0-2.1,1.7-3.7,3.7-3.7h7.9v1.5h-7.9c-1.2,0-2.2,1-2.2,2.2V28.4z"
					/>
			</g>
			<g id="XMLID_313_">
				<path id="XMLID_920_" fill="#0686D8" d="M173.1,102.9h-1.5V10.5c0-1.2-1-2.2-2.2-2.2h-35.4V6.7h35.4c2.1,0,3.7,1.7,3.7,3.7
					V102.9z"/>
			</g>
			<g id="XMLID_312_">
				<rect id="XMLID_919_" x="126.4" y="6.7" fill="#0686D8" width="4.1" height="1.5"/>
			</g>
			<g id="XMLID_311_">
				<rect id="XMLID_918_" x="112.6" y="16.1" fill="#0686D8" width="59.8" height="1.5"/>
			</g>
			<g id="XMLID_310_">
				<rect id="XMLID_917_" x="119.5" y="11.9" fill="#0686D8" width="1.4" height="1.5"/>
			</g>
			<g id="XMLID_304_">
				<rect id="XMLID_916_" x="123.5" y="11.9" fill="#0686D8" width="1.4" height="1.5"/>
			</g>
			<g id="XMLID_303_">
				<rect id="XMLID_915_" x="127.5" y="11.9" fill="#0686D8" width="1.4" height="1.5"/>
			</g>
			<g id="XMLID_301_">
				<rect x="120.6" y="23.8" fill="#9ECFEF" width="43.7" height="17.3"/>
			</g>
			<g id="XMLID_300_">
				<rect x="120.6" y="52" fill="#9ECFEF" width="13.3" height="17.3"/>
			</g>
			<g id="XMLID_299_">
				<rect x="135.8" y="52" fill="#D2E9F7" width="13.3" height="17.3"/>
			</g>
			<g id="XMLID_295_">
				<rect x="151" y="52" fill="#5FB0E5" width="13.3" height="17.3"/>
			</g>
			<g id="XMLID_294_">
				<rect id="XMLID_914_" x="133.2" y="45.7" fill="#0686D8" width="18.6" height="1.5"/>
			</g>
		</g>
	</g>
	<g id="XMLID_95_">
		<g id="XMLID_101_">
			<g id="XMLID_133_">
				<g id="XMLID_284_">
					<path fill="#FFFFFF" d="M46.3,103.3H80c1.4,0,2.6-1.1,2.6-2.6v-27c0-1.4-1.1-2.6-2.6-2.6H46.3c-1.4,0-2.6,1.1-2.6,2.6v27
						C43.7,102.2,44.9,103.3,46.3,103.3z"/>
				</g>
				<g id="XMLID_283_">
					<polygon fill="#5FB0E5" points="43.7,92.9 57.2,84.7 66.5,90.2 74.5,81.8 82.6,91 82.6,95.7 43.7,95.7 					"/>
				</g>
				<g id="XMLID_281_">
					<rect id="XMLID_913_" x="43.7" y="95" fill="#0686D8" width="38.8" height="1.5"/>
				</g>
				<g id="XMLID_266_">
					<polygon id="XMLID_912_" fill="#0686D8" points="44.1,93.6 43.4,92.3 57.2,83.8 66.4,89.2 74.5,80.7 83.1,90.5 82,91.5 
						74.4,82.9 66.6,91.1 57.2,85.6 					"/>
				</g>
				<g id="XMLID_256_">
					<circle fill="#5FB0E5" cx="62.1" cy="77.5" r="1.6"/>
				</g>
				<g id="XMLID_250_">
					<path id="XMLID_909_" fill="#0686D8" d="M62.1,79.9c-1.3,0-2.3-1.1-2.3-2.3c0-1.3,1.1-2.3,2.3-2.3c1.3,0,2.3,1.1,2.3,2.3
						C64.4,78.8,63.4,79.9,62.1,79.9z M62.1,76.7c-0.5,0-0.8,0.4-0.8,0.8c0,0.5,0.4,0.8,0.8,0.8c0.5,0,0.8-0.4,0.8-0.8
						C62.9,77,62.6,76.7,62.1,76.7z"/>
				</g>
				<g id="XMLID_248_">
					<rect id="XMLID_908_" x="68.1" y="75.2" fill="#0686D8" width="8.9" height="1.5"/>
				</g>
				<g id="XMLID_139_">
					<rect id="XMLID_907_" x="71.6" y="77.7" fill="#0686D8" width="8.9" height="1.5"/>
				</g>
				<g id="XMLID_335_">
					<rect id="XMLID_906_" x="59.2" y="70.4" fill="#0686D8" width="13.4" height="1.5"/>
				</g>
				<g id="XMLID_331_">
					<path id="XMLID_905_" fill="#0686D8" d="M80,104.1H46.3c-1.8,0-3.3-1.5-3.3-3.3V85.2h1.5v15.5c0,1,0.8,1.8,1.8,1.8H80
						c1,0,1.8-0.8,1.8-1.8h1.5C83.3,102.6,81.8,104.1,80,104.1z"/>
				</g>
			</g>
			<g id="XMLID_116_">
				<path fill="#9ECFEF" d="M57.1,82l-1.4-7.4c0.8-1.8,1.2-3.7,1.2-5.8c0-7.8-6.3-14.1-14.1-14.1c-7.8,0-14.1,6.3-14.1,14.1
					c0,7.8,6.3,14.1,14.1,14.1c2.8,0,5.3-0.8,7.5-2.2L57.1,82z"/>
			</g>
			<g id="XMLID_115_">
				<path id="XMLID_904_" fill="#0686D8" d="M42.8,83.7C34.6,83.7,28,77,28,68.8c0-8.2,6.7-14.9,14.9-14.9c2.1,0,4.1,0.4,5.9,1.2
					l-0.6,1.4c-1.7-0.7-3.5-1.1-5.3-1.1c-7.4,0-13.4,6-13.4,13.4c0,7.4,6,13.4,13.4,13.4c2.5,0,5-0.7,7.1-2l0.2-0.2l6,1.1l-1.2-6.6
					l0.1-0.2c0.8-1.7,1.2-3.6,1.2-5.4c0-3.1-1.1-6-3-8.4l1.2-0.9c2.1,2.6,3.3,6,3.3,9.4c0,2-0.4,4-1.2,5.8L58,83l-7.6-1.4
					C48.2,83,45.5,83.7,42.8,83.7z"/>
			</g>
			<g id="XMLID_112_">
				<path id="XMLID_903_" fill="#0686D8" d="M52.3,59.4c-0.8-0.8-1.8-1.6-2.8-2.2l0.8-1.3c1.1,0.7,2.2,1.5,3.1,2.4L52.3,59.4z"/>
			</g>
			<g id="XMLID_109_">
				<ellipse fill="#FFFFFF" cx="42.9" cy="68.8" rx="10.9" ry="10.6"/>
			</g>
		</g>
		<g id="XMLID_99_">
			<g id="XMLID_286_">
				<path id="XMLID_102_" fill="#F1F2F2" d="M44.2,65.2h0.3c0.2-0.7,0.5-1.6,0.5-2.1c0-0.3,0-0.7,0-1c0,0.1,0,0.2,0,0.2
					C45,63.3,44.2,65.2,44.2,65.2z"/>
			</g>
			<g id="XMLID_747_">
				<path id="XMLID_902_" fill="#0686D8" d="M50.3,70.5h-1.6V69h1.6c0.1,0,0.2-0.1,0.2-0.2s-0.1-0.2-0.2-0.2h-1.6v-1.5h1.6
					c0.9,0,1.7,0.8,1.7,1.7S51.3,70.5,50.3,70.5z"/>
			</g>
			<g id="XMLID_746_">
				<path id="XMLID_901_" fill="#0686D8" d="M49.3,72.4h-2.3v-1.5h2.3c0.1,0,0.2-0.1,0.2-0.2c0-0.1-0.1-0.2-0.2-0.2h-2.3V69h2.3
					c0.9,0,1.7,0.8,1.7,1.7C51,71.7,50.3,72.4,49.3,72.4z"/>
			</g>
			<g id="XMLID_745_">
				<path id="XMLID_900_" fill="#0686D8" d="M48.4,74.3H43c-0.4,0-0.9-0.2-1.2-0.5l-0.9-1l-0.2,0v-1.5h0.2c0.4,0,0.8,0.2,1.1,0.5
					l0.9,1c0,0,0.1,0,0.1,0h5.4c0.1,0,0.2-0.1,0.2-0.2s-0.1-0.2-0.2-0.2h-0.9v-1.5h0.9c0.9,0,1.7,0.8,1.7,1.7
					C50,73.5,49.3,74.3,48.4,74.3z"/>
			</g>
			<g id="XMLID_138_">
				<path id="XMLID_899_" fill="#0686D8" d="M50,68.7h-2.9v-1.5H50c0.1,0,0.2-0.1,0.2-0.2c0-0.1-0.1-0.2-0.2-0.2h-7l0.4-1
					c0.3-0.7,0.7-2,0.7-2.6c0-0.1,0-0.2,0-0.3c0-0.1,0-0.1,0-0.2c-0.3,0.7-0.6,1.7-1,2.1c-0.3,0.4-1.3,1.7-1.3,1.7l-0.2,0.3h-1.4
					v-1.5h0.6c0.3-0.4,0.9-1.1,1.1-1.4c0.3-0.4,0.8-1.8,1.1-2.7l0.1-0.2c0.2-0.3,0.6-0.5,1.1-0.5c0.5,0,0.9,0.2,1.1,0.5
					c0.3,0.5,0.3,1.3,0.3,1.8l0,0.3c0,0.6-0.2,1.5-0.5,2.1H50c0.9,0,1.7,0.8,1.7,1.7C51.7,67.9,50.9,68.7,50,68.7z"/>
			</g>
			<g id="XMLID_106_">
				<rect id="XMLID_898_" x="35.2" y="64.2" fill="#0686D8" width="1" height="1.5"/>
			</g>
			<g id="XMLID_104_">
				<path id="XMLID_897_" fill="#0686D8" d="M39.7,73.8h-4.5v-1.5h4.5l0-6.5l-1.2,0v-1.5h1.1c0.8,0,1.5,0.7,1.5,1.5v6.4
					C41.2,73.1,40.5,73.8,39.7,73.8z"/>
			</g>
			<g id="XMLID_103_">
				<rect id="XMLID_896_" x="36.6" y="64.2" fill="#0686D8" width="1.2" height="1.5"/>
			</g>
		</g>
		<g id="XMLID_324_">
			<rect id="XMLID_895_" x="42.2" y="47.7" fill="#0686D8" width="1.5" height="5.5"/>
		</g>
		<g id="XMLID_323_">
			
				<rect id="XMLID_894_" x="46.6" y="51" transform="matrix(0.9655 0.2604 -0.2604 0.9655 15.2771 -10.5159)" fill="#0686D8" width="1.5" height="2.7"/>
		</g>
		<g id="XMLID_326_">
			
				<rect id="XMLID_893_" x="51.4" y="50.2" transform="matrix(0.8652 0.5014 -0.5014 0.8652 33.5569 -19.0042)" fill="#0686D8" width="1.5" height="5.5"/>
		</g>
		<g id="XMLID_327_">
			
				<rect id="XMLID_892_" x="54.2" y="55.5" transform="matrix(0.7048 0.7094 -0.7094 0.7048 56.5402 -22.2193)" fill="#0686D8" width="1.5" height="2.7"/>
		</g>
		<g id="XMLID_329_">
			
				<rect id="XMLID_891_" x="58.1" y="56.9" transform="matrix(0.496 0.8683 -0.8683 0.496 81.5056 -21.0247)" fill="#0686D8" width="1.5" height="5.5"/>
		</g>
		<g id="XMLID_330_">
			
				<rect id="XMLID_890_" x="58.6" y="63.3" transform="matrix(0.1458 0.9893 -0.9893 0.1458 114.6739 -3.4882)" fill="#0686D8" width="1.5" height="2.7"/>
		</g>
		<g id="XMLID_409_">
			
				<rect id="XMLID_889_" x="37.5" y="83.8" transform="matrix(0.9623 0.2721 -0.2721 0.9623 24.6035 -7.2098)" fill="#0686D8" width="1.5" height="2.6"/>
		</g>
		<g id="XMLID_410_">
			
				<rect id="XMLID_888_" x="32.7" y="81.9" transform="matrix(0.8583 0.5131 -0.5131 0.8583 48.1508 -5.1895)" fill="#0686D8" width="1.5" height="5.5"/>
		</g>
		<g id="XMLID_411_">
			
				<rect id="XMLID_887_" x="29.9" y="79.2" transform="matrix(0.6992 0.7149 -0.7149 0.6992 66.9238 2.4047)" fill="#0686D8" width="1.5" height="3"/>
		</g>
		<g id="XMLID_412_">
			
				<rect id="XMLID_886_" x="26.1" y="75" transform="matrix(0.4848 0.8746 -0.8746 0.4848 81.8101 16.585)" fill="#0686D8" width="1.5" height="5.5"/>
		</g>
		<g id="XMLID_413_">
			
				<rect id="XMLID_885_" x="25.5" y="71.4" transform="matrix(0.2232 0.9748 -0.9748 0.2232 91.496 31.0208)" fill="#0686D8" width="1.5" height="3"/>
		</g>
		<g id="XMLID_414_">
			
				<rect id="XMLID_884_" x="21.8" y="67.7" transform="matrix(0.9998 1.955736e-002 -1.955736e-002 0.9998 1.3436 -0.4666)" fill="#0686D8" width="5.5" height="1.5"/>
		</g>
		<g id="XMLID_415_">
			
				<rect id="XMLID_883_" x="25.2" y="63.3" transform="matrix(0.9604 0.2786 -0.2786 0.9604 18.9014 -4.8648)" fill="#0686D8" width="2.7" height="1.5"/>
		</g>
		<g id="XMLID_416_">
			
				<rect id="XMLID_882_" x="24.4" y="58.5" transform="matrix(0.855 0.5186 -0.5186 0.855 34.6879 -5.5038)" fill="#0686D8" width="5.5" height="1.5"/>
		</g>
		<g id="XMLID_417_">
			
				<rect id="XMLID_881_" x="29.8" y="55.8" transform="matrix(0.691 0.7228 -0.7228 0.691 50.4822 -5.0551)" fill="#0686D8" width="2.7" height="1.5"/>
		</g>
		<g id="XMLID_418_">
			
				<rect id="XMLID_880_" x="31.3" y="51.9" transform="matrix(0.4793 0.8777 -0.8777 0.4793 63.996 -2.4885)" fill="#0686D8" width="5.5" height="1.5"/>
		</g>
		<g id="XMLID_419_">
			
				<rect id="XMLID_879_" x="37.5" y="51.5" transform="matrix(0.2347 0.9721 -0.9721 0.2347 80.6079 2.1905)" fill="#0686D8" width="2.7" height="1.5"/>
		</g>
	</g>
	<g id="XMLID_184_">
		<g id="XMLID_186_">
			<path id="XMLID_878_" fill="#0686D8" d="M105.5,17.6h-4.3c-0.4,0-0.8-0.3-0.8-0.8c0-0.4,0.3-0.8,0.8-0.8h4.3
				c0.4,0,0.8,0.3,0.8,0.8C106.2,17.3,105.9,17.6,105.5,17.6z"/>
		</g>
		<g id="XMLID_185_">
			<path id="XMLID_877_" fill="#0686D8" d="M103.4,19.8c-0.4,0-0.8-0.3-0.8-0.8v-4.3c0-0.4,0.3-0.8,0.8-0.8s0.8,0.3,0.8,0.8V19
				C104.1,19.4,103.8,19.8,103.4,19.8z"/>
		</g>
	</g>
	<g id="XMLID_459_">
		<g id="XMLID_461_">
			<path id="XMLID_876_" fill="#0686D8" d="M202.7,57.1h-4.3c-0.4,0-0.8-0.3-0.8-0.8c0-0.4,0.3-0.8,0.8-0.8h4.3
				c0.4,0,0.8,0.3,0.8,0.8C203.4,56.8,203.1,57.1,202.7,57.1z"/>
		</g>
		<g id="XMLID_460_">
			<path id="XMLID_875_" fill="#0686D8" d="M200.6,59.2c-0.4,0-0.8-0.3-0.8-0.8v-4.3c0-0.4,0.3-0.8,0.8-0.8c0.4,0,0.8,0.3,0.8,0.8
				v4.3C201.3,58.9,201,59.2,200.6,59.2z"/>
		</g>
	</g>
	<g id="XMLID_462_">
		<g id="XMLID_464_">
			<path id="XMLID_874_" fill="#0686D8" d="M20.6,53.7h-4.3c-0.4,0-0.8-0.3-0.8-0.8c0-0.4,0.3-0.8,0.8-0.8h4.3
				c0.4,0,0.8,0.3,0.8,0.8C21.3,53.3,21,53.7,20.6,53.7z"/>
		</g>
		<g id="XMLID_463_">
			<path id="XMLID_873_" fill="#0686D8" d="M18.4,55.8c-0.4,0-0.8-0.3-0.8-0.8v-4.3c0-0.4,0.3-0.8,0.8-0.8c0.4,0,0.8,0.3,0.8,0.8
				v4.3C19.2,55.5,18.8,55.8,18.4,55.8z"/>
		</g>
	</g>
	<g id="XMLID_307_">
		<g id="XMLID_309_">
			<path id="XMLID_872_" fill="#0686D8" d="M60.6,34.7c-0.2,0-0.4-0.1-0.5-0.2c-0.3-0.3-0.3-0.8,0-1.1l3-3c0.3-0.3,0.8-0.3,1.1,0
				c0.3,0.3,0.3,0.8,0,1.1l-3,3C61,34.6,60.8,34.7,60.6,34.7z"/>
		</g>
		<g id="XMLID_308_">
			<path id="XMLID_871_" fill="#0686D8" d="M63.6,34.7c-0.2,0-0.4-0.1-0.5-0.2l-3-3c-0.3-0.3-0.3-0.8,0-1.1c0.3-0.3,0.8-0.3,1.1,0
				l3,3c0.3,0.3,0.3,0.8,0,1.1C64,34.6,63.8,34.7,63.6,34.7z"/>
		</g>
	</g>
	<g id="XMLID_467_">
		<g id="XMLID_470_">
			<path id="XMLID_870_" fill="#0686D8" d="M192.9,27.5c-0.2,0-0.4-0.1-0.5-0.2c-0.3-0.3-0.3-0.8,0-1.1l3-3c0.3-0.3,0.8-0.3,1.1,0
				c0.3,0.3,0.3,0.8,0,1.1l-3,3C193.3,27.5,193.1,27.5,192.9,27.5z"/>
		</g>
		<g id="XMLID_469_">
			<path id="XMLID_869_" fill="#0686D8" d="M195.9,27.5c-0.2,0-0.4-0.1-0.5-0.2l-3-3c-0.3-0.3-0.3-0.8,0-1.1c0.3-0.3,0.8-0.3,1.1,0
				l3,3c0.3,0.3,0.3,0.8,0,1.1C196.3,27.5,196.1,27.5,195.9,27.5z"/>
		</g>
	</g>
	<g id="XMLID_135_">
		<rect id="XMLID_868_" x="76" y="16.1" fill="#0686D8" width="17.4" height="1.5"/>
	</g>
	<g id="XMLID_458_">
		<rect id="XMLID_867_" x="178.1" y="55.6" fill="#0686D8" width="17.4" height="1.5"/>
	</g>
	<g id="XMLID_306_">
		<rect id="XMLID_866_" x="46.6" y="8.8" fill="#0686D8" width="38.4" height="1.5"/>
	</g>
	<g id="XMLID_105_">
		<rect id="XMLID_865_" x="94.9" y="16.1" fill="#0686D8" width="3.6" height="1.5"/>
	</g>
	<g id="XMLID_332_">
		<circle id="XMLID_111_" fill="#0686D8" cx="68.1" cy="56.9" r="1.7"/>
	</g>
	<g id="XMLID_455_">
		<circle id="XMLID_130_" fill="#0686D8" cx="195.5" cy="45.5" r="1.7"/>
	</g>
	<g id="XMLID_457_">
		<circle id="XMLID_131_" fill="#0686D8" cx="99.1" cy="1.7" r="1.7"/>
	</g>
	<g id="XMLID_100_">
		<circle id="XMLID_132_" fill="#0686D8" cx="32.3" cy="43.2" r="1.3"/>
	</g>
	<g id="XMLID_454_">
		<circle id="XMLID_136_" fill="#0686D8" cx="180.4" cy="77.8" r="1.3"/>
	</g>
	<g id="XMLID_453_">
		<circle id="XMLID_140_" fill="#0686D8" cx="43.1" cy="23.1" r="0.9"/>
	</g>
	<g id="XMLID_456_">
		<circle id="XMLID_141_" fill="#0686D8" cx="182.5" cy="17.9" r="0.9"/>
	</g>
	<g id="XMLID_408_" opacity="0.3">
		<path id="XMLID_863_" fill="#0686D8" d="M82.1,103.3c0.7-0.6,1.2-1.5,1.2-2.6h-0.8v-4.3v-0.8V95v-4l0.6-0.5l-0.6-0.6V73.7
			c0-1.4-1.1-2.6-2.6-2.6h-7.5v-0.7h-0.9v28.9c0,1,0.3,2,0.9,2.8c0.2,0.5,0.6,0.9,1.1,1.1c0.8,0.6,1.7,0.9,2.8,0.9v-0.8H82.1z"/>
	</g>
	<g id="XMLID_407_" opacity="0.3">
		<path id="XMLID_855_" fill="#0686D8" d="M121.4,101.3v-25h0.8V35.7c0-1-0.3-2-0.9-2.8c-0.2-0.5-0.6-0.9-1.1-1.1
			c-0.8-0.6-1.7-0.9-2.8-0.9h-4.8v72.4h4.2h2.6C120.5,103.3,121.4,102.4,121.4,101.3z"/>
	</g>
	<g id="XMLID_134_">
		<g id="XMLID_516_">
			<path fill="#FFFFFF" d="M117.4,103.3h-41c-1.1,0-2-0.9-2-2V33.6c0-1.1,0.9-2,2-2h41c1.1,0,2,0.9,2,2v67.7
				C119.4,102.4,118.5,103.3,117.4,103.3z"/>
		</g>
		<g id="XMLID_339_">
			<path id="XMLID_862_" fill="#0686D8" d="M78.4,104.1c-2.6,0-4.8-2.1-4.8-4.8V35.7c0-2.6,2.1-4.8,4.8-4.8h3.8v1.5h-3.8
				c-1.8,0-3.3,1.5-3.3,3.3v63.6c0,1.8,1.5,3.3,3.3,3.3V104.1z"/>
		</g>
		<g id="XMLID_251_">
			<path id="XMLID_861_" fill="#0686D8" d="M120.2,76.3h-1.5V35.7c0-1.8-1.5-3.3-3.3-3.3H91.9v-1.5h23.5c2.6,0,4.8,2.1,4.8,4.8V76.3
				z"/>
		</g>
		<g id="XMLID_513_">
			<rect id="XMLID_860_" x="90.2" y="36.3" fill="#0686D8" width="13.3" height="1.5"/>
		</g>
		<g id="XMLID_512_">
			<path id="XMLID_857_" fill="#0686D8" d="M96.9,100.4c-1.6,0-2.9-1.3-2.9-2.9c0-1.6,1.3-2.9,2.9-2.9s2.9,1.3,2.9,2.9
				C99.8,99.1,98.5,100.4,96.9,100.4z M96.9,96c-0.8,0-1.4,0.6-1.4,1.4c0,0.8,0.6,1.4,1.4,1.4c0.8,0,1.4-0.6,1.4-1.4
				C98.3,96.7,97.7,96,96.9,96z"/>
		</g>
		<g id="XMLID_511_">
			<rect id="XMLID_1175_" x="78.9" y="42" fill="#9ECFEF" width="36" height="50.8"/>
		</g>
		<g id="XMLID_142_">
			<rect id="XMLID_856_" x="84.5" y="30.9" fill="#0686D8" width="4.7" height="1.5"/>
		</g>
	</g>
	<g id="XMLID_346_" opacity="0.3">
		<path id="XMLID_156_" fill="#0686D8" d="M119.4,101.3V77.7h-13.8c-0.8,0-1.5,0.7-1.5,1.5v23.5c0,0.3,0.1,0.5,0.2,0.7h13.1
			C118.5,103.3,119.4,102.4,119.4,101.3z"/>
	</g>
	<g id="XMLID_143_">
		<g id="XMLID_814_">
			<path fill="#FFFFFF" d="M143,103.3h-35.4c-0.4,0-0.7-0.3-0.7-0.7V79.2c0-0.4,0.3-0.7,0.7-0.7H143c0.4,0,0.7,0.3,0.7,0.7v23.5
				C143.7,103,143.4,103.3,143,103.3z"/>
		</g>
		<g id="XMLID_812_">
			<path fill="#5FB0E5" d="M128.5,88.8l-5.9,3.4c-0.4,0.2-0.8-0.1-0.8-0.5v-6.8c0-0.4,0.5-0.7,0.8-0.5l5.9,3.4
				C128.9,88,128.9,88.5,128.5,88.8z"/>
		</g>
		<g id="XMLID_811_">
			<path id="XMLID_852_" fill="#0686D8" d="M122.4,93c-0.2,0-0.4-0.1-0.7-0.2c-0.4-0.2-0.7-0.7-0.7-1.1v-6.8c0-0.5,0.2-0.9,0.7-1.1
				c0.4-0.2,0.9-0.2,1.3,0l5.9,3.4c0.4,0.2,0.7,0.7,0.7,1.1c0,0.5-0.2,0.9-0.7,1.1l-5.9,3.4C122.8,92.9,122.6,93,122.4,93z
				 M122.6,85.2v6.1l5.3-3L122.6,85.2z"/>
		</g>
		<g id="XMLID_810_">
			<rect id="XMLID_851_" x="111" y="98" fill="#0686D8" width="28.2" height="1.5"/>
		</g>
		<g id="XMLID_809_">
			<rect id="XMLID_850_" x="116.6" y="96.5" fill="#0686D8" width="1.5" height="4.5"/>
		</g>
		<g id="XMLID_426_">
			<path fill="#9ECFEF" d="M135.2,87.4l1.4-7.8c-0.8-1.8-1.3-3.9-1.3-6.1c0-8.2,6.6-14.9,14.9-14.9c8.2,0,14.9,6.6,14.9,14.9
				c0,8.2-6.6,14.9-14.9,14.9c-2.9,0-5.6-0.8-7.9-2.3L135.2,87.4z"/>
		</g>
		<g id="XMLID_425_">
			<path id="XMLID_849_" fill="#0686D8" d="M150.2,89.2c-2.8,0-5.6-0.8-8-2.2l-7.9,1.5l1.6-8.7c-0.8-2-1.3-4-1.3-6.1
				c0-3.6,1.2-7.1,3.5-9.8l1.2,0.9c-2,2.5-3.1,5.7-3.1,8.9c0,2,0.4,3.9,1.2,5.7l0.1,0.2l-1.3,7l6.3-1.2l0.2,0.2
				c2.3,1.4,4.8,2.2,7.5,2.2c7.8,0,14.1-6.3,14.1-14.1s-6.3-14.1-14.1-14.1c-2,0-3.8,0.4-5.6,1.2l-0.6-1.4c2-0.9,4.1-1.3,6.2-1.3
				c8.6,0,15.6,7,15.6,15.6C165.8,82.2,158.8,89.2,150.2,89.2z"/>
		</g>
		<g id="XMLID_424_">
			<path id="XMLID_848_" fill="#0686D8" d="M140.2,63.6l-1.1-1.1c1-1,2.1-1.8,3.3-2.5l0.7,1.3C142.1,62,141.1,62.7,140.2,63.6z"/>
		</g>
		<g id="XMLID_423_">
			<ellipse fill="#FFFFFF" cx="150.1" cy="73.6" rx="11.5" ry="11.2"/>
		</g>
		<g id="XMLID_144_">
			<g id="XMLID_431_">
				
					<rect id="XMLID_847_" x="149.2" y="65.7" transform="matrix(0.5464 0.8375 -0.8375 0.5464 127.0571 -93.6228)" fill="#0686D8" width="1.5" height="9.6"/>
			</g>
			<g id="XMLID_430_">
				
					<rect id="XMLID_846_" x="145" y="75.9" transform="matrix(0.825 0.5651 -0.5651 0.825 69.5377 -71.2965)" fill="#0686D8" width="9.8" height="1.5"/>
			</g>
			<g id="XMLID_429_">
				<circle fill="#5FB0E5" cx="145.1" cy="73.5" r="2.1"/>
			</g>
			<g id="XMLID_428_">
				<path id="XMLID_843_" fill="#0686D8" d="M145.1,76.4c-1.6,0-2.9-1.3-2.9-2.9s1.3-2.9,2.9-2.9c1.6,0,2.9,1.3,2.9,2.9
					S146.7,76.4,145.1,76.4z M145.1,72.1c-0.8,0-1.4,0.6-1.4,1.4s0.6,1.4,1.4,1.4c0.8,0,1.4-0.6,1.4-1.4S145.9,72.1,145.1,72.1z"/>
			</g>
			<g id="XMLID_427_">
				<circle fill="#5FB0E5" cx="154" cy="67.9" r="2.1"/>
			</g>
			<g id="XMLID_422_">
				<path id="XMLID_840_" fill="#0686D8" d="M154,70.7c-1.6,0-2.9-1.3-2.9-2.9c0-1.6,1.3-2.9,2.9-2.9c1.6,0,2.9,1.3,2.9,2.9
					C156.8,69.5,155.5,70.7,154,70.7z M154,66.5c-0.8,0-1.4,0.6-1.4,1.4c0,0.8,0.6,1.4,1.4,1.4c0.8,0,1.4-0.6,1.4-1.4
					C155.3,67.1,154.7,66.5,154,66.5z"/>
			</g>
			<g id="XMLID_421_">
				<circle fill="#5FB0E5" cx="154" cy="79.2" r="2.1"/>
			</g>
			<g id="XMLID_420_">
				<path id="XMLID_837_" fill="#0686D8" d="M154,82.1c-1.6,0-2.9-1.3-2.9-2.9s1.3-2.9,2.9-2.9c1.6,0,2.9,1.3,2.9,2.9
					S155.5,82.1,154,82.1z M154,77.9c-0.8,0-1.4,0.6-1.4,1.4c0,0.8,0.6,1.4,1.4,1.4c0.8,0,1.4-0.6,1.4-1.4
					C155.3,78.5,154.7,77.9,154,77.9z"/>
			</g>
		</g>
		<g id="XMLID_145_">
			<path id="XMLID_834_" fill="#0686D8" d="M143,104.1h-35.4c-0.8,0-1.5-0.7-1.5-1.5V79.2c0-0.8,0.7-1.5,1.5-1.5h26.8v1.5h-26.8
				l0,23.4l35.3,0l0-13.4h1.5v13.5C144.5,103.4,143.8,104.1,143,104.1z"/>
		</g>
	</g>
	<g id="XMLID_146_">
		<g id="XMLID_189_">
			<rect id="XMLID_833_" x="23" y="102.6" fill="#0686D8" width="163.8" height="1.5"/>
		</g>
		<g id="XMLID_188_">
			<rect id="XMLID_831_" x="18.4" y="102.6" fill="#0686D8" width="2.7" height="1.5"/>
		</g>
		<g id="XMLID_187_">
			<rect id="XMLID_830_" x="188.4" y="102.6" fill="#0686D8" width="6" height="1.5"/>
		</g>
	</g>
	<g id="XMLID_406_">
		<g id="XMLID_452_">
			<circle fill="#D2E9F7" cx="96.9" cy="65.3" r="10.9"/>
		</g>
		<g id="XMLID_451_">
			<path id="XMLID_829_" fill="#0686D8" d="M106.9,63.6c-0.9-4.9-5.3-8.5-10.2-8.4c-0.8,0-1.7,0.1-2.5,0.4l-0.4-1.4
				c0.9-0.3,1.9-0.4,2.9-0.4c5.7-0.1,10.7,4,11.7,9.6L106.9,63.6z"/>
		</g>
		<g id="XMLID_450_">
			<path id="XMLID_828_" fill="#0686D8" d="M86.8,63.9l-1.5-0.2c0.2-1.7,0.9-3.4,1.9-4.9l1.2,0.8C87.6,60.9,87,62.4,86.8,63.9z"/>
		</g>
		<g id="XMLID_449_">
			<path id="XMLID_827_" fill="#0686D8" d="M89.6,58.2l-1.1-1.1c1-1,2.2-1.8,3.5-2.4l0.6,1.4C91.5,56.6,90.5,57.3,89.6,58.2z"/>
		</g>
		<g id="XMLID_446_">
			<g id="XMLID_448_">
				<path id="XMLID_817_" fill="#0686D8" d="M97.6,67.2H94v-1.5h3.6c0.3,0,0.6-0.3,0.6-0.6c0-0.3-0.3-0.6-0.6-0.6h-1.4
					c-1.2,0-2.1-0.9-2.1-2.1c0-1.2,0.9-2.1,2.1-2.1h3.5v1.5h-3.5c-0.3,0-0.6,0.3-0.6,0.6c0,0.3,0.3,0.6,0.6,0.6h1.4
					c1.2,0,2.1,0.9,2.1,2.1C99.7,66.3,98.8,67.2,97.6,67.2z"/>
			</g>
			<g id="XMLID_447_">
				<rect id="XMLID_443_" x="96.1" y="58.9" fill="#0686D8" width="1.5" height="9.8"/>
			</g>
		</g>
		<g id="XMLID_444_">
			<path id="XMLID_149_" fill="#FFFFFF" d="M101.8,65.4c0,2.7-2.2,4.9-4.9,4.9c-2.7,0-4.9-2.2-4.9-4.9l-9.7,0.1l0,0.7
				c0,0.8,0.7,1.5,1.5,1.5l2.4,0c0.3,1.2,0.8,2.4,1.4,3.4l-1.7,1.7c-0.6,0.6-0.6,1.6,0,2.2l1.2,1.3c0.6,0.6,1.6,0.6,2.2,0l1.7-1.7
				c1,0.7,2.2,1.1,3.4,1.4l0,2.4c0,0.8,0.7,1.5,1.5,1.5l1.8,0c0.8,0,1.5-0.7,1.5-1.5l0-2.4c1.2-0.3,2.4-0.8,3.4-1.4l1.7,1.7
				c0.6,0.6,1.6,0.6,2.2,0l1.3-1.3c0.6-0.6,0.6-1.6,0-2.2l-1.7-1.7c0.7-1,1.1-2.2,1.4-3.4l2.4,0c0.8,0,1.5-0.7,1.5-1.5v-1
				L101.8,65.4z"/>
		</g>
		<g id="XMLID_442_">
			<path id="XMLID_821_" fill="#0686D8" d="M97.7,80.8l-1.8,0c-0.6,0-1.2-0.2-1.6-0.7c-0.4-0.4-0.7-1-0.7-1.6l0-1.8
				c-0.9-0.3-1.7-0.6-2.6-1.1l-1.3,1.3c-0.4,0.4-1,0.7-1.6,0.7c0,0,0,0,0,0c-0.6,0-1.2-0.2-1.6-0.7l-1.2-1.3c-0.4-0.4-0.7-1-0.7-1.6
				c0-0.6,0.2-1.2,0.7-1.6l1.3-1.3c-0.5-0.8-0.8-1.7-1.1-2.6l-1.8,0c-1.3,0-2.3-1-2.3-2.3v-1.5l11.2-0.1v0.8c0,2.3,1.9,4.1,4.1,4.1
				c2.3,0,4.1-1.9,4.1-4.1v-0.7l11.2-0.1v1.8c0,1.3-1,2.3-2.3,2.3l-1.8,0c-0.3,0.9-0.6,1.7-1.1,2.6l1.3,1.3c0.4,0.4,0.7,1,0.7,1.6
				c0,0.6-0.2,1.2-0.7,1.6l-1.2,1.3c-0.9,0.9-2.4,0.9-3.2,0l-1.3-1.3c-0.8,0.5-1.7,0.8-2.6,1.1l0,1.8C100,79.7,99,80.8,97.7,80.8z
				 M90.9,73.7l0.5,0.3c1,0.6,2.1,1.1,3.2,1.3l0.6,0.1l0,3c0,0.2,0.1,0.4,0.2,0.6c0.1,0.1,0.3,0.2,0.6,0.2l1.8,0
				c0.4,0,0.8-0.3,0.8-0.8l0-3l0.6-0.1c1.1-0.3,2.2-0.7,3.2-1.3l0.5-0.3l2.1,2.1c0.3,0.3,0.8,0.3,1.1,0l1.2-1.3
				c0.2-0.2,0.2-0.3,0.2-0.6c0-0.2-0.1-0.4-0.2-0.5l-2.1-2.1l0.3-0.5c0.6-1,1.1-2.1,1.3-3.2l0.1-0.6l3,0c0.4,0,0.8-0.4,0.8-0.8v-0.2
				l-8.3,0.1c-0.4,2.8-2.7,4.9-5.6,4.9c-2.8,0-5.2-2.1-5.6-4.9L83,66.3c0,0.4,0.4,0.8,0.8,0.8l3,0l0.1,0.6c0.3,1.1,0.7,2.2,1.3,3.2
				l0.3,0.5l-2.1,2.1c-0.1,0.1-0.2,0.3-0.2,0.6c0,0.2,0.1,0.4,0.2,0.6l1.2,1.3C87.8,76,88,76,88.2,76h0c0.2,0,0.4-0.1,0.6-0.2
				L90.9,73.7z"/>
		</g>
		<g id="XMLID_440_">
			<rect id="XMLID_805_" x="95.8" y="51.1" fill="#0686D8" width="1.5" height="1.5"/>
		</g>
		<g id="XMLID_439_">
			
				<rect id="XMLID_804_" x="100.8" y="49.8" transform="matrix(0.9395 0.3425 -0.3425 0.9395 23.8212 -31.6601)" fill="#0686D8" width="1.5" height="3.7"/>
		</g>
		<g id="XMLID_438_">
			
				<rect id="XMLID_803_" x="104.6" y="53.8" transform="matrix(0.7657 0.6433 -0.6433 0.7657 59.9141 -54.9473)" fill="#0686D8" width="1.5" height="1.8"/>
		</g>
		<g id="XMLID_437_">
			
				<rect id="XMLID_802_" x="108.5" y="56" transform="matrix(0.499 0.8666 -0.8666 0.499 104.8696 -65.7087)" fill="#0686D8" width="1.5" height="3.7"/>
		</g>
		<g id="XMLID_436_">
			
				<rect id="XMLID_801_" x="109.4" y="61.8" transform="matrix(0.1718 0.9851 -0.9851 0.1718 153.0002 -56.6084)" fill="#0686D8" width="1.5" height="1.8"/>
		</g>
		<g id="XMLID_435_">
			
				<rect id="XMLID_800_" x="82.6" y="62.4" transform="matrix(0.9826 0.1858 -0.1858 0.9826 13.1902 -14.4166)" fill="#0686D8" width="1.8" height="1.5"/>
		</g>
		<g id="XMLID_434_">
			
				<rect id="XMLID_799_" x="82.4" y="57.5" transform="matrix(0.863 0.5052 -0.5052 0.863 40.9624 -34.5813)" fill="#0686D8" width="3.7" height="1.5"/>
		</g>
		<g id="XMLID_433_">
			
				<rect id="XMLID_798_" x="87.2" y="54.3" transform="matrix(0.6378 0.7702 -0.7702 0.6378 74.3297 -47.8601)" fill="#0686D8" width="1.7" height="1.5"/>
		</g>
		<g id="XMLID_432_">
			
				<rect id="XMLID_797_" x="89.9" y="51" transform="matrix(0.3355 0.9421 -0.9421 0.3355 109.7494 -52.0278)" fill="#0686D8" width="3.7" height="1.5"/>
		</g>
	</g>
</g>
</svg>
