<?xml version="1.0" encoding="utf-8"?>
<!-- Generator: Adobe Illustrator 18.0.0, SVG Export Plug-In . SVG Version: 6.00 Build 0)  -->
<!DOCTYPE svg PUBLIC "-//W3C//DTD SVG 1.1//EN" "http://www.w3.org/Graphics/SVG/1.1/DTD/svg11.dtd">
<svg version="1.1" id="Web_Design" xmlns="http://www.w3.org/2000/svg" xmlns:xlink="http://www.w3.org/1999/xlink" x="0px" y="0px"
	 viewBox="0 0 437.3 158.4" enable-background="new 0 0 437.3 158.4" xml:space="preserve">
<g id="Efects">
</g>
<g>
	<g id="XMLID_66_">
		<path fill="#5FB0E5" d="M159,92.7c-1.3,0.3-1.6,0.6-1.9,1.9c-0.3-1.3-0.6-1.6-1.9-1.9c1.3-0.3,1.6-0.6,1.9-1.9
			C157.4,92.1,157.7,92.4,159,92.7z"/>
	</g>
	<g>
		<path fill="#D2E9F7" d="M63.8,41.9L63.8,41.9c0,4.7,3.8,8.5,8.5,8.5h52.7c3.5,0,6.4,2.8,6.4,6.4l0,0c0,3.5-2.8,6.4-6.4,6.4H36.3
			c-6.1,0-11.1,5-11.1,11.1l0,0c0,6.1,5,11.1,11.1,11.1h123.2c3.9,0,7.1,3.2,7.1,7.1l0,0c0,3.9-3.2,7.1-7.1,7.1l-93.4,0.6
			c-6.4,0-11.5,5.2-11.5,11.6l0,0c0,6.4,5.2,11.6,11.6,11.6h76.7v34.3h201.4v-20l64.2,0c6,0,10.9-4.9,10.9-10.9l0,0
			c0-6-4.9-10.9-10.9-10.9h-39.8c-4.9,0-8.9-4-8.9-8.9l0,0c0-4.9,4-8.9,8.9-8.9h4.9c6.2,0,11.2-5,11.2-11.2l0,0
			c0-6.2-5-11.2-11.2-11.2h-74.8c-4.4,0-7.9-3.6-7.9-7.9l0,0c0-4.4,3.6-7.9,7.9-7.9h38.4c7.3,0,13.2-5.9,13.2-13.2l0,0
			c0-7.3-5.9-13.2-13.2-13.2H72.3C67.6,33.3,63.8,37.2,63.8,41.9z"/>
	</g>
	<g id="XMLID_91_">
		<circle fill="#5FB0E5" cx="153.7" cy="48.4" r="1.1"/>
	</g>
	<g id="XMLID_240_">
		<circle fill="#5FB0E5" cx="151.3" cy="12" r="1.8"/>
	</g>
	<g id="XMLID_85_">
		<circle fill="#5FB0E5" cx="181.9" cy="22.8" r="0.9"/>
	</g>
	<g id="XMLID_88_">
		<circle fill="#5FB0E5" cx="333.5" cy="90" r="1"/>
	</g>
	<g id="XMLID_86_">
		<circle fill="#5FB0E5" cx="248.8" cy="74.3" r="1"/>
	</g>
	<g id="XMLID_34_">
		<circle fill="#5FB0E5" cx="83.6" cy="29.4" r="1.3"/>
	</g>
	<g id="XMLID_70_">
		<circle fill="#5FB0E5" cx="174.2" cy="1.3" r="1.3"/>
	</g>
	<g id="XMLID_83_">
		<circle fill="#5FB0E5" cx="186.6" cy="84.9" r="1.1"/>
	</g>
	<g id="XMLID_71_">
		<circle fill="#5FB0E5" cx="364.9" cy="62.1" r="1"/>
	</g>
	<g id="XMLID_33_">
		<circle fill="#5FB0E5" cx="47.3" cy="106.9" r="1.9"/>
	</g>
	<g id="XMLID_68_">
		<path fill="#5FB0E5" d="M86.2,75.6c-1.7,0.5-2.1,0.8-2.6,2.6c-0.5-1.7-0.8-2.1-2.6-2.6c1.7-0.5,2.1-0.8,2.6-2.6
			C84.1,74.8,84.4,75.2,86.2,75.6z"/>
	</g>
	<g id="XMLID_65_">
		<path fill="#5FB0E5" d="M222.4,4.2c-2,0.5-2.4,0.9-2.9,2.9c-0.5-2-0.9-2.4-2.9-2.9c2-0.5,2.4-0.9,2.9-2.9
			C220,3.3,220.4,3.7,222.4,4.2z"/>
	</g>
	<g id="XMLID_35_">
		<path fill="#5FB0E5" d="M374.5,107.7c-1.6,0.4-2,0.8-2.4,2.4c-0.4-1.6-0.8-2-2.4-2.4c1.6-0.4,2-0.8,2.4-2.4
			C372.5,106.9,372.9,107.3,374.5,107.7z"/>
	</g>
	<g id="XMLID_46_">
		<path fill="#5FB0E5" d="M283.6,80c-1.4,0.4-1.7,0.7-2.1,2.1c-0.4-1.4-0.7-1.7-2.1-2.1c1.4-0.4,1.7-0.7,2.1-2.1
			C281.9,79.3,282.2,79.6,283.6,80z"/>
	</g>
	<g id="XMLID_43_">
		<path fill="#5FB0E5" d="M183.2,50.9c-1.4,0.4-1.7,0.7-2.1,2.1c-0.4-1.4-0.7-1.7-2.1-2.1c1.4-0.4,1.7-0.7,2.1-2.1
			C181.4,50.2,181.7,50.5,183.2,50.9z"/>
	</g>
	<g id="XMLID_238_">
		<path fill="#5FB0E5" d="M108.9,58.1c-1.4,0.4-1.7,0.7-2.1,2.1c-0.4-1.4-0.7-1.7-2.1-2.1c1.4-0.4,1.7-0.7,2.1-2.1
			C107.2,57.4,107.5,57.7,108.9,58.1z"/>
	</g>
	<g id="XMLID_239_">
		<path fill="#5FB0E5" d="M359.6,33.4c-1.4,0.4-1.7,0.7-2.1,2.1c-0.4-1.4-0.7-1.7-2.1-2.1c1.4-0.4,1.7-0.7,2.1-2.1
			C357.9,32.7,358.2,33,359.6,33.4z"/>
	</g>
	<g id="XMLID_47_">
		<path fill="#5FB0E5" d="M258.2,4.2c-1.4,0.4-1.7,0.7-2.1,2.1c-0.4-1.4-0.7-1.7-2.1-2.1c1.4-0.4,1.7-0.7,2.1-2.1
			C256.5,3.5,256.8,3.8,258.2,4.2z"/>
	</g>
	<g id="XMLID_45_">
		<path fill="#5FB0E5" d="M255,28.1c-1.5,0.4-1.8,0.7-2.2,2.2c-0.4-1.5-0.7-1.8-2.2-2.2c1.5-0.4,1.8-0.7,2.2-2.2
			C253.1,27.3,253.5,27.7,255,28.1z"/>
	</g>
	<g>
		<g id="XMLID_195_">
			<g id="XMLID_217_">
				<path fill="#FFFFFF" d="M87.7,157.6l1.3-7.7c0.3-1.5-0.9-3-2.5-3H60.5c-1.6,0-2.8,1.4-2.5,3l1.3,7.7H87.7z"/>
			</g>
			<g id="XMLID_215_">
				<path fill="#0686D8" d="M88.5,157.7l-1.5-0.3l1.4-7.9c0.1-0.5,0-1-0.4-1.3c-0.3-0.4-0.8-0.6-1.2-0.6H60.3
					c-0.5,0-0.9,0.2-1.2,0.6c-0.3,0.4-0.4,0.8-0.4,1.3l1.4,7.9l-1.5,0.3l-1.4-7.9c-0.2-0.9,0.1-1.8,0.7-2.5c0.6-0.7,1.5-1.1,2.4-1.1
					h26.5c0.9,0,1.8,0.4,2.4,1.1c0.6,0.7,0.8,1.6,0.7,2.5L88.5,157.7z"/>
			</g>
			<g id="XMLID_214_">
				<rect x="72.8" y="123.9" fill="#0686D8" width="1.5" height="23.7"/>
			</g>
			<g id="XMLID_425_">
				<circle fill="#D2E9F7" cx="73.5" cy="114" r="12.7"/>
			</g>
			<g id="XMLID_213_">
				<path fill="#0686D8" d="M73.5,127.5c-7.4,0-13.5-6-13.5-13.5c0-7.4,6-13.5,13.5-13.5c1.4,0,2.8,0.2,4.1,0.6l-0.5,1.4
					c-1.2-0.4-2.4-0.6-3.7-0.6c-6.6,0-12,5.4-12,12c0,6.6,5.4,12,12,12c6.6,0,12-5.4,12-12c0-2.3-0.6-4.5-1.8-6.4l1.3-0.8
					c1.4,2.1,2.1,4.6,2.1,7.2C87,121.5,81,127.5,73.5,127.5z"/>
			</g>
			<g id="XMLID_212_">
				<path fill="#0686D8" d="M81.6,105.2c-0.7-0.6-1.5-1.2-2.3-1.6l0.7-1.3c0.9,0.5,1.8,1.1,2.6,1.9L81.6,105.2z"/>
			</g>
			<g id="XMLID_415_">
				<g id="XMLID_417_">
					<path fill="#0686D8" d="M74.9,119.6h-6.5v-1.5h6.5c0.9,0,1.7-0.7,1.7-1.7c0-0.9-0.7-1.7-1.7-1.7h-2.6c-1.7,0-3.2-1.4-3.2-3.2
						c0-1.7,1.4-3.2,3.2-3.2h6.3v1.5h-6.3c-0.9,0-1.7,0.7-1.7,1.7c0,0.9,0.7,1.7,1.7,1.7h2.6c1.7,0,3.2,1.4,3.2,3.2
						C78.1,118.2,76.7,119.6,74.9,119.6z"/>
				</g>
				<g id="XMLID_416_">
					<rect x="72.8" y="105.3" fill="#0686D8" width="1.5" height="17.6"/>
				</g>
			</g>
			<g id="XMLID_206_">
				<path fill="#5FB0E5" d="M88.5,128.5c0,0,0.5,6.4-3.2,10.1c-3.7,3.7-10.1,3.2-10.1,3.2s-0.5-6.4,3.2-10.1
					C82.1,128,88.5,128.5,88.5,128.5z"/>
			</g>
			<g id="XMLID_198_">
				<path fill="#0686D8" d="M76,142.5c-0.5,0-0.8,0-0.8,0l-0.6,0l0-0.6c0-0.3-0.5-6.8,3.4-10.7c3.9-3.9,10.4-3.4,10.7-3.4l0.6,0
					l0,0.6c0,0.3,0.5,6.8-3.4,10.7C82.7,142.2,77.9,142.5,76,142.5z M87.7,129.2c-1.7,0-6.1,0.3-8.8,3c-2.7,2.7-3,7.1-3,8.8
					c1.7,0,6.1-0.3,8.8-3C87.5,135.3,87.7,130.9,87.7,129.2z"/>
			</g>
			<g id="XMLID_197_">
				<path fill="#5FB0E5" d="M72.2,141.7c0,0,0.5-6.4-3.2-10.1c-3.7-3.7-10.1-3.2-10.1-3.2s-0.5,6.4,3.2,10.1
					C65.8,142.2,72.2,141.7,72.2,141.7z"/>
			</g>
			<g id="XMLID_196_">
				<path fill="#0686D8" d="M71.5,142.5c-1.9,0-6.7-0.3-9.8-3.4c-3.9-3.9-3.4-10.4-3.4-10.7l0-0.6l0.6,0c0.3,0,6.8-0.5,10.7,3.4
					c3.9,3.9,3.4,10.4,3.4,10.7l0,0.6l-0.6,0C72.2,142.5,71.9,142.5,71.5,142.5z M59.7,129.2c0,1.7,0.3,6.1,3,8.8
					c2.7,2.7,7.1,3,8.8,3c0-1.7-0.3-6.1-3-8.8C65.8,129.5,61.4,129.2,59.7,129.2z"/>
			</g>
		</g>
		<g>
			<g id="XMLID_172_">
				<path fill="#5FB0E5" d="M354,155h-63.8c-0.5,0-1-0.4-1-1v-45.3c0-0.5,0.5-1,1-1H354c0.5,0,1,0.5,1,1V154
					C355,154.6,354.5,155,354,155z"/>
			</g>
			<g id="XMLID_171_">
				<rect x="340.5" y="106.9" fill="#0686D8" width="4.5" height="1.5"/>
			</g>
			<g id="XMLID_170_">
				<path fill="#0686D8" d="M353.3,155.8h-62.6c-1.3,0-2.4-1.1-2.4-2.4v-44.1c0-1.3,1.1-2.4,2.4-2.4h46.8v1.5h-46.8
					c-0.5,0-0.9,0.4-0.9,0.9v44.1c0,0.5,0.4,0.9,0.9,0.9h62.6c0.5,0,0.9-0.4,0.9-0.9v-44.1c0-0.5-0.4-0.9-0.9-0.9H347v-1.5h6.4
					c1.3,0,2.4,1.1,2.4,2.4v44.1C355.7,154.7,354.7,155.8,353.3,155.8z"/>
			</g>
			<g id="XMLID_799_">
				<rect x="292.3" y="111.4" fill="#FFFFFF" width="59.1" height="38.4"/>
			</g>
			<g id="XMLID_169_">
				<path fill="#FFFFFF" d="M353.8,157.6h-64.3c-1.5,0-2.9-1.1-3.1-2.6l-0.5-2.8h29.8l1.1,1.6h8.2l1.2-1.6h31.4l-0.4,2.4
					C357.1,156.4,355.6,157.6,353.8,157.6z"/>
			</g>
			<g id="XMLID_168_">
				<path fill="#0686D8" d="M353.8,158.4h-64.3c-1.9,0-3.5-1.4-3.8-3.3l-0.6-3.7h31.1l1.1,1.6h7.5l1.2-1.6h32.6l-0.5,3.3
					C357.8,156.9,356,158.4,353.8,158.4z M286.9,153l0.3,1.9c0.2,1.2,1.2,2,2.4,2h64.3c1.4,0,2.6-1,2.8-2.4l0.3-1.6h-30.1l-1.2,1.6
					h-9l-1.1-1.6H286.9z"/>
			</g>
		</g>
		<g id="XMLID_158_">
			<g id="XMLID_153_">
				<g id="XMLID_166_">
					<rect x="178.6" y="140.2" fill="#0686D8" width="1.5" height="17.4"/>
				</g>
				<g id="XMLID_165_">
					
						<rect x="165.5" y="140.9" transform="matrix(0.8027 0.5964 -0.5964 0.8027 122.3703 -69.5249)" fill="#0686D8" width="1.5" height="18.6"/>
				</g>
				<g id="XMLID_164_">
					
						<rect x="183.4" y="149.4" transform="matrix(0.6374 0.7706 -0.7706 0.6374 185.7569 -94.3339)" fill="#0686D8" width="19.4" height="1.5"/>
				</g>
				<g id="XMLID_163_">
					<rect x="150" y="106.9" fill="#FFFFFF" width="58.8" height="36.9"/>
				</g>
				<g id="XMLID_162_">
					<path fill="#0686D8" d="M209.5,144.6h-60.3v-38.4h60.3V144.6z M150.7,143.1H208v-35.4h-57.3V143.1z"/>
				</g>
				<g id="XMLID_161_">
					<polygon fill="#D2E9F7" points="157,140.6 153.3,140.6 153.3,128.4 157,126.8 					"/>
				</g>
				<g id="XMLID_160_">
					<polygon fill="#9ECFEF" points="160.7,140.6 157,140.6 157,127.3 160.7,124.2 					"/>
				</g>
				<g id="XMLID_157_">
					<polygon fill="#D2E9F7" points="164.4,140.6 160.7,140.6 160.7,124.2 164.4,125.7 					"/>
				</g>
				<g id="XMLID_133_">
					<rect x="164.4" y="125.7" fill="#9ECFEF" width="3.7" height="14.8"/>
				</g>
				<g id="XMLID_132_">
					<rect x="168.1" y="125.7" fill="#D2E9F7" width="3.7" height="14.8"/>
				</g>
				<g id="XMLID_131_">
					<polygon fill="#9ECFEF" points="175.5,140.6 171.8,140.6 171.8,125.7 175.5,122.7 					"/>
				</g>
				<g id="XMLID_130_">
					<polygon fill="#D2E9F7" points="179.2,140.6 175.5,140.6 175.5,124.2 179.2,121.2 					"/>
				</g>
				<g id="XMLID_139_">
					<rect x="179.2" y="122.7" fill="#9ECFEF" width="3.7" height="17.8"/>
				</g>
				<g id="XMLID_129_">
					<rect x="182.9" y="122.7" fill="#D2E9F7" width="3.7" height="17.8"/>
				</g>
				<g id="XMLID_128_">
					<polygon fill="#9ECFEF" points="190.3,140.6 186.6,140.6 186.6,122.7 190.3,121.2 					"/>
				</g>
				<g id="XMLID_143_">
					<polygon fill="#D2E9F7" points="194,140.6 190.3,140.6 190.3,121.2 194,119.7 					"/>
				</g>
				<g id="XMLID_144_">
					<polygon fill="#9ECFEF" points="197.7,140.6 194,140.6 194,119.7 197.7,121.2 					"/>
				</g>
				<g id="XMLID_127_">
					<polygon fill="#D2E9F7" points="201.4,140.6 197.7,140.6 197.7,121.2 201.4,119.7 					"/>
				</g>
				<g id="XMLID_122_">
					<polygon fill="#9ECFEF" points="205.1,140.6 201.4,140.6 201.4,119.7 205.1,115.1 					"/>
				</g>
				<g id="XMLID_148_">
					<polygon fill="#0686D8" points="153.7,129 153,127.7 160.5,123.5 168.1,125.5 179.1,121.1 186,122.3 193.7,118.1 199.3,120.9 
						204.5,114.7 205.7,115.6 199.7,122.8 193.7,119.8 186.2,123.8 179.3,122.6 168.2,127.1 160.7,125.1 					"/>
				</g>
				<g id="XMLID_149_">
					<path fill="#5FB0E5" d="M210.2,109.3h-61.7c-0.5,0-0.9-0.4-0.9-0.9v-4.6c0-0.5,0.4-0.9,0.9-0.9h61.7c0.5,0,0.9,0.4,0.9,0.9v4.6
						C211.1,108.9,210.7,109.3,210.2,109.3z"/>
				</g>
				<g id="XMLID_154_">
					<path fill="#0686D8" d="M209.8,110.1h-60.8c-1.2,0-2.1-0.9-2.1-2.1v-3.7c0-1.2,0.9-2.1,2.1-2.1h8.1v1.5h-8.1
						c-0.3,0-0.6,0.3-0.6,0.6v3.7c0,0.3,0.3,0.6,0.6,0.6h60.8c0.3,0,0.6-0.3,0.6-0.6v-3.7c0-0.3-0.3-0.6-0.6-0.6h-36.9v-1.5h36.9
						c1.2,0,2.1,0.9,2.1,2.1v3.7C211.8,109.2,210.9,110.1,209.8,110.1z"/>
				</g>
				<g id="XMLID_75_">
					<rect x="162.3" y="102.2" fill="#0686D8" width="6.5" height="1.5"/>
				</g>
				<g id="XMLID_31_">
					<rect x="155.4" y="112.4" fill="#0686D8" width="6.9" height="1.5"/>
				</g>
				<g id="XMLID_30_">
					<rect x="155.4" y="115.9" fill="#0686D8" width="6.9" height="1.5"/>
				</g>
				<g id="XMLID_27_">
					<rect x="155.4" y="119.5" fill="#0686D8" width="6.9" height="1.5"/>
				</g>
			</g>
		</g>
		<g opacity="0.3">
			<g>
				<path fill="#0565A2" d="M156.1,136.3c0-2.3-0.9-4.5-2.6-6.1c-1-1-2.1-2.1-3-3.3l-1.3-1.8v17.5h6.9V136.3z"/>
			</g>
			<g>
				<path fill="#0565A2" d="M148,109.9c-0.2-0.9-0.5-1.8-0.9-2.6l-0.3,0.1v0.6C146.8,108.8,147.3,109.5,148,109.9z"/>
			</g>
			<g>
				<path fill="#0565A2" d="M160.1,157.2l0.5,0.4h1.1l5.9-7.9c-0.1-0.7-0.2-1.3-0.5-1.9L160.1,157.2z"/>
			</g>
			<g>
				<path fill="#0565A2" d="M159.9,144.6h3.5c-0.6-0.2-1.1-0.3-1.8-0.3C161.1,144.3,160.5,144.4,159.9,144.6z"/>
			</g>
			<g>
				<path fill="#0565A2" d="M167,139.4c-1.7,0-3,1.4-3,3c0,0.8,0.3,1.6,0.9,2.1h4.3c0.5-0.6,0.9-1.3,0.9-2.1
					C170,140.7,168.7,139.4,167,139.4z"/>
			</g>
			<g>
				<circle fill="#0565A2" cx="160.2" cy="134.5" r="2.3"/>
			</g>
		</g>
		<g id="XMLID_562_">
			<g id="XMLID_553_">
				<g id="XMLID_502_">
					<path fill="#9ECFEF" d="M123.2,141.8h8.6v-18.8l-3.2,4.3c-0.9,1.2-2,2.3-3.1,3.4c-1.5,1.4-2.3,3.4-2.3,5.5V141.8z"/>
				</g>
				<g id="XMLID_479_">
					<path fill="#9ECFEF" d="M153.4,141.8h-8.6v-18.8l3.2,4.3c0.9,1.2,2,2.3,3.1,3.4c1.5,1.4,2.3,3.4,2.3,5.5V141.8z"/>
				</g>
				<g id="XMLID_501_">
					<path fill="#0686D8" d="M154.1,142.6H144v-21.8l4.5,6.1c0.9,1.2,2,2.3,3,3.3c1.6,1.6,2.6,3.8,2.6,6.1V142.6z M145.5,141.1h7.1
						v-4.8c0-1.9-0.8-3.7-2.1-5c-1.1-1-2.2-2.2-3.2-3.5l-1.8-2.5V141.1z"/>
				</g>
				<g id="XMLID_549_">
					<path fill="#0686D8" d="M132.6,142.6h-10.1v-6.3c0-2.3,0.9-4.5,2.6-6.1c1-1,2.1-2.1,3-3.3l4.5-6.1V142.6z M124,141.1h7.1v-15.7
						l-1.8,2.5c-1,1.3-2.1,2.5-3.2,3.5c-1.3,1.3-2.1,3.1-2.1,5V141.1z"/>
				</g>
				<g id="XMLID_498_">
					<path fill="#FFFFFF" d="M145.5,141.8h-14.2v-29.4c0-3.4,1.6-6.7,4.3-8.8l1.3-1c0.9-0.7,2.1-0.7,3,0l1.4,1.1
						c2.6,2,4.2,5.2,4.2,8.5V141.8z"/>
				</g>
				<g id="XMLID_715_" opacity="0.31">
					<path fill="#9ECFEF" d="M138.8,103.7l1.2-1l0,0c-0.9-0.7-2.1-0.7-3,0l-1.3,1c-2.7,2.1-4.3,5.3-4.3,8.8v29.4h3.1v-29.4
						C134.5,109,136,105.8,138.8,103.7z"/>
				</g>
				<g id="XMLID_565_">
					<path fill="#0686D8" d="M146.3,142.6h-15.7v-30.1c0-3.6,1.7-7.1,4.6-9.4l1.3-1c1.2-0.9,2.8-0.9,4,0l1.4,1.1l-0.9,1.2l-1.4-1.1
						c-0.6-0.5-1.5-0.5-2.1,0l-1.3,1c-2.5,1.9-4,5-4,8.2v28.6h12.7v-28.8c0-1.5-0.4-3-1-4.4l1.3-0.7c0.8,1.6,1.2,3.3,1.2,5.1V142.6z
						"/>
				</g>
				<g id="XMLID_491_">
					<path fill="#0686D8" d="M142.9,106.5c-0.2-0.3-0.4-0.5-0.6-0.7l1.1-1c0.2,0.3,0.5,0.6,0.7,0.8L142.9,106.5z"/>
				</g>
				<g id="XMLID_518_">
					<circle fill="#9ECFEF" cx="138.4" cy="115.9" r="2.5"/>
				</g>
				<g id="XMLID_507_">
					<circle fill="#9ECFEF" cx="138.4" cy="124.6" r="2.5"/>
				</g>
				<g id="XMLID_505_">
					<circle fill="#9ECFEF" cx="138.4" cy="133.3" r="2.5"/>
				</g>
				<g id="XMLID_492_">
					<path fill="#0686D8" d="M138.4,119.2c-1.8,0-3.2-1.5-3.2-3.2c0-1.8,1.5-3.2,3.2-3.2c1.8,0,3.2,1.5,3.2,3.2
						C141.7,117.7,140.2,119.2,138.4,119.2z M138.4,114.2c-1,0-1.7,0.8-1.7,1.7c0,1,0.8,1.7,1.7,1.7c1,0,1.7-0.8,1.7-1.7
						C140.2,115,139.4,114.2,138.4,114.2z"/>
				</g>
				<g id="XMLID_493_">
					<path fill="#0686D8" d="M138.4,127.9c-1.8,0-3.2-1.5-3.2-3.2c0-1.8,1.5-3.2,3.2-3.2c1.8,0,3.2,1.5,3.2,3.2
						C141.7,126.4,140.2,127.9,138.4,127.9z M138.4,122.9c-1,0-1.7,0.8-1.7,1.7c0,1,0.8,1.7,1.7,1.7c1,0,1.7-0.8,1.7-1.7
						C140.2,123.7,139.4,122.9,138.4,122.9z"/>
				</g>
				<g id="XMLID_504_">
					<path fill="#0686D8" d="M138.4,136.5c-1.8,0-3.2-1.5-3.2-3.2c0-1.8,1.5-3.2,3.2-3.2c1.8,0,3.2,1.5,3.2,3.2
						C141.7,135.1,140.2,136.5,138.4,136.5z M138.4,131.5c-1,0-1.7,0.8-1.7,1.7c0,1,0.8,1.7,1.7,1.7c1,0,1.7-0.8,1.7-1.7
						C140.2,132.3,139.4,131.5,138.4,131.5z"/>
				</g>
				<g id="XMLID_552_">
					<circle fill="#FFFFFF" cx="165" cy="142.4" r="2.3"/>
				</g>
				<g id="XMLID_551_">
					<circle fill="#FFFFFF" cx="158.2" cy="134.5" r="1.6"/>
				</g>
				<g id="XMLID_550_">
					<circle fill="#FFFFFF" cx="110.2" cy="144.5" r="2.1"/>
				</g>
				<g id="XMLID_548_">
					<circle fill="#FFFFFF" cx="116.5" cy="135.1" r="2.6"/>
				</g>
				<path fill="#FFFFFF" d="M163.8,153.3c0.6-0.9,1-1.9,1-3.1c0-2.9-2.3-5.2-5.2-5.2s-5.2,2.3-5.2,5.2c0,0.1,0,0.2,0,0.3
					c-1.2,0.1-2.2,0.8-2.8,1.8c-0.8-0.6-1.7-0.9-2.8-0.9c-1.4,0-2.6,0.6-3.5,1.6c-0.6-0.6-1.5-0.9-2.4-0.9c-0.2,0-0.4,0-0.6,0.1
					c0-0.2,0.1-0.4,0.1-0.5c0-1.8-1.5-3.3-3.3-3.3c-1.8,0-3.3,1.5-3.3,3.3c0,0.2,0,0.3,0,0.5c-0.5-0.2-1-0.3-1.5-0.3
					c-1.5,0-2.9,0.9-3.6,2.2c-0.5-0.4-1.1-0.7-1.7-0.7c-0.8,0-1.5,0.4-2,1c-0.3-1.7-1.8-3-3.6-3c-0.2,0-0.4,0-0.5,0.1
					c0.2-0.5,0.3-1.1,0.3-1.7c0-3-2.4-5.4-5.4-5.4c-3,0-5.4,2.4-5.4,5.4c0,1.1,0.4,2.2,0.9,3c-2.2,0.6-3.8,2.7-3.8,5.1H166
					C166,155.8,165.1,154.3,163.8,153.3z"/>
				<g id="XMLID_555_">
					<path fill="#0686D8" d="M165,145.5c-1.7,0-3-1.4-3-3c0-1.7,1.4-3,3-3s3,1.4,3,3C168,144.1,166.7,145.5,165,145.5z M165,140.9
						c-0.9,0-1.5,0.7-1.5,1.5c0,0.9,0.7,1.5,1.5,1.5c0.9,0,1.5-0.7,1.5-1.5C166.5,141.6,165.8,140.9,165,140.9z"/>
				</g>
				<g id="XMLID_545_">
					<path fill="#0686D8" d="M158.2,136.8c-1.3,0-2.3-1-2.3-2.3c0-1.3,1-2.3,2.3-2.3c1.3,0,2.3,1,2.3,2.3
						C160.5,135.8,159.5,136.8,158.2,136.8z M158.2,133.7c-0.5,0-0.8,0.4-0.8,0.8s0.4,0.8,0.8,0.8s0.8-0.4,0.8-0.8
						S158.7,133.7,158.2,133.7z"/>
				</g>
				<g id="XMLID_525_">
					<path fill="#0686D8" d="M110.2,147.3c-1.6,0-2.8-1.3-2.8-2.8c0-1.6,1.3-2.8,2.8-2.8c1.6,0,2.8,1.3,2.8,2.8
						C113,146.1,111.8,147.3,110.2,147.3z M110.2,143.2c-0.7,0-1.3,0.6-1.3,1.3c0,0.7,0.6,1.3,1.3,1.3s1.3-0.6,1.3-1.3
						C111.5,143.8,110.9,143.2,110.2,143.2z"/>
				</g>
				<g id="XMLID_544_">
					<path fill="#0686D8" d="M116.5,138.4c-1.8,0-3.3-1.5-3.3-3.3c0-1.8,1.5-3.3,3.3-3.3c1.8,0,3.3,1.5,3.3,3.3
						C119.8,136.9,118.3,138.4,116.5,138.4z M116.5,133.2c-1,0-1.8,0.8-1.8,1.8c0,1,0.8,1.8,1.8,1.8c1,0,1.8-0.8,1.8-1.8
						C118.3,134.1,117.5,133.2,116.5,133.2z"/>
				</g>
				<g id="XMLID_559_">
					<path fill="#0686D8" d="M166.7,157.6h-1.5c0-1.4-0.7-2.8-1.9-3.6l-0.6-0.5l0.5-0.6c0.6-0.8,0.9-1.7,0.9-2.6
						c0-2.4-2-4.4-4.4-4.4c-2.4,0-4.4,2-4.4,4.4c0,0.1,0,0.2,0,0.2l0,0.7l-0.7,0.1c-0.9,0.1-1.7,0.6-2.2,1.4l-0.4,0.7l-0.7-0.5
						c-0.7-0.5-1.5-0.8-2.3-0.8c-1.1,0-2.2,0.5-2.9,1.3l-0.5,0.5l-0.6-0.5c-0.4-0.3-1-0.7-1.9-0.7c-0.1,0-0.3,0-0.4,0l-1,0.2l0.2-1
						c0-0.1,0-0.3,0-0.4c0-1.4-1.1-2.5-2.5-2.5s-2.5,1.1-2.5,2.5c0,0.1,0,0.2,0,0.3l0.2,1.3l-1.2-0.5c-1.5-0.6-3.4,0-4.1,1.5
						l-0.5,0.9l-0.7-0.7c-0.7-0.7-2-0.6-2.6,0.2l-1,1.3l-0.3-1.6c-0.3-1.4-1.5-2.4-2.9-2.4c-0.1,0-0.3,0-0.4,0l-1.2,0.2l0.4-1.2
						c0.2-0.5,0.3-1,0.3-1.5c0-2.5-2.1-4.6-4.6-4.6c-2.5,0-4.6,2.1-4.6,4.6c0,0.9,0.3,1.8,0.8,2.6l0.6,0.9l-1,0.3
						c-2,0.6-3.3,2.3-3.3,4.4h-1.5c0-2.4,1.4-4.5,3.5-5.5c-0.4-0.8-0.6-1.7-0.6-2.6c0-3.4,2.7-6.1,6.1-6.1c3.4,0,6.1,2.7,6.1,6.1
						c0,0.3,0,0.6-0.1,0.9c1.6,0.1,2.9,1.1,3.6,2.5c0.9-0.5,2.2-0.6,3.1-0.1c1.1-1.4,2.8-2.1,4.5-1.8c0.3-2,1.9-3.5,4-3.5
						c2.1,0,3.9,1.7,4,3.8c0.7,0,1.5,0.3,2.1,0.7c1.7-1.5,4.2-1.8,6.2-0.7c0.6-0.7,1.3-1.2,2.2-1.4c0.2-3.1,2.8-5.6,5.9-5.6
						c3.3,0,5.9,2.7,5.9,5.9c0,1-0.3,2-0.8,2.9C166,154.3,166.7,155.9,166.7,157.6z"/>
				</g>
			</g>
		</g>
		<g opacity="0.3">
			<path fill="#0565A2" d="M305.1,157.6h0.8v-32.9c0-2.1-1.7-3.8-3.8-3.8h-13.7v30.6h-3.3l0.6,3.7c0.2,1,0.7,1.8,1.4,2.4
				L305.1,157.6L305.1,157.6z"/>
		</g>
		<g id="XMLID_725_">
			<g id="XMLID_693_">
				<path fill="#9ECFEF" d="M302.1,157.6h-24.5v-35.9h22.5c1.1,0,2,0.9,2,2V157.6z"/>
			</g>
			<g id="XMLID_694_">
				<path fill="#0686D8" d="M302.8,157.6h-1.5v-32.9c0-1.3-1-2.3-2.3-2.3h-16.1v-1.5H299c2.1,0,3.8,1.7,3.8,3.8V157.6z"/>
			</g>
			<g id="XMLID_690_">
				<path fill="#D2E9F7" d="M235,157.6h18.9v-52.1h-16.7c-1.2,0-2.2,1-2.2,2.2V157.6z"/>
			</g>
			<g id="XMLID_726_">
				<rect x="234.2" y="150.4" fill="#0686D8" width="1.5" height="7.2"/>
			</g>
			<g id="XMLID_727_">
				<rect x="234.2" y="136.9" fill="#0686D8" width="1.5" height="6.8"/>
			</g>
			<g id="XMLID_691_">
				<path fill="#0686D8" d="M235.7,132h-1.5v-23.4c0-2.1,1.7-3.9,3.9-3.9h6.3v1.5h-6.3c-1.3,0-2.4,1.1-2.4,2.4V132z"/>
			</g>
			<g id="XMLID_684_">
				<rect x="254.6" y="89.5" fill="#FFFFFF" width="17.6" height="10.8"/>
			</g>
			<g id="XMLID_681_">
				<path fill="#0686D8" d="M273,101h-19.1V88.7H273V101z M255.3,99.5h16.1v-9.3h-16.1V99.5z"/>
			</g>
			<g id="XMLID_682_">
				<path fill="#FFFFFF" d="M277.5,157.6h-28V97c0-0.8,0.6-1.4,1.4-1.4h25.2c0.8,0,1.4,0.6,1.4,1.4V157.6z"/>
			</g>
			<g id="XMLID_683_">
				<path fill="#0686D8" d="M278.3,157.6h-1.5v-60c0-0.7-0.6-1.2-1.2-1.2h-24c-0.7,0-1.2,0.6-1.2,1.2v60h-1.5v-60
					c0-1.5,1.2-2.7,2.7-2.7h24c1.5,0,2.7,1.2,2.7,2.7V157.6z"/>
			</g>
			<g id="XMLID_686_">
				<rect x="262.8" y="80" fill="#0686D8" width="1.5" height="8.8"/>
			</g>
			<g id="XMLID_685_">
				<rect x="255.3" y="102.8" fill="#0686D8" width="1.5" height="51.2"/>
			</g>
			<g id="XMLID_687_">
				<rect x="262.8" y="102.8" fill="#0686D8" width="1.5" height="51.2"/>
			</g>
			<g id="XMLID_688_">
				<rect x="270.3" y="102.8" fill="#0686D8" width="1.5" height="51.2"/>
			</g>
			<g id="XMLID_697_">
				<rect x="239.7" y="113.5" fill="#0686D8" width="6" height="1.5"/>
			</g>
			<g id="XMLID_689_">
				<rect x="239.7" y="118.6" fill="#0686D8" width="6" height="1.5"/>
			</g>
			<g id="XMLID_698_">
				<rect x="239.7" y="123.8" fill="#0686D8" width="6" height="1.5"/>
			</g>
			<g id="XMLID_702_">
				<rect x="239.7" y="128.9" fill="#0686D8" width="6" height="1.5"/>
			</g>
			<g id="XMLID_703_">
				<rect x="239.7" y="134" fill="#0686D8" width="6" height="1.5"/>
			</g>
			<g id="XMLID_704_">
				<rect x="239.7" y="139.2" fill="#0686D8" width="6" height="1.5"/>
			</g>
			<g id="XMLID_705_">
				<rect x="239.7" y="144.3" fill="#0686D8" width="6" height="1.5"/>
			</g>
			<g id="XMLID_706_">
				<rect x="239.7" y="149.5" fill="#0686D8" width="6" height="1.5"/>
			</g>
			<g id="XMLID_707_">
				<g id="XMLID_700_">
					<rect x="281" y="128.9" fill="#0686D8" width="3.8" height="1.5"/>
				</g>
				<g id="XMLID_699_">
					<rect x="287.9" y="128.9" fill="#0686D8" width="3.8" height="1.5"/>
				</g>
				<g id="XMLID_701_">
					<rect x="294.8" y="128.9" fill="#0686D8" width="3.8" height="1.5"/>
				</g>
			</g>
			<g id="XMLID_708_">
				<g id="XMLID_711_">
					<rect x="281" y="134.7" fill="#0686D8" width="3.8" height="1.5"/>
				</g>
				<g id="XMLID_710_">
					<rect x="287.9" y="134.7" fill="#0686D8" width="3.8" height="1.5"/>
				</g>
				<g id="XMLID_709_">
					<rect x="294.8" y="134.7" fill="#0686D8" width="3.8" height="1.5"/>
				</g>
			</g>
			<g id="XMLID_712_">
				<g id="XMLID_716_">
					<rect x="281" y="140.5" fill="#0686D8" width="3.8" height="1.5"/>
				</g>
				<g id="XMLID_714_">
					<rect x="287.9" y="140.5" fill="#0686D8" width="3.8" height="1.5"/>
				</g>
				<g id="XMLID_713_">
					<rect x="294.8" y="140.5" fill="#0686D8" width="3.8" height="1.5"/>
				</g>
			</g>
			<g id="XMLID_717_">
				<g id="XMLID_720_">
					<rect x="281" y="146.3" fill="#0686D8" width="3.8" height="1.5"/>
				</g>
				<g id="XMLID_719_">
					<rect x="287.9" y="146.3" fill="#0686D8" width="3.8" height="1.5"/>
				</g>
				<g id="XMLID_718_">
					<rect x="294.8" y="146.3" fill="#0686D8" width="3.8" height="1.5"/>
				</g>
			</g>
			<g id="XMLID_721_">
				<g id="XMLID_724_">
					<rect x="281" y="152.1" fill="#0686D8" width="3.8" height="1.5"/>
				</g>
				<g id="XMLID_723_">
					<rect x="287.9" y="152.1" fill="#0686D8" width="3.8" height="1.5"/>
				</g>
				<g id="XMLID_722_">
					<rect x="294.8" y="152.1" fill="#0686D8" width="3.8" height="1.5"/>
				</g>
			</g>
		</g>
		<g opacity="0.3">
			<path fill="#0565A2" d="M200.5,144.6h9v-34.5h0.3c1.2,0,2.1-0.9,2.1-2.1v-3.7c0-1.2-0.9-2.1-2.1-2.1h-18.7v1.2v0.8v16.4
				c0,4.1,3.3,7.4,7.4,7.4h2.7l0,1.3h-0.6V144.6z"/>
		</g>
		<g opacity="0.3">
			<path fill="#0565A2" d="M248.8,97.6v7.8h-4.4v-0.8h-6.3c-2.1,0-3.9,1.7-3.9,3.9V132h0.7v4.9h-0.7v6.8h0.7v6.7h-0.7v6.8h3.3v0.4
				h1.5v-26.6h-0.2l0-0.9h1.2c1.1,0,2.1-0.9,2.1-2.1c0,0,0,0,0,0c3.8-0.3,6.8-3.5,6.8-7.4v-16.4v-0.8v-6.3
				C248.8,97.3,248.8,97.4,248.8,97.6z"/>
		</g>
		<g>
			<g id="XMLID_523_">
				<path fill="#5FB0E5" d="M246.1,104.2v-7.4c0-12.3-11.8-22.4-26.1-22.4l0,0c-14.4,0-26.1,10.1-26.1,22.4v7.4h9.3l0.1,53h33.8
					l-0.2-53H246.1z"/>
			</g>
			<g id="XMLID_516_">
				<path fill="#0686D8" d="M194.6,104.2h-1.5v-7.4c0-1.9,0.3-3.7,0.8-5.5l1.4,0.4c-0.5,1.7-0.7,3.4-0.7,5.1V104.2z"/>
			</g>
			<g id="XMLID_515_">
				<path fill="#0686D8" d="M197.1,88.2l-1.3-0.7c1.3-2.3,3-4.3,5-6.1l1,1.1C199.9,84.2,198.3,86.1,197.1,88.2z"/>
			</g>
			<g id="XMLID_514_">
				<path fill="#0686D8" d="M246.8,104.2h-1.5v-7.4c0-12-11.4-21.7-25.4-21.7c-5.2,0-10.2,1.3-14.4,3.9l-0.8-1.3
					c4.5-2.7,9.7-4.1,15.2-4.1c14.8,0,26.9,10.4,26.9,23.2V104.2z"/>
			</g>
			<g id="XMLID_456_">
				<path fill="#FFFFFF" d="M224.9,78.3V67.8c0-2.7-2.2-5-5-5l0,0c-2.7,0-5,2.2-5,5v10.5l5,1.7L224.9,78.3z"/>
			</g>
			<g id="XMLID_454_">
				<path fill="#0686D8" d="M220,80.7l-5.7-1.9V67.8c0-3.2,2.6-5.7,5.7-5.7c3.2,0,5.7,2.6,5.7,5.7v11.1L220,80.7z M215.7,77.8
					l4.2,1.4l4.2-1.4v-10c0-2.3-1.9-4.2-4.2-4.2c-2.3,0-4.2,1.9-4.2,4.2V77.8z"/>
			</g>
			<g id="XMLID_475_">
				<path fill="#D2E9F7" d="M219.5,80.3l-7.1,8.4c-0.3,0.3-0.9,0.2-0.9-0.2l-2.3-12.1l4.6-1.4L219.5,80.3z"/>
			</g>
			<g id="XMLID_457_">
				<path fill="#D2E9F7" d="M220.9,80.3l7.1,8.4c0.3,0.3,0.9,0.2,0.9-0.2l2.9-10.9l-5.3-1.9L220.9,80.3z"/>
			</g>
			<g id="XMLID_497_">
				<path fill="#0686D8" d="M212,89.7c-0.1,0-0.2,0-0.3,0c-0.5-0.1-0.8-0.5-0.9-1l-2.5-12.8l5.7-1.7l6.6,6.1l-7.6,8.9
					C212.7,89.5,212.3,89.7,212,89.7z M209.9,76.9l2.1,11l6.4-7.5l-4.9-4.6L209.9,76.9z"/>
			</g>
			<g id="XMLID_496_">
				<path fill="#0686D8" d="M228.4,89.7c-0.4,0-0.7-0.2-1-0.5l-7.6-9l6.5-5.4l6.4,2.3l-3,11.6c-0.1,0.4-0.5,0.8-0.9,1
					C228.6,89.6,228.5,89.7,228.4,89.7z M222,80.4l6.4,7.5l2.6-9.9l-4.3-1.5L222,80.4z"/>
			</g>
			<g id="XMLID_643_">
				<path fill="#FFFFFF" d="M243.2,52c0,1.4-1.1,2.4-2.4,2.4l0,0c-1.4,0-2.4-1.1-2.4-2.4v-2.4c0-1.4,1.1-2.4,2.4-2.4l0,0
					c1.4,0,2.4,1.1,2.4,2.4V52z"/>
			</g>
			<g id="XMLID_642_">
				<path fill="#0686D8" d="M240.7,55.2c-1.8,0-3.2-1.4-3.2-3.2v-2.4c0-1.8,1.4-3.2,3.2-3.2c1.8,0,3.2,1.4,3.2,3.2V52
					C243.9,53.7,242.5,55.2,240.7,55.2z M240.7,47.9c-0.9,0-1.7,0.8-1.7,1.7V52c0,0.9,0.8,1.7,1.7,1.7c0.9,0,1.7-0.8,1.7-1.7v-2.4
					C242.4,48.7,241.6,47.9,240.7,47.9z"/>
			</g>
			<g id="XMLID_648_">
				<path fill="#FFFFFF" d="M201.6,52c0,1.4-1.1,2.4-2.4,2.4l0,0c-1.4,0-2.4-1.1-2.4-2.4v-2.4c0-1.4,1.1-2.4,2.4-2.4l0,0
					c1.4,0,2.4,1.1,2.4,2.4V52z"/>
			</g>
			<g id="XMLID_607_">
				<path fill="#0686D8" d="M199.2,55.2c-1.8,0-3.2-1.4-3.2-3.2v-2.4c0-1.8,1.4-3.2,3.2-3.2c1.8,0,3.2,1.4,3.2,3.2V52
					C202.4,53.7,201,55.2,199.2,55.2z M199.2,47.9c-0.9,0-1.7,0.8-1.7,1.7V52c0,0.9,0.8,1.7,1.7,1.7c0.9,0,1.7-0.8,1.7-1.7v-2.4
					C200.9,48.7,200.1,47.9,199.2,47.9z"/>
			</g>
			<g id="XMLID_604_">
				<path fill="#FFFFFF" d="M219.6,73.1L219.6,73.1c-10.7,0-19.5-8.8-19.5-19.5V40.3c0-10.7,8.8-17.6,19.5-17.6l0,0
					c10.7,0,19.5,6.8,19.5,17.6v13.2C239.1,64.3,230.3,73.1,219.6,73.1z"/>
			</g>
			<g id="XMLID_603_">
				<path fill="#0686D8" d="M219.6,73.8c-11.2,0-20.3-9.1-20.3-20.3V40.3c0-10.6,8.5-18.3,20.3-18.3s20.3,7.7,20.3,18.3v13.2
					C239.9,64.7,230.8,73.8,219.6,73.8z M219.6,23.5c-10.9,0-18.8,7.1-18.8,16.8v13.2c0,10.4,8.4,18.8,18.8,18.8
					c10.4,0,18.8-8.4,18.8-18.8V40.3C238.4,30.6,230.5,23.5,219.6,23.5z"/>
			</g>
			<g id="XMLID_595_">
				<polygon fill="#0686D8" points="222.5,57.9 217.1,57.9 217.1,48.8 218.6,48.8 218.6,56.4 222.5,56.4 				"/>
			</g>
			<g id="XMLID_594_">
				<polygon fill="#0686D8" points="223.6,66 212.2,66 212.2,64.5 223,64.5 226,61.6 227,62.6 				"/>
			</g>
			<g id="XMLID_597_">
				<path fill="#5FB0E5" d="M228.9,21.3c0,0-3.4,17.6,8.7,25.6c0.5,0.3,3.7,0,3.7,0S246.5,11.7,228.9,21.3z"/>
			</g>
			<g id="XMLID_592_">
				<path fill="#0686D8" d="M237.8,47.9c-0.3,0-0.5-0.1-0.6-0.2c-12.4-8.6-9.2-27-9-27.8l0.1-0.5l0.5-0.1c4-1.1,7.3-0.5,9.6,1.7
					c6.8,6.4,3.3,24.3,3.1,25l-0.1,0.3l-0.3,0.2C239.3,47.7,238.3,47.9,237.8,47.9z M229.6,20.7c-0.4,2.9-2.1,18.4,8.3,25.7
					c0.4-0.1,1.2-0.4,2.1-0.9c0.4-2.5,3-17.9-2.7-23.3C235.5,20.5,232.9,20,229.6,20.7z"/>
			</g>
			<g id="XMLID_183_">
				<path fill="#5FB0E5" d="M228.1,20.4c0,0,5.6,15.3-30.9,29.1l0.1-12.3c0.1-6.5,3.6-12.5,9.4-15.7l0,0c5.5-3,11.9-3.8,18-2.1
					L228.1,20.4z"/>
			</g>
			<g id="XMLID_596_">
				<path fill="#0686D8" d="M197.3,50.3c-0.2,0-0.3-0.1-0.5-0.2c-0.2-0.2-0.4-0.4-0.4-0.7l0.1-12.1c0.1-6.8,3.8-13.1,9.8-16.3
					c5.7-3.1,12.3-3.9,18.5-2.2l3.8,1l0.1,0.4c0.2,0.7,5.4,16.2-31.2,30C197.5,50.3,197.4,50.3,197.3,50.3z M218.2,19.4
					c-3.9,0-7.7,1-11.2,2.9c-5.5,3-8.9,8.8-9,15l-0.1,11.2c31.3-12.1,30-25.1,29.5-27.4l-3-0.8C222.4,19.7,220.3,19.4,218.2,19.4z"
					/>
			</g>
			<g id="XMLID_181_">
				<path fill="#0686D8" d="M213.6,47.5c-0.9-0.9-2.1-1.4-3.3-1.4c-1.3,0-2.4,0.5-3.3,1.4l-1.1-1.1c1.2-1.2,2.7-1.8,4.4-1.8
					c1.7,0,3.2,0.6,4.4,1.8L213.6,47.5z"/>
			</g>
			<g id="XMLID_179_">
				<path fill="#0686D8" d="M232.4,47.5c-0.9-0.9-2.1-1.4-3.3-1.4s-2.4,0.5-3.3,1.4l-1.1-1.1c1.2-1.2,2.7-1.8,4.4-1.8
					c1.7,0,3.2,0.6,4.4,1.8L232.4,47.5z"/>
			</g>
			<g>
				<path fill="#FFFFFF" d="M210.7,127.2v-8.4l26.2-0.2v-14.5h9.3v16.4c0,3.7-3,6.6-6.6,6.6H210.7z"/>
			</g>
			<g>
				<path fill="#0686D8" d="M239.5,128h-29.6v-9.9l26.2-0.2v-14.5h10.8v17.2C246.8,124.7,243.5,128,239.5,128z M211.4,126.5h28.1
					c3.2,0,5.9-2.6,5.9-5.9v-15.7h-7.8v14.5l-26.2,0.2V126.5z"/>
			</g>
			<g>
				<rect x="235.5" y="130.9" fill="#0686D8" width="1.5" height="26.6"/>
			</g>
			<g>
				<rect x="202.5" y="129.3" fill="#0686D8" width="1.5" height="28.3"/>
			</g>
			<g>
				<path fill="#FFFFFF" d="M229.3,127.2v-8.4l-26.2-0.2v-14.5h-9.3v16.4c0,3.7,3,6.6,6.6,6.6H229.3z"/>
			</g>
			<g>
				<path fill="#0686D8" d="M230,128h-29.6c-4.1,0-7.4-3.3-7.4-7.4v-17.2h10.8v14.5l26.2,0.2V128z M194.6,104.9v15.7
					c0,3.2,2.6,5.9,5.9,5.9h28.1v-6.9l-26.2-0.2v-14.5H194.6z"/>
			</g>
			<g>
				<g id="XMLID_205_">
					<path fill="#FFFFFF" d="M240.9,121.5h-0.5c0.7,0,1.3-0.6,1.3-1.3c0-0.7-0.6-1.3-1.3-1.3h-5h-3.2c0,0,1.1-2.7,1.1-4
						c0-0.6,0.1-1.8-0.2-2.3c-0.1-0.2-1.2-0.2-1.3,0c0,0-1,3.1-1.6,4c-0.4,0.5-1.8,2.4-1.8,2.4h-2.2l-1.2,8.4h2.8
						c0.3,0,0.6,0.1,0.8,0.3l1.3,1.3c0.2,0.2,0.6,0.4,0.9,0.4h7.4c0.7,0,1.3-0.6,1.3-1.3c0-0.7-0.6-1.3-1.3-1.3h1.4
						c0.7,0,1.3-0.6,1.3-1.3c0-0.7-0.6-1.3-1.3-1.3h1.4c0.7,0,1.3-0.6,1.3-1.3S241.6,121.5,240.9,121.5z"/>
				</g>
				<g id="XMLID_204_">
					<path fill="#F1F2F2" d="M232.3,117.8h0.4c0.3-0.9,0.7-2.2,0.7-2.9c0-0.3,0-0.9,0-1.4c0,0.1,0,0.2,0,0.3
						C233.3,115.1,232.3,117.8,232.3,117.8z"/>
				</g>
				<g id="XMLID_202_">
					<path fill="#0686D8" d="M240.8,124.8h-2.2v-1.5h2.2c0.3,0,0.6-0.2,0.6-0.6c0-0.3-0.2-0.6-0.6-0.6h-2.2v-1.5h2.2
						c1.1,0,2.1,0.9,2.1,2.1C242.8,123.9,241.9,124.8,240.8,124.8z"/>
				</g>
				<g id="XMLID_201_">
					<path fill="#0686D8" d="M239.4,127.4h-3.1v-1.5h3.1c0.3,0,0.6-0.2,0.6-0.6c0-0.3-0.2-0.6-0.6-0.6h-3.1v-1.5h3.1
						c1.1,0,2.1,0.9,2.1,2.1C241.4,126.5,240.5,127.4,239.4,127.4z"/>
				</g>
				<g id="XMLID_200_">
					<path fill="#0686D8" d="M238,130h-7.4c-0.5,0-1.1-0.2-1.4-0.6l-1.3-1.3c-0.1-0.1-0.1-0.1-0.2-0.1h-2.8v-1.5h2.8
						c0.5,0,1,0.2,1.3,0.5l1.3,1.3c0.1,0.1,0.2,0.1,0.4,0.1h7.4c0.3,0,0.6-0.2,0.6-0.6c0-0.3-0.2-0.6-0.6-0.6h-1.2v-1.5h1.2
						c1.1,0,2.1,0.9,2.1,2.1C240.1,129.1,239.2,130,238,130z"/>
				</g>
				<g id="XMLID_199_">
					<path fill="#0686D8" d="M240.2,122.2h-4v-1.5h4c0.3,0,0.6-0.2,0.6-0.6c0-0.3-0.2-0.6-0.6-0.6H231l0.4-1c0.3-0.7,1-2.8,1-3.7
						c0-0.1,0-0.3,0-0.4c0-0.3,0-1-0.1-1.3c-0.1,0-0.1,0-0.2,0c-0.3,0.9-1,3-1.6,3.8c-0.4,0.5-1.8,2.4-1.8,2.4l-0.2,0.3H226v-1.5
						h1.8c0.4-0.5,1.3-1.7,1.6-2.1c0.4-0.6,1.2-2.6,1.5-3.8l0.1-0.2c0.2-0.3,0.7-0.5,1.3-0.5c0,0,0,0,0,0c0.6,0,1.1,0.2,1.3,0.5
						c0.4,0.7,0.4,1.6,0.4,2.4c0,0.1,0,0.3,0,0.4c0,0.9-0.4,2.3-0.8,3.2h7c1.1,0,2.1,0.9,2.1,2.1S241.4,122.2,240.2,122.2z"/>
				</g>
			</g>
		</g>
		<g id="XMLID_386_">
			<g id="XMLID_409_">
				<g id="XMLID_401_">
					<path fill="#0686D8" d="M308.7,136.3c-11.4-2.7-9.9-11.6-9.9-11.7l0.1-0.6h7.7v1.5h-6.4c-0.1,1.9,0.4,7.3,8.8,9.4L308.7,136.3z
						"/>
				</g>
				<g id="XMLID_404_">
					<path fill="#0686D8" d="M329.1,136.3l-0.3-1.5c8.4-2,8.9-7.5,8.8-9.4h-6.4V124h7.7l0.1,0.6C339,124.7,340.5,133.6,329.1,136.3z
						"/>
				</g>
				<g id="XMLID_361_">
					<path fill="#D2E9F7" d="M331.3,126.6c0-1.8-0.3-3.5-0.8-5.1h-23.1c-0.5,1.6-0.8,3.3-0.8,5.1c0,7.4,4.8,14.7,11,15.7v9.9h2.8
						v-9.9C326.5,141.3,331.3,133.9,331.3,126.6z"/>
				</g>
				<g id="XMLID_405_">
					<path fill="#FFFFFF" d="M318.1,142.3c-5.7-1.5-7-8.7-7-15.7c0-1.8,0.3-3.5,0.8-5.1h-2.8c-0.5,1.6-0.8,3.3-0.8,5.1
						c0,7.4,2.9,14.7,9.1,15.7C317.5,142.3,317.9,142.4,318.1,142.3z"/>
				</g>
				<g id="XMLID_410_">
					<rect x="313.3" y="120.7" fill="#0686D8" width="2.3" height="1.5"/>
				</g>
				<g id="XMLID_363_">
					<path fill="#0686D8" d="M321.1,152.9h-4.3v-10c-6.1-1.4-11-8.6-11-16.3c0-1.8,0.3-3.6,0.9-5.3l0.2-0.5h4.4v1.5h-3.3
						c-0.4,1.4-0.6,2.9-0.6,4.3c0,7.2,4.7,14.1,10.3,15l0.6,0.1v9.7h1.3v-9.7l0.6-0.1c5.6-0.9,10.3-7.8,10.3-15
						c0-1.5-0.2-2.9-0.6-4.3H317v-1.5h14l0.2,0.5c0.6,1.7,0.9,3.5,0.9,5.3c0,7.8-4.9,14.9-11,16.3V152.9z"/>
				</g>
				<g id="XMLID_167_">
					<rect x="316" y="144.6" fill="#0686D8" width="5.8" height="1.5"/>
				</g>
				<g id="XMLID_403_">
					<rect x="316" y="146.8" fill="#0686D8" width="5.8" height="1.5"/>
				</g>
				<g id="XMLID_396_">
					<path fill="#9ECFEF" d="M326.1,157.5h-14.4v-5.3c0-0.6,0.5-1.1,1.1-1.1H325c0.6,0,1.1,0.5,1.1,1.1V157.5z"/>
				</g>
				<g id="XMLID_407_">
					<path fill="#0686D8" d="M326.8,158.2h-15.9v-6.1c0-1,0.8-1.8,1.8-1.8H325c1,0,1.8,0.8,1.8,1.8V158.2z M312.4,156.7h12.9v-4.6
						c0-0.2-0.2-0.3-0.3-0.3h-12.3c-0.2,0-0.3,0.2-0.3,0.3V156.7z"/>
				</g>
				<g id="XMLID_393_">
					<rect x="315" y="152.2" fill="#FFFFFF" width="7.8" height="3.1"/>
				</g>
				<g id="XMLID_379_">
					<rect x="317" y="153" fill="#0686D8" width="3.6" height="1.5"/>
				</g>
				<g id="XMLID_408_">
					<rect x="308.9" y="156.7" fill="#0686D8" width="19.6" height="1.5"/>
				</g>
			</g>
		</g>
		<g>
			<g id="XMLID_489_">
				<g id="XMLID_521_">
					<path fill="#D2E9F7" d="M116.3,153.7H86.1c-1.1,0-1.9-0.9-1.9-1.9v-14c0-1.1,0.9-1.9,1.9-1.9h30.2c1.1,0,1.9,0.9,1.9,1.9v14
						C118.2,152.9,117.4,153.7,116.3,153.7z"/>
				</g>
				<g id="XMLID_520_">
					<path fill="#0686D8" d="M118.3,153.6l-1.1-1c0.2-0.2,0.3-0.5,0.3-0.7v-14.2c0-0.6-0.5-1.1-1.1-1.1H86c-0.3,0-0.6,0.1-0.9,0.4
						l-1.2-1c0.5-0.6,1.2-0.9,2-0.9h30.3c1.4,0,2.6,1.2,2.6,2.6v14.2C119,152.5,118.7,153.2,118.3,153.6z"/>
				</g>
				<g id="XMLID_519_">
					<circle fill="#FFFFFF" cx="101.3" cy="144.7" r="6"/>
				</g>
				<g id="XMLID_194_">
					<circle fill="#FFFFFF" cx="110.7" cy="144.5" r="1.6"/>
				</g>
				<g id="XMLID_508_">
					<circle fill="#FFFFFF" cx="91.5" cy="144.5" r="1.6"/>
				</g>
				<g id="XMLID_500_">
					<path fill="#0686D8" d="M101.3,151.5c0,0-0.1,0-0.1,0c-1.8,0-3.5-0.8-4.8-2.1c-1.3-1.3-1.9-3-1.9-4.8c0.1-3.7,3.1-6.7,6.9-6.6
						c3.7,0.1,6.7,3.2,6.6,6.9C108,148.5,104.9,151.5,101.3,151.5z M101.3,139.4c-1.4,0-2.7,0.5-3.7,1.5c-1,1-1.6,2.3-1.6,3.7
						c0,1.4,0.5,2.7,1.5,3.8c1,1,2.3,1.6,3.7,1.6c1.4,0,2.7-0.5,3.8-1.5c1-1,1.6-2.3,1.6-3.7c0-1.4-0.5-2.7-1.5-3.8
						c-1-1-2.3-1.6-3.7-1.6C101.3,139.4,101.3,139.4,101.3,139.4z"/>
				</g>
				<g id="XMLID_192_">
					<g id="XMLID_499_">
						<path fill="#0686D8" d="M101.9,147.7h-3.1v-1.5h3.1c0.2,0,0.4-0.2,0.4-0.4c0-0.2-0.2-0.4-0.4-0.4h-1.2c-1,0-1.9-0.8-1.9-1.9
							c0-1,0.8-1.9,1.9-1.9h3v1.5h-3c-0.2,0-0.4,0.2-0.4,0.4c0,0.2,0.2,0.4,0.4,0.4h1.2c1,0,1.9,0.8,1.9,1.9
							C103.8,146.9,103,147.7,101.9,147.7z"/>
					</g>
					<g id="XMLID_193_">
						<rect x="100.5" y="140.5" fill="#0686D8" width="1.5" height="8.3"/>
					</g>
				</g>
				<g id="XMLID_495_">
					<path fill="#0686D8" d="M112.1,151.6H109v-1.5h2.7c0.3-1.6,1.6-2.9,3.2-3.2v-4.5c-1.6-0.3-2.9-1.6-3.2-3.2h-2.2v-1.5h2.6
						c0.5,0,1,0.4,1,0.9c0.1,1.2,1.1,2.2,2.3,2.3c0.5,0,1,0.5,1,1v5.3c0,0.5-0.4,1-1,1c-1.2,0.1-2.2,1.1-2.3,2.3
						C113.1,151.2,112.7,151.6,112.1,151.6z"/>
				</g>
				<g id="XMLID_494_">
					<path fill="#0686D8" d="M93.1,151.6H90c-0.5,0-1-0.4-1-1c-0.1-1.2-1.1-2.2-2.3-2.3c-0.5,0-1-0.5-1-1V142c0-0.5,0.4-1,1-1
						c1.2-0.1,2.2-1.1,2.3-2.3c0-0.5,0.5-0.9,1-0.9h2.6v1.5h-2.2c-0.3,1.6-1.6,2.9-3.2,3.2v4.5c1.6,0.3,2.9,1.6,3.2,3.2h2.7V151.6z"
						/>
				</g>
			</g>
			<g id="XMLID_469_">
				<g id="XMLID_488_">
					<path fill="#D2E9F7" d="M114.4,155.6H84.2c-1.1,0-1.9-0.9-1.9-1.9v-14c0-1.1,0.9-1.9,1.9-1.9h30.2c1.1,0,1.9,0.9,1.9,1.9v14
						C116.3,154.8,115.4,155.6,114.4,155.6z"/>
				</g>
				<g id="XMLID_487_">
					<path fill="#0686D8" d="M116.4,155.5l-1.1-1c0.2-0.2,0.3-0.5,0.3-0.7v-14.2c0-0.6-0.5-1.1-1.1-1.1H84.1c-0.3,0-0.6,0.1-0.9,0.4
						l-1.2-1c0.5-0.6,1.2-0.9,2-0.9h30.3c1.4,0,2.6,1.2,2.6,2.6v14.2C117.1,154.4,116.8,155.1,116.4,155.5z"/>
				</g>
				<g id="XMLID_486_">
					<circle fill="#FFFFFF" cx="99.3" cy="146.6" r="6"/>
				</g>
				<g id="XMLID_485_">
					<circle fill="#FFFFFF" cx="108.8" cy="146.4" r="1.6"/>
				</g>
				<g id="XMLID_484_">
					<circle fill="#FFFFFF" cx="89.6" cy="146.4" r="1.6"/>
				</g>
				<g id="XMLID_483_">
					<path fill="#0686D8" d="M99.3,153.4c0,0-0.1,0-0.1,0c-3.7-0.1-6.7-3.2-6.6-6.9c0.1-3.7,3.1-6.7,6.9-6.6
						c3.7,0.1,6.7,3.2,6.6,6.9C106.1,150.4,103,153.4,99.3,153.4z M99.3,141.3c-1.4,0-2.7,0.5-3.7,1.5c-1,1-1.6,2.3-1.6,3.7
						c0,1.4,0.5,2.7,1.5,3.8c1,1,2.3,1.6,3.7,1.6c0,0,0.1,0,0.1,0c2.9,0,5.2-2.3,5.3-5.2c0.1-2.9-2.3-5.3-5.2-5.4
						C99.4,141.3,99.4,141.3,99.3,141.3z"/>
				</g>
				<g id="XMLID_480_">
					<g id="XMLID_482_">
						<path fill="#0686D8" d="M100,149.6h-3.1v-1.5h3.1c0.2,0,0.4-0.2,0.4-0.4c0-0.2-0.2-0.4-0.4-0.4h-1.2c-1,0-1.9-0.8-1.9-1.9
							c0-1,0.8-1.9,1.9-1.9h3v1.5h-3c-0.2,0-0.4,0.2-0.4,0.4c0,0.2,0.2,0.4,0.4,0.4h1.2c1,0,1.9,0.8,1.9,1.9
							C101.9,148.8,101.1,149.6,100,149.6z"/>
					</g>
					<g id="XMLID_481_">
						<rect x="98.6" y="142.4" fill="#0686D8" width="1.5" height="8.3"/>
					</g>
				</g>
				<g id="XMLID_476_">
					<path fill="#0686D8" d="M110.2,153.5h-3.1V152h2.7c0.3-1.6,1.6-2.9,3.2-3.2v-4.5c-1.6-0.3-2.9-1.6-3.2-3.2h-2.2v-1.5h2.6
						c0.5,0,1,0.4,1,0.9c0.1,1.2,1.1,2.2,2.3,2.3c0.5,0,1,0.5,1,1v5.3c0,0.5-0.4,1-1,1c-1.2,0.1-2.2,1.1-2.3,2.3
						C111.2,153.1,110.7,153.5,110.2,153.5z"/>
				</g>
				<g id="XMLID_472_">
					<path fill="#0686D8" d="M91.2,153.5h-3.1c-0.5,0-1-0.4-1-1c-0.1-1.2-1.1-2.2-2.3-2.3c-0.5,0-1-0.5-1-1v-5.3c0-0.5,0.4-1,1-1
						c1.2-0.1,2.2-1.1,2.3-2.3c0-0.5,0.5-0.9,1-0.9h2.6v1.5h-2.2c-0.3,1.6-1.6,2.9-3.2,3.2v4.5c1.6,0.3,2.9,1.6,3.2,3.2h2.7V153.5z"
						/>
				</g>
			</g>
			<g id="XMLID_440_">
				<g id="XMLID_191_">
					<path fill="#D2E9F7" d="M112.5,157.6H82.3c-1.1,0-1.9-0.9-1.9-1.9v-14c0-1.1,0.9-1.9,1.9-1.9h30.2c1.1,0,1.9,0.9,1.9,1.9v14
						C114.4,156.7,113.5,157.6,112.5,157.6z"/>
				</g>
				<g id="XMLID_490_">
					<rect x="88.1" y="156.8" fill="#0686D8" width="3.4" height="1.5"/>
				</g>
				<g id="XMLID_424_">
					<path fill="#0686D8" d="M112.5,158.3H94.1v-1.5h18.4c0.7,0,1.2-0.5,1.2-1.2v-14c0-0.7-0.5-1.2-1.2-1.2H82.3
						c-0.7,0-1.2,0.5-1.2,1.2v14c0,0.7,0.5,1.2,1.2,1.2H85v1.5h-2.7c-1.5,0-2.7-1.2-2.7-2.7v-14c0-1.5,1.2-2.7,2.7-2.7h30.2
						c1.5,0,2.7,1.2,2.7,2.7v14C115.1,157.1,113.9,158.3,112.5,158.3z"/>
				</g>
				<g id="XMLID_190_">
					<circle fill="#FFFFFF" cx="97.4" cy="148.5" r="6"/>
				</g>
				<g id="XMLID_189_">
					<circle fill="#FFFFFF" cx="106.8" cy="148.3" r="1.6"/>
				</g>
				<g id="XMLID_438_">
					<circle fill="#FFFFFF" cx="87.7" cy="148.3" r="1.6"/>
				</g>
				<g id="XMLID_188_">
					<path fill="#0686D8" d="M97.4,155.3c0,0-0.1,0-0.1,0c-3.7-0.1-6.7-3.2-6.6-6.9c0.1-3.7,3.2-6.7,6.9-6.6
						c3.7,0.1,6.7,3.2,6.6,6.9c0,1.8-0.8,3.5-2.1,4.8C100.9,154.6,99.2,155.3,97.4,155.3z M97.4,143.2c-1.4,0-2.7,0.5-3.7,1.5
						c-1,1-1.6,2.3-1.6,3.7c0,1.4,0.5,2.7,1.5,3.8c1,1,2.3,1.6,3.7,1.6c1.4,0.1,2.7-0.5,3.8-1.5c1-1,1.6-2.3,1.6-3.7
						c0-1.4-0.5-2.7-1.5-3.8c-1-1-2.3-1.6-3.7-1.6C97.5,143.2,97.5,143.2,97.4,143.2z"/>
				</g>
				<g id="XMLID_184_">
					<g id="XMLID_187_">
						<path fill="#0686D8" d="M98.1,151.6H95v-1.5h3.1c0.2,0,0.4-0.2,0.4-0.4c0-0.2-0.2-0.4-0.4-0.4h-1.2c-1,0-1.9-0.8-1.9-1.9
							c0-1,0.8-1.9,1.9-1.9h3v1.5h-3c-0.2,0-0.4,0.2-0.4,0.4c0,0.2,0.2,0.4,0.4,0.4h1.2c1,0,1.9,0.8,1.9,1.9
							C100,150.7,99.1,151.6,98.1,151.6z"/>
					</g>
					<g id="XMLID_185_">
						<rect x="96.7" y="144.3" fill="#0686D8" width="1.5" height="8.3"/>
					</g>
				</g>
				<g id="XMLID_439_">
					<path fill="#0686D8" d="M108.3,155.4h-3.1v-1.5h2.7c0.3-1.6,1.6-2.9,3.2-3.2v-4.5c-1.6-0.3-2.9-1.6-3.2-3.2h-2.2v-1.5h2.6
						c0.5,0,1,0.4,1,0.9c0.1,1.2,1.1,2.2,2.3,2.3c0.5,0,1,0.5,1,1v5.3c0,0.5-0.4,1-1,1c-1.2,0.1-2.2,1.1-2.3,2.3
						C109.3,155,108.8,155.4,108.3,155.4z"/>
				</g>
				<g id="XMLID_177_">
					<path fill="#0686D8" d="M89.3,155.4h-3.1c-0.5,0-1-0.4-1-1c-0.1-1.2-1.1-2.2-2.3-2.3c-0.5,0-1-0.5-1-1v-5.3c0-0.5,0.4-1,1-1
						c1.2-0.1,2.2-1.1,2.3-2.3c0-0.5,0.5-0.9,1-0.9h2.6v1.5h-2.2c-0.3,1.6-1.6,2.9-3.2,3.2v4.5c1.6,0.3,2.9,1.6,3.2,3.2h2.7V155.4z"
						/>
				</g>
			</g>
		</g>
		<g>
			<g id="XMLID_535_">
				<path fill="#D2E9F7" d="M305.8,93.7L305.8,93.7c-0.5-1.3-1.6-2.2-3-2.2c-0.6,0-1.2,0.2-1.7,0.5c-0.3-2-2-3.5-4.1-3.5
					c-1.9,0-3.5,1.2-4,2.9c-0.2-0.1-0.5-0.1-0.7-0.1c-1.4,0-2.6,1.1-2.8,2.4h-0.5c-1.2,0-2.1,1-2.1,2.1V96c0,1.2,1,2.1,2.1,2.1h16.9
					c1.2,0,2.1-1,2.1-2.1v-0.2C307.9,94.6,307,93.7,305.8,93.7z"/>
			</g>
			<g id="XMLID_174_">
				<path fill="#FFFFFF" d="M303.8,94.2L303.8,94.2c-0.4-1.1-1.4-1.9-2.7-1.9c-0.5,0-1,0.2-1.5,0.4c-0.3-1.8-1.8-3.1-3.6-3.1
					c-1.7,0-3.1,1.1-3.5,2.6c-0.2-0.1-0.4-0.1-0.7-0.1c-1.3,0-2.3,0.9-2.5,2.1h-0.4c-1,0-1.9,0.9-1.9,1.9v0.1c0,1,0.9,1.9,1.9,1.9
					h14.9c1,0,1.9-0.9,1.9-1.9v-0.1C305.7,95.1,304.8,94.2,303.8,94.2z"/>
			</g>
			<g id="XMLID_533_">
				<path fill="#0686D8" d="M299.1,92c-0.5-0.8-1.4-1.3-2.3-1.3c-0.5,0-1,0.1-1.4,0.4l-0.8-1.3c0.7-0.4,1.4-0.6,2.2-0.6
					c1.4,0,2.8,0.7,3.6,1.9L299.1,92z"/>
			</g>
			<g id="XMLID_176_">
				<path fill="#0686D8" d="M305.8,98.9h-16.9c-1.6,0-2.9-1.3-2.9-2.9v-0.2c0-1.6,1.2-2.8,2.8-2.9c0.5-1.5,2-2.5,3.7-2.4
					c0.1-0.1,0.1-0.2,0.2-0.3c0.2-0.3,0.3-0.5,0.5-0.8c0.9-1.1,2.3-1.8,3.8-1.8c2.1,0,3.9,1.3,4.6,3.2c0.4-0.1,0.8-0.2,1.1-0.2
					c1.5,0,2.9,0.9,3.5,2.3c1.4,0.2,2.4,1.4,2.4,2.9V96C308.7,97.6,307.4,98.9,305.8,98.9z M288.9,94.4c-0.8,0-1.4,0.6-1.4,1.4V96
					c0,0.8,0.6,1.4,1.4,1.4h16.9c0.8,0,1.4-0.6,1.4-1.4v-0.2c0-0.8-0.6-1.4-1.4-1.4h-0.6l-0.2-0.5c-0.3-1-1.2-1.7-2.2-1.7
					c-0.4,0-0.9,0.1-1.2,0.4l-1,0.6l-0.2-1.1c-0.3-1.7-1.7-2.9-3.4-2.9c-1,0-2,0.4-2.6,1.2c-0.1,0.2-0.3,0.3-0.4,0.5
					c-0.1,0.2-0.2,0.4-0.3,0.7l-0.2,0.7l-0.7-0.2c-1.3-0.3-2.5,0.5-2.6,1.7l-0.1,0.6H288.9z"/>
			</g>
			<g id="XMLID_531_">
				<path fill="#0686D8" d="M294.5,92.7H293c0-0.4-0.3-0.7-0.7-0.7v-1.5C293.5,90.5,294.5,91.5,294.5,92.7z"/>
			</g>
		</g>
		<g>
			<g id="XMLID_232_">
				<path fill="#D2E9F7" d="M127.5,95.1L127.5,95.1c-0.5-1.3-1.6-2.2-3-2.2c-0.6,0-1.2,0.2-1.7,0.5c-0.3-2-2-3.5-4.1-3.5
					c-1.9,0-3.5,1.2-4,2.9c-0.2-0.1-0.5-0.1-0.7-0.1c-1.4,0-2.6,1.1-2.8,2.4h-0.5c-1.2,0-2.1,1-2.1,2.1v0.2c0,1.2,1,2.1,2.1,2.1
					h16.9c1.2,0,2.1-1,2.1-2.1v-0.2C129.7,96.1,128.7,95.1,127.5,95.1z"/>
			</g>
			<g id="XMLID_231_">
				<path fill="#FFFFFF" d="M125.5,95.7L125.5,95.7c-0.4-1.1-1.4-1.9-2.7-1.9c-0.5,0-1,0.2-1.5,0.4c-0.3-1.8-1.8-3.1-3.6-3.1
					c-1.7,0-3.1,1.1-3.5,2.6c-0.2-0.1-0.4-0.1-0.7-0.1c-1.3,0-2.3,0.9-2.5,2.1h-0.4c-1,0-1.9,0.9-1.9,1.9v0.1c0,1,0.9,1.9,1.9,1.9
					h14.9c1,0,1.9-0.9,1.9-1.9v-0.1C127.4,96.5,126.6,95.7,125.5,95.7z"/>
			</g>
			<g id="XMLID_230_">
				<path fill="#0686D8" d="M120.8,93.5c-0.5-0.8-1.4-1.2-2.3-1.2c-0.5,0-1,0.1-1.4,0.4l-0.8-1.3c0.7-0.4,1.4-0.6,2.2-0.6
					c1.4,0,2.8,0.7,3.6,1.9L120.8,93.5z"/>
			</g>
			<g id="XMLID_229_">
				<path fill="#0686D8" d="M127.5,100.4h-16.9c-1.6,0-2.9-1.3-2.9-2.9v-0.2c0-1.6,1.2-2.8,2.8-2.9c0.5-1.5,2-2.5,3.7-2.4
					c0.1-0.1,0.1-0.2,0.2-0.3c0.2-0.3,0.3-0.5,0.5-0.8c0.9-1.1,2.3-1.8,3.8-1.8c2.1,0,3.9,1.3,4.6,3.2c0.4-0.1,0.8-0.2,1.1-0.2
					c1.5,0,2.9,0.9,3.5,2.3c1.4,0.2,2.4,1.4,2.4,2.9v0.2C130.4,99.1,129.1,100.4,127.5,100.4z M110.7,95.9c-0.8,0-1.4,0.6-1.4,1.4
					v0.2c0,0.8,0.6,1.4,1.4,1.4h16.9c0.8,0,1.4-0.6,1.4-1.4v-0.2c0-0.8-0.6-1.4-1.4-1.4H127l-0.2-0.5c-0.3-1-1.2-1.7-2.2-1.7
					c-0.4,0-0.9,0.1-1.2,0.4l-1,0.6l-0.2-1.1c-0.3-1.7-1.7-2.9-3.4-2.9c-1,0-2,0.4-2.6,1.2c-0.1,0.2-0.3,0.3-0.4,0.5
					c-0.1,0.2-0.2,0.4-0.3,0.7l-0.2,0.7l-0.7-0.2c-1.3-0.3-2.5,0.5-2.6,1.7l-0.1,0.6H110.7z"/>
			</g>
			<g id="XMLID_228_">
				<path fill="#0686D8" d="M116.3,94.2h-1.5c0-0.4-0.3-0.7-0.7-0.7V92C115.2,92,116.3,93,116.3,94.2z"/>
			</g>
		</g>
		<g>
			<g id="XMLID_227_">
				<path fill="#D2E9F7" d="M175.1,72H175c-0.5-1.8-2.1-3.1-4.1-3.1c-0.8,0-1.6,0.2-2.3,0.7c-0.4-2.8-2.8-4.9-5.8-4.9
					c-2.6,0-4.8,1.7-5.6,4.1c-0.3-0.1-0.7-0.1-1-0.1c-2,0-3.6,1.5-3.9,3.4h-0.7c-1.6,0-3,1.3-3,3v0.2c0,1.6,1.3,3,3,3h23.5
					c1.6,0,3-1.3,3-3v-0.2C178.1,73.3,176.7,72,175.1,72z"/>
			</g>
			<g id="XMLID_226_">
				<path fill="#FFFFFF" d="M172.3,72.7h-0.1c-0.5-1.6-1.9-2.7-3.6-2.7c-0.7,0-1.4,0.2-2,0.6c-0.4-2.5-2.5-4.4-5.1-4.4
					c-2.3,0-4.3,1.5-4.9,3.6c-0.3-0.1-0.6-0.1-0.9-0.1c-1.8,0-3.2,1.3-3.5,3h-0.6c-1.4,0-2.6,1.2-2.6,2.6v0.2c0,1.4,1.2,2.6,2.6,2.6
					h20.7c1.4,0,2.6-1.2,2.6-2.6v-0.2C175,73.9,173.8,72.7,172.3,72.7z"/>
			</g>
			<g id="XMLID_225_">
				<path fill="#0686D8" d="M166,69.5c-0.8-1.2-2-1.9-3.4-1.9c-0.7,0-1.5,0.2-2.1,0.6l-0.8-1.3c0.9-0.5,1.9-0.8,2.9-0.8
					c1.9,0,3.7,1,4.7,2.6L166,69.5z"/>
			</g>
			<g id="XMLID_224_">
				<path fill="#0686D8" d="M175.1,78.9h-23.5c-2.1,0-3.7-1.7-3.7-3.7v-0.2c0-2.1,1.7-3.7,3.7-3.7h0.1c0.6-2.2,2.7-3.6,5.1-3.3
					c0.1-0.2,0.2-0.4,0.3-0.6c0.2-0.4,0.4-0.7,0.7-1c1.3-1.5,3.1-2.3,5-2.3c2.9,0,5.4,1.9,6.3,4.6c0.6-0.2,1.2-0.3,1.8-0.3
					c2,0,3.9,1.2,4.6,3.1c1.9,0.2,3.3,1.8,3.3,3.7v0.2C178.8,77.2,177.1,78.9,175.1,78.9z M151.6,72.7c-1.2,0-2.2,1-2.2,2.2v0.2
					c0,1.2,1,2.2,2.2,2.2h23.5c1.2,0,2.2-1,2.2-2.2v-0.2c0-1.2-1-2.2-2.2-2.2h-0.7l-0.2-0.5c-0.4-1.5-1.8-2.5-3.4-2.5
					c-0.7,0-1.3,0.2-1.9,0.6l-1,0.6l-0.2-1.1c-0.4-2.5-2.5-4.3-5-4.3c-1.5,0-2.9,0.7-3.9,1.8c-0.2,0.2-0.4,0.5-0.5,0.8
					c-0.2,0.3-0.3,0.6-0.4,1l-0.2,0.7l-0.7-0.2c-2-0.5-3.8,0.8-4.1,2.6l-0.1,0.6H151.6z"/>
			</g>
			<g id="XMLID_223_">
				<path fill="#0686D8" d="M159.1,70.6h-1.5c0-0.7-0.6-1.3-1.3-1.3v-1.5C157.9,67.8,159.1,69.1,159.1,70.6z"/>
			</g>
		</g>
		<g>
			<g id="XMLID_237_">
				<path fill="#D2E9F7" d="M338.6,61.6h-0.1c-0.5-1.8-2.1-3.1-4.1-3.1c-0.8,0-1.6,0.3-2.3,0.7c-0.4-2.8-2.8-4.9-5.8-4.9
					c-2.6,0-4.8,1.7-5.6,4.1c-0.3-0.1-0.7-0.1-1-0.1c-2,0-3.6,1.5-3.9,3.4h-0.7c-1.6,0-3,1.3-3,3v0.2c0,1.6,1.3,3,3,3h23.5
					c1.6,0,3-1.3,3-3v-0.2C341.6,62.9,340.3,61.6,338.6,61.6z"/>
			</g>
			<g id="XMLID_236_">
				<path fill="#FFFFFF" d="M335.9,62.3h-0.1c-0.5-1.6-1.9-2.7-3.6-2.7c-0.7,0-1.4,0.2-2,0.6c-0.4-2.5-2.5-4.4-5.1-4.4
					c-2.3,0-4.3,1.5-4.9,3.6c-0.3-0.1-0.6-0.1-0.9-0.1c-1.8,0-3.2,1.3-3.5,3h-0.6c-1.4,0-2.6,1.2-2.6,2.6v0.2c0,1.4,1.2,2.6,2.6,2.6
					h20.7c1.4,0,2.6-1.2,2.6-2.6v-0.2C338.5,63.5,337.3,62.3,335.9,62.3z"/>
			</g>
			<g id="XMLID_235_">
				<path fill="#0686D8" d="M329.6,59.1c-0.8-1.2-2-1.9-3.4-1.9c-0.7,0-1.5,0.2-2.1,0.6l-0.8-1.3c0.9-0.5,1.8-0.8,2.9-0.8
					c1.9,0,3.7,1,4.7,2.6L329.6,59.1z"/>
			</g>
			<g id="XMLID_234_">
				<path fill="#0686D8" d="M338.6,68.5h-23.5c-2.1,0-3.7-1.7-3.7-3.7v-0.2c0-2.1,1.7-3.7,3.7-3.7h0.1c0.6-2.2,2.8-3.6,5.1-3.3
					c0.1-0.2,0.2-0.4,0.3-0.6c0.2-0.4,0.4-0.7,0.7-1c1.3-1.5,3.1-2.3,5-2.3c2.9,0,5.4,1.9,6.3,4.6c0.6-0.2,1.2-0.3,1.8-0.3
					c2,0,3.9,1.2,4.6,3.1c1.9,0.2,3.3,1.8,3.3,3.7v0.2C342.4,66.8,340.7,68.5,338.6,68.5z M315.2,62.3c-1.2,0-2.2,1-2.2,2.2v0.2
					c0,1.2,1,2.2,2.2,2.2h23.5c1.2,0,2.2-1,2.2-2.2v-0.2c0-1.2-1-2.2-2.2-2.2H338l-0.2-0.5c-0.4-1.5-1.8-2.5-3.4-2.5
					c-0.7,0-1.3,0.2-1.9,0.6l-1,0.6l-0.2-1.1c-0.4-2.5-2.5-4.3-5-4.3c-1.5,0-2.9,0.7-3.9,1.8c-0.2,0.2-0.4,0.5-0.5,0.8
					c-0.2,0.3-0.3,0.6-0.4,1l-0.2,0.7l-0.7-0.2c-1.9-0.5-3.8,0.8-4.1,2.6l-0.1,0.6H315.2z"/>
			</g>
			<g id="XMLID_233_">
				<path fill="#0686D8" d="M322.7,60.2h-1.5c0-0.7-0.6-1.3-1.3-1.3v-1.5C321.4,57.4,322.7,58.7,322.7,60.2z"/>
			</g>
		</g>
		<g>
			<g id="XMLID_173_">
				<circle fill="#D2E9F7" cx="279.3" cy="53.5" r="9.7"/>
			</g>
			<g id="XMLID_175_">
				<path fill="#0686D8" d="M279.3,64c-0.1,0-0.1,0-0.2,0l0,0c-5.8-0.1-10.4-4.9-10.3-10.7c0.1-5.7,4.8-10.3,10.5-10.3
					c0.1,0,0.1,0,0.2,0c5.8,0.1,10.4,4.9,10.3,10.7C289.6,59.4,285,64,279.3,64z M279.1,62.5c0.1,0,0.1,0,0.2,0c4.9,0,8.9-3.9,9-8.8
					c0.1-4.9-3.8-9-8.8-9.1c-0.1,0-0.1,0-0.2,0c-4.9,0-8.9,3.9-9,8.8C270.2,58.3,274.2,62.4,279.1,62.5L279.1,62.5z"/>
			</g>
			<g id="XMLID_296_">
				<g id="XMLID_360_">
					<path fill="#0686D8" d="M280.3,58h-4.9v-1.5h4.9c0.6,0,1.1-0.5,1.1-1.1c0-0.6-0.5-1.1-1.1-1.1h-2c-1.4,0-2.6-1.2-2.6-2.6
						c0-1.4,1.2-2.6,2.6-2.6h4.8v1.5h-4.8c-0.6,0-1.1,0.5-1.1,1.1c0,0.6,0.5,1.1,1.1,1.1h2c1.4,0,2.6,1.2,2.6,2.6
						C282.9,56.8,281.8,58,280.3,58z"/>
				</g>
				<g id="XMLID_359_">
					<rect x="278.5" y="46.8" fill="#0686D8" width="1.5" height="13.4"/>
				</g>
			</g>
			<g>
				<rect x="278.5" y="35.6" fill="#0686D8" width="1.5" height="6"/>
			</g>
			<g>
				
					<rect x="283.1" y="39.3" transform="matrix(0.94 0.3411 -0.3411 0.94 30.9576 -94.3852)" fill="#0686D8" width="1.5" height="3.1"/>
			</g>
			<g>
				
					<rect x="288.1" y="39.1" transform="matrix(0.7668 0.6419 -0.6419 0.7668 94.3762 -175.6139)" fill="#0686D8" width="1.5" height="6"/>
			</g>
			<g>
				
					<rect x="290.3" y="45" transform="matrix(0.501 0.8654 -0.8654 0.501 185.6678 -228.6224)" fill="#0686D8" width="1.5" height="3.4"/>
			</g>
			<g>
				
					<rect x="293.2" y="47.9" transform="matrix(0.1745 0.9847 -0.9847 0.1745 292.8319 -247.4463)" fill="#0686D8" width="1.5" height="6"/>
			</g>
			<g>
				<rect x="291" y="55.1" transform="matrix(0.981 0.194 -0.194 0.981 16.3973 -55.6827)" fill="#0686D8" width="3" height="1.5"/>
			</g>
			<g>
				
					<rect x="289.3" y="60.2" transform="matrix(0.8667 0.4988 -0.4988 0.8667 69.3744 -137.6413)" fill="#0686D8" width="6" height="1.5"/>
			</g>
			<g>
				
					<rect x="286.4" y="63.1" transform="matrix(0.6442 0.7648 -0.7648 0.6442 151.3162 -197.5378)" fill="#0686D8" width="3.1" height="1.5"/>
			</g>
			<g>
				
					<rect x="281.4" y="66.8" transform="matrix(0.3438 0.939 -0.939 0.3438 250.0809 -222.7407)" fill="#0686D8" width="6" height="1.5"/>
			</g>
			<g>
				
					<rect x="278.5" y="65.5" transform="matrix(1 9.066294e-003 -9.066294e-003 1 0.6188 -2.5294)" fill="#0686D8" width="1.5" height="3"/>
			</g>
			<g>
				
					<rect x="273.5" y="64.6" transform="matrix(0.9404 0.34 -0.34 0.9404 39.313 -89.1957)" fill="#0686D8" width="1.5" height="6"/>
			</g>
			<g>
				
					<rect x="269.9" y="62.4" transform="matrix(0.7756 0.6312 -0.6312 0.7756 101.0642 -156.5044)" fill="#0686D8" width="1.5" height="3"/>
			</g>
			<g>
				
					<rect x="265.6" y="58.1" transform="matrix(0.5026 0.8645 -0.8645 0.5026 185.273 -199.9096)" fill="#0686D8" width="1.5" height="6"/>
			</g>
			<g>
				
					<rect x="265.3" y="54.4" transform="matrix(0.177 0.9842 -0.9842 0.177 273.9679 -215.8165)" fill="#0686D8" width="1.5" height="3"/>
			</g>
			<g>
				
					<rect x="261.6" y="50.2" transform="matrix(0.9854 0.1703 -0.1703 0.9854 12.546 -44.3028)" fill="#0686D8" width="6" height="1.5"/>
			</g>
			<g>
				
					<rect x="266.2" y="46.1" transform="matrix(0.8678 0.4969 -0.4969 0.8678 58.659 -126.7812)" fill="#0686D8" width="2.9" height="1.5"/>
			</g>
			<g>
				
					<rect x="266.6" y="41.4" transform="matrix(0.6457 0.7636 -0.7636 0.6457 127.6823 -190.9539)" fill="#0686D8" width="6" height="1.5"/>
			</g>
			<g>
				
					<rect x="273.1" y="40.2" transform="matrix(0.3458 0.9383 -0.9383 0.3458 218.051 -230.9209)" fill="#0686D8" width="3" height="1.5"/>
			</g>
		</g>
		<g opacity="0.3">
			<path fill="#0565A2" d="M358.1,154.8l0.5-3.3h-2.9v-26.8h-3.6c-1.7,0-3,1.4-3,3v29.4h0.8v0.4h2.2h4.4
				C357.3,156.9,357.9,155.9,358.1,154.8z"/>
		</g>
		<g id="XMLID_633_">
			<g id="XMLID_634_">
				<path fill="#FFFFFF" d="M351.8,157.6h26.3v-29.9c0-1.2-1-2.2-2.2-2.2h-21.8c-1.2,0-2.2,1-2.2,2.2V157.6z"/>
			</g>
			<g id="XMLID_630_">
				<path fill="#0686D8" d="M352.6,157.2h-1.5v-29.4c0-1.7,1.4-3,3-3h9.2v1.5h-9.2c-0.8,0-1.5,0.7-1.5,1.5V157.2z"/>
			</g>
			<g id="XMLID_631_">
				<rect x="377.3" y="141.3" fill="#0686D8" width="1.5" height="16.2"/>
			</g>
			<g id="XMLID_629_">
				<rect x="354" y="130.3" fill="#D2E9F7" width="21.9" height="27.3"/>
			</g>
			<g id="XMLID_628_">
				<rect x="362.2" y="127.6" fill="#0686D8" width="1.3" height="1.5"/>
			</g>
			<g id="XMLID_854_">
				<path fill="#FFFFFF" d="M375.7,141.3l3-4.4c1.3-0.5,2.5-1.2,3.5-2.3c3.9-3.9,3.9-10.2,0-14.1c-3.9-3.9-10.2-3.9-14.1,0
					c-3.9,3.9-3.9,10.2,0,14.1c1.4,1.4,3.1,2.3,4.8,2.7L375.7,141.3z"/>
			</g>
			<g id="XMLID_399_">
				<path fill="#0686D8" d="M375.8,142.7l-3.2-4.7c-1.9-0.5-3.6-1.4-4.9-2.8c-4.2-4.2-4.2-11,0-15.2c4.2-4.2,11-4.2,15.2,0
					c4.2,4.2,4.2,11,0,15.2c-1,1-2.2,1.8-3.5,2.3L375.8,142.7z M375.2,118.3c-2.4,0-4.7,0.9-6.5,2.7c-3.6,3.6-3.6,9.5,0,13.1
					c1.2,1.2,2.8,2.1,4.5,2.5l0.3,0.1l2.3,3.4l2.6-3.7l0.2-0.1c1.2-0.5,2.3-1.2,3.2-2.1c3.6-3.6,3.6-9.5,0-13.1
					C380,119.2,377.6,118.3,375.2,118.3z"/>
			</g>
			<g id="XMLID_626_">
				<polygon fill="#5FB0E5" points="354,149.9 354,157.2 358.7,157.2 358.7,145.9 				"/>
			</g>
			<g id="XMLID_625_">
				<polygon fill="#5FB0E5" points="362.8,147.7 362.8,147.7 362.8,157.2 368.3,157.2 368.3,143.7 				"/>
			</g>
			<g id="XMLID_623_">
				<polygon fill="#9ECFEF" points="358.7,145.9 358.7,145.9 358.7,157.2 362.8,157.2 362.8,147.7 				"/>
			</g>
			<g id="XMLID_622_">
				<polygon fill="#5FB0E5" points="375.9,141.9 371.7,145.6 371.7,157.2 375.9,157.1 				"/>
			</g>
			<g id="XMLID_621_">
				<polygon fill="#9ECFEF" points="371.7,145.6 368.3,143.7 368.3,157.2 371.7,157.2 371.7,145.6 				"/>
			</g>
			<g id="XMLID_619_">
				<polygon fill="#0686D8" points="354.7,150.3 354,150.3 354,148.8 354.2,148.8 358.6,145 362.7,146.8 368.2,142.8 371.6,144.6 
					375.4,141.4 375.9,141.4 375.9,142.5 376.1,142.7 371.7,146.5 368.3,144.6 362.9,148.6 358.8,146.8 				"/>
			</g>
			<g id="XMLID_657_">
				<g id="XMLID_659_">
					<path fill="#0686D8" d="M375.9,131.4h-4.6v-1.5h4.6c0.5,0,1-0.4,1-1c0-0.5-0.4-1-1-1h-1.9c-1.4,0-2.5-1.1-2.5-2.5
						c0-1.4,1.1-2.5,2.5-2.5h4.5v1.5h-4.5c-0.5,0-1,0.4-1,1c0,0.5,0.4,1,1,1h1.9c1.4,0,2.5,1.1,2.5,2.5
						C378.4,130.3,377.3,131.4,375.9,131.4z"/>
				</g>
				<g id="XMLID_658_">
					<rect x="374.2" y="121" fill="#0686D8" width="1.5" height="12.6"/>
				</g>
			</g>
		</g>
		<g>
			<g id="XMLID_207_">
				<path fill="#D2E9F7" d="M398,148.6l-1.2,0c-0.1-0.6-0.4-1.3-0.7-1.8l0.9-0.9c0.3-0.3,0.3-0.8,0-1.1l-0.7-0.7
					c-0.3-0.3-0.8-0.3-1.1,0l-0.9,0.9c-0.5-0.3-1.2-0.6-1.8-0.7V143c0-0.4-0.4-0.8-0.8-0.8h-0.9c-0.4,0-0.8,0.4-0.8,0.8v1.2
					c-0.6,0.1-1.2,0.4-1.8,0.7l-0.9-0.9c-0.3-0.3-0.8-0.3-1.1,0l-0.7,0.7c-0.3,0.3-0.3,0.8,0,1.1l0.9,0.9c-0.3,0.5-0.6,1.1-0.8,1.8
					l-1.2,0c-0.4,0-0.8,0.4-0.8,0.8l0,0.9c0,0.4,0.4,0.8,0.8,0.8l1.2,0c0.1,0.7,0.4,1.3,0.7,1.8l-0.9,0.9c-0.3,0.3-0.3,0.8,0,1.1
					l0.7,0.7c0.3,0.3,0.8,0.3,1.1,0l0.9-0.9c0.5,0.3,1.1,0.6,1.8,0.8l0,1.2c0,0.4,0.4,0.8,0.8,0.8l0.9,0c0.4,0,0.8-0.4,0.8-0.8
					l0-1.2c0.6-0.1,1.3-0.4,1.8-0.7l0.9,0.9c0.3,0.3,0.8,0.3,1.1,0l0.7-0.7c0.3-0.3,0.3-0.8,0-1.1L396,153c0.3-0.5,0.6-1.1,0.7-1.8
					l1.2,0c0.4,0,0.8-0.4,0.8-0.8v-0.9C398.8,149,398.4,148.6,398,148.6z M391.1,152.4c-1.4,0-2.6-1.1-2.6-2.6
					c0-1.4,1.1-2.6,2.6-2.6c1.4,0,2.6,1.1,2.6,2.6C393.7,151.3,392.5,152.4,391.1,152.4z"/>
			</g>
			<g id="XMLID_209_">
				<path fill="#0686D8" d="M391.5,158.3l-0.9,0c-0.4,0-0.8-0.2-1.1-0.5c-0.3-0.3-0.5-0.7-0.5-1.1l0-0.7c-0.3-0.1-0.6-0.2-0.9-0.4
					l-0.5,0.5c-0.3,0.3-0.7,0.5-1.1,0.5c0,0,0,0,0,0c-0.4,0-0.8-0.2-1.1-0.5l-0.7-0.7c-0.3-0.3-0.5-0.7-0.5-1.1
					c0-0.4,0.2-0.8,0.5-1.1l0.5-0.5c-0.1-0.3-0.3-0.6-0.4-0.9l-0.7,0c-0.9,0-1.6-0.7-1.6-1.6l0-0.9c0-0.4,0.2-0.8,0.5-1.1
					c0.3-0.3,0.7-0.4,1.1-0.4c0,0,0,0,0,0l0.7,0c0.1-0.3,0.2-0.6,0.4-0.9l-0.5-0.5c-0.3-0.3-0.5-0.7-0.4-1.1c0-0.4,0.2-0.8,0.5-1.1
					l0.7-0.7c0.3-0.3,0.7-0.5,1.1-0.5l0,0c0.4,0,0.8,0.2,1.1,0.5l0.5,0.5c0.3-0.1,0.6-0.3,0.9-0.4V143c0-0.9,0.7-1.6,1.6-1.6h0.9
					c0.9,0,1.6,0.7,1.6,1.6v0.7c0.3,0.1,0.6,0.2,0.9,0.4l0.5-0.5c0.3-0.3,0.7-0.5,1.1-0.5c0,0,0,0,0,0c0.4,0,0.8,0.2,1.1,0.5
					l0.7,0.7c0.3,0.3,0.5,0.7,0.5,1.1c0,0.4-0.2,0.8-0.5,1.1l-0.5,0.5c0.2,0.3,0.3,0.6,0.4,0.9l0.7,0c0.9,0,1.6,0.7,1.6,1.6v0.9
					c0,0.9-0.7,1.6-1.6,1.6l-0.7,0c-0.1,0.3-0.2,0.6-0.4,0.9l0.5,0.5c0.3,0.3,0.5,0.7,0.5,1.1c0,0.4-0.2,0.8-0.5,1.1l-0.7,0.7
					c-0.6,0.6-1.6,0.6-2.2,0l-0.5-0.5c-0.3,0.2-0.6,0.3-0.9,0.4l0,0.7C393.1,157.6,392.4,158.3,391.5,158.3z M387.9,153.8l0.5,0.3
					c0.5,0.3,1,0.5,1.6,0.7l0.6,0.1l0,1.8l1,0.1l0.1-1.9l0.6-0.1c0.6-0.1,1.1-0.3,1.6-0.6l0.5-0.3l1.3,1.3l0.7-0.7l-1.3-1.4l0.3-0.5
					c0.3-0.5,0.5-1,0.7-1.6l0.1-0.6l1.8,0l0.1-1h0l-0.1-0.1l-1.8,0l-0.1-0.6c-0.1-0.6-0.3-1.1-0.7-1.6l-0.3-0.5l1.3-1.3l-0.7-0.7
					l-1.4,1.3l-0.5-0.3c-0.5-0.3-1-0.5-1.6-0.6l-0.6-0.1V143l-1-0.1l-0.1,1.9L390,145c-0.5,0.1-1.1,0.3-1.5,0.6l-0.5,0.3l-1.3-1.3
					l-0.7,0.7l1.3,1.4l-0.3,0.5c-0.3,0.5-0.5,1-0.7,1.6l-0.1,0.6l-1.8,0l-0.1,1l1.9,0.1l0.1,0.6c0.1,0.6,0.3,1.1,0.6,1.6l0.3,0.5
					l-1.3,1.3l0.7,0.7L387.9,153.8z M391.1,153.2c-1.8,0-3.3-1.5-3.3-3.3c0-1.8,1.5-3.3,3.3-3.3c1.8,0,3.3,1.5,3.3,3.3
					C394.4,151.7,392.9,153.2,391.1,153.2z M391.1,148.1c-1,0-1.8,0.8-1.8,1.8c0,1,0.8,1.8,1.8,1.8c1,0,1.8-0.8,1.8-1.8
					C392.9,148.9,392.1,148.1,391.1,148.1z"/>
			</g>
		</g>
		<g id="XMLID_590_">
			<g id="XMLID_581_">
				<g id="XMLID_579_">
					<path fill="#5FB0E5" d="M49,157.6h-0.7c-0.6,0-1-0.4-1-1v-2.2c0-0.6,0.4-1,1-1H49c0.5,0,1,0.4,1,1v2.2
						C50,157.1,49.6,157.6,49,157.6z"/>
				</g>
				<g id="XMLID_577_">
					<path fill="#0686D8" d="M49,158.3h-0.7c-1,0-1.8-0.8-1.8-1.8v-2.2c0-1,0.8-1.8,1.8-1.8H49c1,0,1.8,0.8,1.8,1.8v2.2
						C50.8,157.5,50,158.3,49,158.3z M48.3,154.2c-0.1,0-0.3,0.1-0.3,0.3v2.2c0,0.1,0.1,0.3,0.3,0.3H49c0.1,0,0.3-0.1,0.3-0.3v-2.2
						c0-0.1-0.1-0.3-0.3-0.3H48.3z"/>
				</g>
				<g id="XMLID_569_">
					<path fill="#FFFFFF" d="M57.8,136.5c0-5-4.1-9.1-9.1-9.1c-5,0-9.1,4.1-9.1,9.1c0,3.4,1.8,6.3,4.5,7.9v8.9l1.3,2.4h6.2l1.5-2.4
						v-8.9C55.9,142.8,57.8,139.9,57.8,136.5z"/>
				</g>
				<g id="XMLID_580_">
					<polygon fill="#D2E9F7" points="44.2,144.4 44.2,153.3 45.5,155.8 51.7,155.8 53.2,153.3 53.2,144.4 					"/>
				</g>
				<g id="XMLID_222_">
					<polygon fill="#5FB0E5" points="53.2,153.3 51.7,155.8 45.5,155.8 44.2,153.3 					"/>
				</g>
				<g id="XMLID_574_">
					<path fill="#0686D8" d="M52.1,156.5H45l-1.6-3v-8.7c-2.8-1.8-4.5-4.9-4.5-8.3c0-2.3,0.8-4.6,2.3-6.3l1.1,1
						c-1.3,1.5-2,3.4-2,5.4c0,3,1.6,5.7,4.2,7.2l0.4,0.2v9.2l1,1.9h5.4l1.2-1.9v-9.2l0.4-0.2c2.6-1.5,4.2-4.2,4.2-7.2
						c0-4.6-3.7-8.3-8.3-8.3c-1.1,0-2.1,0.2-3.1,0.6l-0.6-1.4c1.2-0.5,2.4-0.7,3.7-0.7c5.4,0,9.8,4.4,9.8,9.8c0,3.3-1.7,6.5-4.5,8.3
						v8.7L52.1,156.5z"/>
				</g>
				<g id="XMLID_221_">
					<path fill="#0686D8" d="M43.2,130.3l-1.1-1.1c0.6-0.6,0.9-0.8,1.5-1.1l0.2-0.1l0.7,1.3l-0.2,0.1
						C43.8,129.7,43.7,129.8,43.2,130.3z"/>
				</g>
				<g id="XMLID_566_">
					<rect x="42.8" y="146.4" fill="#0686D8" width="11.8" height="1.5"/>
				</g>
				<g id="XMLID_564_">
					<rect x="42.8" y="148.5" fill="#0686D8" width="11.8" height="1.5"/>
				</g>
				<g id="XMLID_220_">
					<rect x="42.8" y="150.5" fill="#0686D8" width="11.8" height="1.5"/>
				</g>
				<g id="XMLID_573_">
					<rect x="42.8" y="152.6" fill="#0686D8" width="11.8" height="1.5"/>
				</g>
				<g id="XMLID_219_">
					<circle fill="#D2E9F7" cx="48.6" cy="136.3" r="6.4"/>
				</g>
				<g id="XMLID_576_">
					<path fill="#5FB0E5" d="M50.6,134.9c0-1.1-0.9-1.9-1.9-1.9c-1.1,0-1.9,0.9-1.9,1.9c0,0.5,0.2,1,0.6,1.3l-0.6,3.4h3.7l-0.5-3.3
						C50.4,136,50.6,135.4,50.6,134.9z"/>
				</g>
				<g id="XMLID_572_">
					<path fill="#0686D8" d="M51.4,140.3h-5.5l0.7-3.9c-0.3-0.5-0.5-1-0.5-1.6c0-1.5,1.2-2.7,2.7-2.7c1.5,0,2.7,1.2,2.7,2.7
						c0,0.6-0.2,1.2-0.6,1.7L51.4,140.3z M47.7,138.8h1.9l-0.5-2.8l0.3-0.3c0.3-0.2,0.4-0.5,0.4-0.9c0-0.6-0.5-1.2-1.2-1.2
						c-0.6,0-1.2,0.5-1.2,1.2c0,0.3,0.1,0.6,0.3,0.8l0.3,0.3L47.7,138.8z"/>
				</g>
			</g>
		</g>
		<g>
			<rect x="0" y="156.8" fill="#0686D8" width="437.3" height="1.5"/>
		</g>
	</g>
</g>
</svg>
